<?xml version="1.0" encoding="utf-8"?>
<!-- Generator: Adobe Illustrator 26.3.1, SVG Export Plug-In . SVG Version: 6.00 Build 0)  -->
<svg version="1.1" id="LOGO" xmlns="http://www.w3.org/2000/svg" xmlns:xlink="http://www.w3.org/1999/xlink" x="0px" y="0px"
	 viewBox="0 0 479 163.4" style="enable-background:new 0 0 479 163.4;" xml:space="preserve">
<style type="text/css">
	.st0{fill:#6060FF;}
</style>
<path class="st0" d="M32.4,39.1l38.7-19.6V0L28.3,21.6C22,24.8,17,31.4,28.3,37L32.4,39.1z M51.7,48.9l6.4,3.2
	c8.2,4.1,17.8,4.1,25.9,0l6.4-3.2V29.4L51.7,48.9z M142.5,68.3L91.3,93.6c-12.7,6.4-27.7,6.4-40.3,0L0,68.3V42.2L50.9,68
	c12.7,6.4,27.7,6.4,40.3,0l50.9-25.8L142.5,68.3z M103.5,122.2v-9.1c0-12.7,6.9-19.6,19.5-19.6s19.5,6.9,19.5,19.6v6.7h-31.1v2.1
	c0,9,3.8,13.2,12,13.2c7,0,10.7-3,11.2-8.1h7.6c-0.6,9.9-7.5,14.9-18.6,14.9C110.6,141.8,103.5,134.9,103.5,122.2z M134.9,113.2
	c0-8.9-3.7-13-11.7-13s-11.8,4.1-11.8,13H134.9z M153.1,94.6h6.7l0.3,7.2c3.7-5.7,8.2-8.3,14.5-8.3c6.4,0,10.8,2.8,12.7,8.1
	c3.9-5.7,8.6-8.1,14.5-8.1c9.2,0,14.3,5.5,14.3,15.8v31.5h-7.9v-30.9c0-6.2-2.7-9.1-7.5-9.1s-8.8,3-12.2,9.8v30.2h-7.9v-30.9
	c0-6.2-2.7-9.1-7.5-9.1s-8.8,3-12.2,10.2v29.8H153L153.1,94.6L153.1,94.6z M226.8,94.6h6.7l0.3,7.3c3.9-5.8,8.9-8.4,15.6-8.4
	c10.7,0,17,6.6,17,19.2v9.9c0,12.6-6.3,19.2-17,19.2c-5.8,0.2-11.3-2.5-14.7-7.2v28.7h-7.9L226.8,94.6z M258.4,122.3V113
	c0-8.2-3.8-12.6-10.1-12.6c-5.9,0-10.6,3.9-13.7,10.5v13.6c3,6.6,7.8,10.5,13.7,10.5C254.6,134.9,258.4,130.6,258.4,122.3
	L258.4,122.3z M275.3,71.2h7.9v69.6h-7.9V71.2z M293.8,124.9V94.6h7.9v29.7c0,7.2,2.7,10.4,8.2,10.4s9.9-3.2,13.2-10v-30h7.9v46.2
	h-6.7l-0.3-7.3c-4,5.8-9,8.4-15.6,8.4C298.6,141.8,293.7,136,293.8,124.9L293.8,124.9z M345.8,126.4V101h-8v-6.5h8.1l0.6-12.2h7.1
	v12.2H365v6.5h-11.3v25.4c0,6,1.3,7.5,6.6,7.5h5.3v6.8h-7.2C349.5,140.8,345.7,136.5,345.8,126.4L345.8,126.4z M374.6,94.6h7.9v46.2
	h-7.9V94.6z M378.5,76.4c3,0,5.5,2.5,5.5,5.5s-2.5,5.4-5.5,5.4c-3,0.1-5.4-2.3-5.5-5.3v-0.1C373,78.9,375.5,76.4,378.5,76.4
	L378.5,76.4L378.5,76.4z M393.2,121.4v-7.5c0-13.4,6.9-20.4,20-20.4s20,7,20,20.4v7.5c0,13.4-6.9,20.4-20,20.4
	S393.2,134.9,393.2,121.4L393.2,121.4z M425.2,121.1V114c0-9.3-3.9-13.7-12.1-13.7S401,104.7,401,114v7.1c0,9.3,3.9,13.8,12.1,13.8
	S425.2,130.5,425.2,121.1L425.2,121.1z M442.1,94.6h6.7l0.3,7.2c4-5.7,9-8.3,15.4-8.3c9.7,0,14.5,5.8,14.5,16.9v30.4h-7.9v-29.6
	c0-7.2-2.7-10.4-8.2-10.4s-9.7,3.2-13,10v30h-7.8V94.6z"/>
</svg>
