<svg width="579" height="392" viewBox="0 0 579 392" fill="none" xmlns="http://www.w3.org/2000/svg">
<g clip-path="url(#clip0_484_463)">
<path d="M151.368 233.878C148.845 233.878 146.69 232.059 146.266 229.572L142.855 209.549C142.316 206.389 144.751 203.505 147.957 203.505L159.241 203.505C162.447 203.505 164.882 206.389 164.343 209.549L160.932 229.572C160.508 232.059 158.353 233.878 155.83 233.878L151.368 233.878Z" fill="#5757FF"/>
<path d="M187.282 233.877C184.76 233.877 182.604 232.058 182.18 229.571L178.769 209.548C178.23 206.388 180.665 203.504 183.871 203.504L195.155 203.504C198.361 203.504 200.796 206.388 200.257 209.548L196.846 229.571C196.422 232.058 194.267 233.877 191.744 233.877L187.282 233.877Z" fill="#5757FF"/>
<path d="M232.026 190.718C234.885 190.718 237.202 193.035 237.202 195.893L237.202 219.643C237.202 220.989 236.678 222.281 235.741 223.247L226.952 232.306C225.977 233.311 224.637 233.878 223.238 233.878L218.828 233.878C215.97 233.878 213.653 231.561 213.653 228.702L213.653 195.893C213.653 193.035 215.97 190.718 218.828 190.718L232.026 190.718Z" fill="#5757FF"/>
<path d="M258.447 189.811C256.835 186.378 259.34 182.435 263.132 182.435H321.36C325.152 182.435 327.656 186.378 326.044 189.811L315.38 212.511C314.527 214.327 312.702 215.486 310.696 215.486H273.796C271.79 215.486 269.964 214.327 269.111 212.511L258.447 189.811Z" fill="#EBEBF4"/>
<path d="M83.229 171.396C75.2356 172.164 67.8991 166.847 66.2255 158.993L38.534 29.0404C36.644 20.1711 42.6882 11.6344 51.7092 10.7082C85.8325 7.20472 170.742 0.000329761 291.987 0.00033972C412.834 0.000334438 497.584 7.15751 531.927 10.6736C541.066 11.6092 547.138 20.3412 545.052 29.2879L514.737 159.315C512.94 167.025 505.682 172.181 497.802 171.422C468.512 168.604 394.146 162.623 290.38 162.623C186.933 162.623 112.705 168.567 83.229 171.396Z" fill="#EBEBF4"/>
<path d="M271.075 32.1184C267.796 32.7801 264.518 30.4304 264.329 27.0898L263.997 21.1839C263.868 18.9097 265.249 16.8381 267.456 16.2751C271.98 15.1211 280.497 13.4564 291.987 13.4564C303.547 13.4564 312.098 15.1415 316.6 16.2962C318.766 16.8517 320.141 18.8663 320.064 21.1012L319.858 27.0386C319.742 30.3965 316.492 32.8114 313.195 32.1643C308.014 31.1476 300.229 29.9792 291.811 29.9792C283.519 29.9792 276.06 31.1128 271.075 32.1184Z" fill="#E1E1EE"/>
<rect x="141.825" y="60.3164" width="94.8593" height="45.7971" rx="5.17545" fill="#E1E1EE"/>
<path d="M96.7706 181.189C94.2637 181.453 91.94 179.889 91.233 177.47L87.4274 164.447C86.5412 161.415 88.5276 158.321 91.6647 157.947C111.967 155.523 183.531 148.018 291.342 148.018C400.374 148.018 473.26 155.694 492.899 158.027C495.822 158.374 497.796 161.107 497.277 164.004L494.966 176.897C494.486 179.577 492.056 181.435 489.347 181.161C468.965 179.098 385.857 171.319 291.342 171.319C196.395 171.319 115.908 179.169 96.7706 181.189Z" fill="#E1E1EE"/>
<path fill-rule="evenodd" clip-rule="evenodd" d="M111.175 168.67C108.1 169.012 105.412 166.609 105.412 163.516V138.449C105.412 135.822 107.369 133.611 109.98 133.319C141.194 129.824 186.401 126.054 243.175 124.799C246.072 124.735 248.453 127.069 248.453 129.966V154.276C248.453 157.086 246.209 159.381 243.401 159.459C189.83 160.939 142.961 165.128 111.175 168.67Z" fill="#EBEBF4"/>
<path fill-rule="evenodd" clip-rule="evenodd" d="M342 151.156C338.925 150.813 336.237 153.216 336.237 156.309V181.376C336.237 184.004 338.194 186.214 340.805 186.506C372.019 190.001 417.226 193.771 474.001 195.026C476.897 195.09 479.278 192.757 479.278 189.86V165.549C479.278 162.74 477.035 160.444 474.226 160.366C420.655 158.886 373.786 154.697 342 151.156Z" fill="#EBEBF4"/>
<path fill-rule="evenodd" clip-rule="evenodd" d="M240.825 138.556C240.825 166.945 217.811 189.96 189.421 189.96C161.032 189.96 138.018 166.945 138.018 138.556C138.018 110.167 161.032 87.1523 189.421 87.1523C217.811 87.1523 240.825 110.167 240.825 138.556ZM184.43 176.471L182.294 143.472C169.878 143.712 159.027 144.548 151.858 145.241C154.712 161.544 167.905 174.29 184.43 176.471ZM151.803 132.301C154.81 114.21 170.532 100.418 189.476 100.418C208.419 100.418 224.141 114.21 227.149 132.301C218.849 131.479 205.949 130.57 189.476 130.57C173.003 130.57 160.102 131.479 151.803 132.301ZM227.097 145.224C224.249 161.535 211.052 174.289 194.522 176.471L196.657 143.483C208.846 143.735 219.748 144.546 227.097 145.224Z" fill="#5757FF"/>
<rect x="254.982" y="143.36" width="74.5265" height="34.6755" rx="5.17545" fill="#EBEBF4"/>
<rect x="272.579" y="378.844" width="158.685" height="39.3334" rx="5.17545" transform="rotate(-90 272.579 378.844)" fill="#EBEBF4"/>
<path d="M70.6734 391.264L49.4739 391.264C49.4739 391.264 49.1753 352.125 49.1753 286.789C49.1753 246.421 52.9365 215.804 55.8112 198.298C57.39 188.684 66.22 182.367 75.9158 183.324C78.2249 183.552 79.8482 185.698 79.4414 187.982C77.1571 200.812 70.6843 241.188 70.6843 286.789C70.6843 342.16 70.6734 391.264 70.6734 391.264Z" fill="#E1E1EE"/>
<rect x="64.8813" y="332.265" width="93.1581" height="17.079" rx="5.17545" transform="rotate(-90 64.8813 332.265)" fill="#EBEBF4"/>
<path d="M508.755 391.264L531.721 391.264C531.721 391.264 532.045 352.125 532.045 286.789C532.045 247.278 528.141 217.108 525.055 199.43C523.249 189.082 513.729 182.354 503.268 183.306C500.684 183.542 498.876 185.988 499.363 188.536C501.926 201.941 508.743 241.825 508.743 286.789C508.743 342.16 508.755 391.264 508.755 391.264Z" fill="#E1E1EE"/>
<rect width="93.1581" height="17.079" rx="5.17545" transform="matrix(4.37114e-08 -1 -1 -4.37114e-08 514.79 332.265)" fill="#EBEBF4"/>
<rect x="105.412" y="312.08" width="40.3685" height="22.772" rx="5.17545" transform="rotate(-90 105.412 312.08)" fill="#EBEBF4"/>
<rect width="40.3685" height="22.772" rx="5.17545" transform="matrix(4.37114e-08 -1 -1 -4.37114e-08 479.08 312.08)" fill="#EBEBF4"/>
<path d="M125.079 378.844C122.22 378.844 119.903 376.527 119.903 373.668L119.903 250.416C119.903 247.801 121.835 245.601 124.434 245.307C136.075 243.989 167.648 240.659 189.513 240.659C211.378 240.659 242.952 243.989 254.592 245.307C257.191 245.601 259.123 247.801 259.123 250.416L259.123 373.668C259.123 376.527 256.806 378.844 253.947 378.844L125.079 378.844Z" fill="#EBEBF4"/>
<path d="M459.413 378.844C462.271 378.844 464.588 376.527 464.588 373.668L464.588 250.413C464.588 247.799 462.659 245.6 460.061 245.305C448.456 243.986 417.012 240.659 394.979 240.659C372.945 240.659 341.501 243.986 329.896 245.305C327.298 245.6 325.369 247.799 325.369 250.413L325.369 373.668C325.369 376.527 327.686 378.844 330.544 378.844L459.413 378.844Z" fill="#EBEBF4"/>
<path d="M257.426 338.678C260.859 337.26 264.847 339.601 265.092 343.307L266.481 364.328C266.861 370.084 264 375.552 258.725 377.886C246.855 383.137 222.843 391.447 189.756 391.447C156.424 391.447 132.071 383.013 120.152 377.77C114.964 375.488 112.071 370.169 112.3 364.506L113.156 343.392C113.307 339.661 117.263 337.224 120.73 338.612C133.119 343.572 159.927 352.68 189.756 352.68C219.452 352.68 245.387 343.653 257.426 338.678Z" fill="#E1E1EE"/>
<path d="M462.891 338.678C466.324 337.26 470.312 339.601 470.557 343.307L471.946 364.328C472.326 370.084 469.464 375.552 464.19 377.886C452.32 383.137 428.308 391.447 395.221 391.447C361.888 391.447 337.536 383.013 325.617 377.77C320.429 375.488 317.535 370.169 317.765 364.506L318.62 343.392C318.772 339.661 322.728 337.224 326.194 338.612C338.583 343.572 365.392 352.68 395.221 352.68C424.916 352.68 450.852 343.653 462.891 338.678Z" fill="#E1E1EE"/>
<circle cx="292.246" cy="239.106" r="10.189" fill="#5757FF"/>
<path d="M57.5501 194.844C61.2037 194.18 63.5308 190.7 62.7564 187.068L60.7162 177.499C59.9573 173.939 56.4961 171.547 52.9022 172.135C47.8535 172.96 40.0137 174.282 29.998 176.097C21.8026 177.582 15.4879 180.904 11.0116 184.122C5.11356 188.362 3.74199 195.998 5.46147 203.152L5.78042 204.479C6.76844 208.589 12.2842 210.221 15.6409 207.742C20.3841 204.239 27.0844 200.372 34.8729 198.961C43.7594 197.351 52.0692 195.841 57.5501 194.844Z" fill="#E1E1EE"/>
<path d="M521.767 194.844C518.113 194.18 515.786 190.7 516.56 187.068L518.601 177.499C519.36 173.939 522.821 171.547 526.415 172.135C531.463 172.96 539.303 174.282 549.319 176.097C557.514 177.582 563.829 180.904 568.305 184.122C574.203 188.362 575.575 195.998 573.855 203.152L573.536 204.479C572.548 208.589 567.033 210.221 563.676 207.742C558.933 204.239 552.233 200.372 544.444 198.961C535.558 197.351 527.248 195.841 521.767 194.844Z" fill="#E1E1EE"/>
</g>
<defs>
<clipPath id="clip0_484_463">
<rect width="578.264" height="392" fill="white" transform="translate(0.526367)"/>
</clipPath>
</defs>
</svg>
