<svg width="579" height="392" viewBox="0 0 579 392" fill="none" xmlns="http://www.w3.org/2000/svg">
<g clip-path="url(#clip0_484_553)">
<path d="M151.001 233.877C148.478 233.877 146.323 232.058 145.899 229.571L142.488 209.548C141.949 206.388 144.384 203.504 147.589 203.504L158.874 203.504C162.08 203.504 164.515 206.388 163.976 209.548L160.564 229.571C160.141 232.058 157.985 233.877 155.463 233.877L151.001 233.877Z" fill="#E5E5F4"/>
<path d="M186.915 233.877C184.392 233.877 182.237 232.058 181.813 229.571L178.402 209.548C177.863 206.388 180.298 203.504 183.503 203.504L194.788 203.504C197.994 203.504 200.429 206.388 199.89 209.548L196.478 229.571C196.055 232.058 193.899 233.877 191.377 233.877L186.915 233.877Z" fill="#E5E5F4"/>
<path d="M231.659 190.718C234.517 190.718 236.834 193.035 236.834 195.893L236.834 219.643C236.834 220.989 236.311 222.281 235.374 223.247L226.585 232.306C225.61 233.311 224.27 233.878 222.87 233.878L218.461 233.878C215.603 233.878 213.286 231.561 213.286 228.702L213.286 195.893C213.286 193.035 215.603 190.718 218.461 190.718L231.659 190.718Z" fill="#E5E5F4"/>
<path d="M258.08 189.811C256.468 186.378 258.972 182.435 262.765 182.435H320.992C324.785 182.435 327.289 186.378 325.677 189.811L315.013 212.511C314.16 214.327 312.335 215.486 310.329 215.486H273.428C271.422 215.486 269.597 214.327 268.744 212.511L258.08 189.811Z" fill="#5757FF"/>
<path d="M82.8618 171.396C74.8685 172.164 67.5319 166.847 65.8584 158.993L38.1668 29.0404C36.2768 20.1711 42.321 11.6344 51.342 10.7082C85.4653 7.20472 170.375 0.000329761 291.62 0.00033972C412.467 0.000334438 497.217 7.15751 531.56 10.6736C540.699 11.6092 546.771 20.3412 544.685 29.2879L514.37 159.315C512.572 167.025 505.315 172.181 497.434 171.422C468.145 168.604 393.778 162.623 290.013 162.623C186.565 162.623 112.338 168.567 82.8618 171.396Z" fill="#E5E5F4"/>
<path d="M270.708 32.1184C267.428 32.7801 264.15 30.4304 263.962 27.0898L263.629 21.1839C263.501 18.9097 264.882 16.8381 267.089 16.2751C271.613 15.1211 280.13 13.4564 291.62 13.4564C303.18 13.4564 311.731 15.1415 316.233 16.2962C318.399 16.8517 319.774 18.8663 319.697 21.1012L319.491 27.0386C319.375 30.3965 316.124 32.8114 312.827 32.1643C307.647 31.1476 299.862 29.9792 291.443 29.9792C283.151 29.9792 275.693 31.1128 270.708 32.1184Z" fill="#DADAEC"/>
<rect x="141.458" y="60.3164" width="94.8593" height="45.7971" rx="5.17545" fill="#5757FF"/>
<path d="M96.4034 181.189C93.8965 181.453 91.5728 179.889 90.8658 177.47L87.0602 164.447C86.174 161.415 88.1604 158.321 91.2975 157.947C111.6 155.523 183.163 148.018 290.975 148.018C400.007 148.018 472.893 155.694 492.532 158.027C495.455 158.374 497.429 161.107 496.91 164.004L494.599 176.897C494.119 179.577 491.689 181.435 488.98 181.161C468.598 179.098 385.489 171.319 290.975 171.319C196.028 171.319 115.541 179.169 96.4034 181.189Z" fill="#DADAEC"/>
<path fill-rule="evenodd" clip-rule="evenodd" d="M110.807 168.67C107.733 169.012 105.045 166.609 105.045 163.516V138.449C105.045 135.822 107.002 133.611 109.613 133.319C140.827 129.824 186.034 126.054 242.808 124.799C245.704 124.735 248.085 127.069 248.085 129.966V154.276C248.085 157.086 245.842 159.381 243.034 159.459C189.463 160.939 142.594 165.128 110.807 168.67Z" fill="#5757FF"/>
<path fill-rule="evenodd" clip-rule="evenodd" d="M341.633 151.156C338.558 150.813 335.87 153.216 335.87 156.309V181.376C335.87 184.004 337.827 186.214 340.438 186.506C371.652 190.001 416.859 193.771 473.633 195.026C476.53 195.09 478.911 192.757 478.911 189.86V165.549C478.911 162.74 476.667 160.444 473.859 160.366C420.288 158.886 373.419 154.697 341.633 151.156Z" fill="#5757FF"/>
<path fill-rule="evenodd" clip-rule="evenodd" d="M240.458 138.556C240.458 166.945 217.444 189.96 189.054 189.96C160.665 189.96 137.65 166.945 137.65 138.556C137.65 110.167 160.665 87.1523 189.054 87.1523C217.444 87.1523 240.458 110.167 240.458 138.556ZM184.062 176.471L181.927 143.472C169.511 143.712 158.66 144.548 151.49 145.241C154.344 161.544 167.538 174.29 184.062 176.471ZM151.436 132.301C154.443 114.21 170.165 100.418 189.109 100.418C208.052 100.418 223.774 114.21 226.781 132.301C218.482 131.479 205.582 130.57 189.109 130.57C172.635 130.57 159.735 131.479 151.436 132.301ZM226.729 145.224C223.881 161.535 210.685 174.289 194.154 176.471L196.29 143.483C208.479 143.735 219.381 144.546 226.729 145.224Z" fill="#E5E5F4"/>
<rect x="254.615" y="143.36" width="74.5265" height="34.6755" rx="5.17545" fill="#5757FF"/>
<rect x="272.212" y="378.844" width="158.685" height="39.3334" rx="5.17545" transform="rotate(-90 272.212 378.844)" fill="#E5E5F4"/>
<path d="M71.0632 391.264L48.097 391.264C48.097 391.264 47.7737 352.125 47.7736 286.789C47.7736 247.278 51.6771 217.108 54.763 199.43C56.5695 189.082 66.089 182.354 76.5504 183.306C79.1343 183.542 80.9428 185.988 80.4555 188.536C77.8926 201.941 71.075 241.825 71.075 286.789C71.075 342.16 71.0632 391.264 71.0632 391.264Z" fill="#DADAEC"/>
<rect x="64.5146" y="332.265" width="93.1581" height="17.079" rx="5.17545" transform="rotate(-90 64.5146 332.265)" fill="#5757FF"/>
<path d="M508.388 391.264L531.354 391.264C531.354 391.264 531.678 352.125 531.678 286.789C531.678 247.278 527.774 217.108 524.688 199.43C522.882 189.082 513.362 182.354 502.901 183.306C500.317 183.542 498.508 185.988 498.996 188.536C501.559 201.941 508.376 241.825 508.376 286.789C508.376 342.16 508.388 391.264 508.388 391.264Z" fill="#DADAEC"/>
<rect width="93.1581" height="17.079" rx="5.17545" transform="matrix(4.37114e-08 -1 -1 -4.37114e-08 514.423 332.265)" fill="#5757FF"/>
<rect x="105.045" y="312.08" width="40.3685" height="22.772" rx="5.17545" transform="rotate(-90 105.045 312.08)" fill="#5757FF"/>
<rect width="40.3685" height="22.772" rx="5.17545" transform="matrix(4.37114e-08 -1 -1 -4.37114e-08 478.712 312.08)" fill="#5757FF"/>
<path d="M124.712 378.844C121.853 378.844 119.536 376.527 119.536 373.668L119.536 250.416C119.536 247.801 121.468 245.601 124.067 245.307C135.707 243.989 167.281 240.659 189.146 240.659C211.011 240.659 242.584 243.989 254.225 245.307C256.824 245.601 258.756 247.801 258.756 250.416L258.756 373.668C258.756 376.527 256.439 378.844 253.58 378.844L124.712 378.844Z" fill="#E5E5F4"/>
<path d="M459.046 378.844C461.904 378.844 464.221 376.527 464.221 373.668L464.221 250.413C464.221 247.799 462.292 245.6 459.694 245.305C448.089 243.986 416.645 240.659 394.611 240.659C372.578 240.659 341.134 243.986 329.529 245.305C326.931 245.6 325.002 247.799 325.002 250.413L325.002 373.668C325.002 376.527 327.319 378.844 330.177 378.844L459.046 378.844Z" fill="#E5E5F4"/>
<path d="M257.059 338.678C260.492 337.26 264.48 339.601 264.724 343.307L266.113 364.328C266.494 370.084 263.632 375.552 258.357 377.886C246.488 383.137 222.476 391.447 189.389 391.447C156.056 391.447 131.704 383.013 119.785 377.77C114.597 375.488 111.703 370.169 111.933 364.506L112.788 343.392C112.94 339.661 116.896 337.224 120.362 338.612C132.751 343.572 159.56 352.68 189.389 352.68C219.084 352.68 245.02 343.653 257.059 338.678Z" fill="#DADAEC"/>
<path d="M462.524 338.678C465.957 337.26 469.944 339.601 470.189 343.307L471.578 364.328C471.959 370.084 469.097 375.552 463.822 377.886C451.952 383.137 427.941 391.447 394.854 391.447C361.521 391.447 337.169 383.013 325.249 377.77C320.062 375.488 317.168 370.169 317.398 364.506L318.253 343.392C318.404 339.661 322.361 337.224 325.827 338.612C338.216 343.572 365.025 352.68 394.854 352.68C424.549 352.68 450.485 343.653 462.524 338.678Z" fill="#DADAEC"/>
<circle cx="291.878" cy="239.106" r="10.189" fill="#DADAEC"/>
<path d="M57.1829 194.844C60.8365 194.18 63.1636 190.7 62.3892 187.068L60.349 177.499C59.5901 173.939 56.1289 171.547 52.5351 172.135C47.4863 172.96 39.6465 174.282 29.6308 176.097C21.4354 177.582 15.1207 180.904 10.6444 184.122C4.74637 188.362 3.3748 195.998 5.09429 203.152L5.41324 204.479C6.40125 208.589 11.917 210.221 15.2737 207.742C20.0169 204.239 26.7172 200.372 34.5057 198.961C43.3922 197.351 51.702 195.841 57.1829 194.844Z" fill="#DADAEC"/>
<path d="M521.4 194.844C517.746 194.18 515.419 190.7 516.193 187.068L518.233 177.499C518.992 173.939 522.454 171.547 526.047 172.135C531.096 172.96 538.936 174.282 548.952 176.097C557.147 177.582 563.462 180.904 567.938 184.122C573.836 188.362 575.208 195.998 573.488 203.152L573.169 204.479C572.181 208.589 566.665 210.221 563.309 207.742C558.566 204.239 551.865 200.372 544.077 198.961C535.19 197.351 526.881 195.841 521.4 194.844Z" fill="#DADAEC"/>
</g>
<defs>
<clipPath id="clip0_484_553">
<rect width="578.264" height="392" fill="white" transform="translate(0.15918)"/>
</clipPath>
</defs>
</svg>
