<svg width="580" height="392" viewBox="0 0 580 392" fill="none" xmlns="http://www.w3.org/2000/svg">
<g clip-path="url(#clip0_484_503)">
<path d="M151.685 233.877C149.162 233.877 147.007 232.058 146.583 229.571L143.171 209.548C142.633 206.388 145.067 203.504 148.273 203.504L159.558 203.504C162.764 203.504 165.198 206.388 164.66 209.548L161.248 229.571C160.824 232.058 158.669 233.877 156.146 233.877L151.685 233.877Z" fill="#E5E5F4"/>
<path d="M187.599 233.877C185.076 233.877 182.921 232.058 182.497 229.571L179.085 209.548C178.547 206.388 180.981 203.504 184.187 203.504L195.472 203.504C198.678 203.504 201.112 206.388 200.574 209.548L197.162 229.571C196.738 232.058 194.583 233.877 192.06 233.877L187.599 233.877Z" fill="#E5E5F4"/>
<path d="M232.343 190.718C235.201 190.718 237.518 193.035 237.518 195.893L237.518 219.643C237.518 220.989 236.994 222.281 236.057 223.247L227.269 232.306C226.294 233.311 224.954 233.878 223.554 233.878L219.145 233.878C216.287 233.878 213.969 231.561 213.969 228.702L213.969 195.893C213.969 193.035 216.287 190.718 219.145 190.718L232.343 190.718Z" fill="#E5E5F4"/>
<path d="M258.764 189.811C257.151 186.378 259.656 182.435 263.448 182.435H321.676C325.468 182.435 327.973 186.378 326.36 189.811L315.696 212.511C314.844 214.327 313.018 215.486 311.012 215.486H274.112C272.106 215.486 270.281 214.327 269.428 212.511L258.764 189.811Z" fill="#E5E5F4"/>
<path d="M83.5454 171.396C75.5521 172.164 68.2155 166.847 66.5419 158.993L38.8504 29.0404C36.9604 20.1711 43.0046 11.6344 52.0256 10.7082C86.1489 7.20472 171.059 0.000329761 292.303 0.000324461C413.15 0.000319179 497.9 7.15751 532.244 10.6736C541.382 11.6092 547.454 20.3412 545.368 29.2879L515.054 159.315C513.256 167.025 505.998 172.181 498.118 171.422C468.828 168.604 394.462 162.623 290.696 162.623C187.249 162.623 113.021 168.567 83.5454 171.396Z" fill="#E5E5F4"/>
<path fill-rule="evenodd" clip-rule="evenodd" d="M112.622 39.0148C113.716 37.7704 115.611 37.6486 116.856 38.7426L234.014 141.747C235.258 142.841 235.38 144.737 234.286 145.981C233.192 147.226 231.296 147.347 230.052 146.253L223.293 140.311C221.834 141.97 219.307 142.132 217.648 140.674L144.048 75.9656C142.389 74.507 142.227 71.9795 143.685 70.3204L112.894 43.2487C111.65 42.1547 111.528 40.2591 112.622 39.0148ZM150.082 70.6178C148.837 69.5238 146.942 69.6457 145.848 70.89C144.754 72.1343 144.876 74.0299 146.12 75.1239L218.217 138.511C219.461 139.605 221.357 139.484 222.451 138.239C223.545 136.995 223.423 135.099 222.179 134.005L150.082 70.6178Z" fill="#5757FF"/>
<path fill-rule="evenodd" clip-rule="evenodd" d="M252.622 39.0148C253.716 37.7704 255.611 37.6486 256.856 38.7426L374.014 141.747C375.258 142.841 375.38 144.737 374.286 145.981C373.192 147.226 371.296 147.347 370.052 146.253L363.293 140.311C361.834 141.97 359.307 142.132 357.648 140.674L284.048 75.9656C282.389 74.507 282.227 71.9795 283.685 70.3204L252.894 43.2487C251.65 42.1547 251.528 40.2591 252.622 39.0148ZM290.082 70.6178C288.837 69.5238 286.942 69.6457 285.848 70.89C284.754 72.1343 284.876 74.0299 286.12 75.1239L358.217 138.511C359.461 139.605 361.357 139.484 362.451 138.239C363.545 136.995 363.423 135.099 362.179 134.005L290.082 70.6178Z" fill="#5757FF"/>
<path d="M271.392 32.1184C268.112 32.7801 264.834 30.4304 264.646 27.0898L264.313 21.1839C264.185 18.9097 265.566 16.8381 267.773 16.2751C272.296 15.1211 280.814 13.4564 292.303 13.4564C303.864 13.4564 312.414 15.1415 316.917 16.2962C319.083 16.8517 320.457 18.8663 320.38 21.1012L320.175 27.0386C320.059 30.3965 316.808 32.8114 313.511 32.1643C308.33 31.1476 300.545 29.9792 292.127 29.9792C283.835 29.9792 276.377 31.1128 271.392 32.1184Z" fill="#5757FF"/>
<rect x="142.141" y="60.3164" width="94.8593" height="45.7971" rx="5.17545" fill="#DADAEC"/>
<path d="M97.087 181.189C94.5801 181.453 92.2564 179.889 91.5494 177.47L87.7438 164.447C86.8576 161.415 88.844 158.321 91.9811 157.947C112.284 155.523 183.847 148.018 291.659 148.018C400.691 148.018 473.577 155.694 493.216 158.027C496.138 158.374 498.113 161.107 497.593 164.004L495.283 176.897C494.803 179.577 492.372 181.435 489.663 181.161C469.282 179.098 386.173 171.319 291.659 171.319C196.711 171.319 116.224 179.169 97.087 181.189Z" fill="#DADAEC"/>
<path fill-rule="evenodd" clip-rule="evenodd" d="M111.491 168.67C108.417 169.012 105.729 166.609 105.729 163.516V138.449C105.729 135.822 107.685 133.611 110.297 133.319C141.511 129.824 186.717 126.054 243.492 124.799C246.388 124.735 248.769 127.069 248.769 129.966V154.276C248.769 157.086 246.526 159.381 243.717 159.459C190.146 160.939 143.277 165.128 111.491 168.67Z" fill="#E5E5F4"/>
<path fill-rule="evenodd" clip-rule="evenodd" d="M342.316 151.156C339.242 150.813 336.554 153.216 336.554 156.309V181.376C336.554 184.004 338.511 186.214 341.122 186.506C372.336 190.001 417.543 193.771 474.317 195.026C477.213 195.09 479.594 192.757 479.594 189.86V165.549C479.594 162.74 477.351 160.444 474.543 160.366C420.972 158.886 374.103 154.697 342.316 151.156Z" fill="#E5E5F4"/>
<rect x="255.299" y="143.36" width="74.5265" height="34.6755" rx="5.17545" fill="#E5E5F4"/>
<rect x="272.896" y="378.844" width="158.685" height="39.3334" rx="5.17545" transform="rotate(-90 272.896 378.844)" fill="#E5E5F4"/>
<path d="M71.7468 391.264L48.7806 391.264C48.7806 391.264 48.4572 352.125 48.4572 286.789C48.4572 247.278 52.3607 217.108 55.4466 199.43C57.2531 189.082 66.7726 182.354 77.234 183.306C79.8179 183.542 81.6264 185.988 81.1391 188.536C78.5762 201.941 71.7586 241.825 71.7586 286.789C71.7586 342.16 71.7468 391.264 71.7468 391.264Z" fill="#DADAEC"/>
<rect x="65.1982" y="332.265" width="93.1581" height="17.079" rx="5.17545" transform="rotate(-90 65.1982 332.265)" fill="#E5E5F4"/>
<path d="M509.072 391.264L532.038 391.264C532.038 391.264 532.361 352.125 532.361 286.789C532.361 247.278 528.458 217.108 525.372 199.43C523.565 189.082 514.046 182.354 503.584 183.306C501 183.542 499.192 185.988 499.679 188.536C502.242 201.941 509.06 241.825 509.06 286.789C509.06 342.16 509.072 391.264 509.072 391.264Z" fill="#DADAEC"/>
<rect width="93.1581" height="17.079" rx="5.17545" transform="matrix(4.37114e-08 -1 -1 -4.37114e-08 515.106 332.265)" fill="#E5E5F4"/>
<rect x="105.729" y="312.08" width="40.3685" height="22.772" rx="5.17545" transform="rotate(-90 105.729 312.08)" fill="#E5E5F4"/>
<rect width="40.3685" height="22.772" rx="5.17545" transform="matrix(4.37114e-08 -1 -1 -4.37114e-08 479.396 312.08)" fill="#E5E5F4"/>
<path d="M125.395 378.844C122.537 378.844 120.22 376.527 120.22 373.668L120.22 250.416C120.22 247.801 122.151 245.601 124.75 245.307C136.391 243.989 167.965 240.659 189.83 240.659C211.694 240.659 243.268 243.989 254.909 245.307C257.508 245.601 259.439 247.801 259.439 250.416L259.439 373.668C259.439 376.527 257.122 378.844 254.264 378.844L125.395 378.844Z" fill="#E5E5F4"/>
<path d="M459.729 378.844C462.588 378.844 464.905 376.527 464.905 373.668L464.905 250.413C464.905 247.799 462.975 245.6 460.378 245.305C448.773 243.986 417.328 240.659 395.295 240.659C373.262 240.659 341.817 243.986 330.212 245.305C327.615 245.6 325.685 247.799 325.685 250.413L325.685 373.668C325.685 376.527 328.002 378.844 330.861 378.844L459.729 378.844Z" fill="#E5E5F4"/>
<path d="M257.742 338.678C261.175 337.26 265.163 339.601 265.408 343.307L266.797 364.328C267.177 370.084 264.316 375.552 259.041 377.886C247.171 383.137 223.16 391.447 190.073 391.447C156.74 391.447 132.388 383.013 120.468 377.77C115.281 375.488 112.387 370.169 112.616 364.506L113.472 343.392C113.623 339.661 117.58 337.224 121.046 338.612C133.435 343.572 160.244 352.68 190.073 352.68C219.768 352.68 245.703 343.653 257.742 338.678Z" fill="#DADAEC"/>
<path d="M463.207 338.678C466.64 337.26 470.628 339.601 470.873 343.307L472.262 364.328C472.642 370.084 469.781 375.552 464.506 377.886C452.636 383.137 428.624 391.447 395.537 391.447C362.205 391.447 337.852 383.013 325.933 377.77C320.746 375.488 317.852 370.169 318.081 364.506L318.937 343.392C319.088 339.661 323.045 337.224 326.511 338.612C338.9 343.572 365.709 352.68 395.537 352.68C425.233 352.68 451.168 343.653 463.207 338.678Z" fill="#DADAEC"/>
<circle cx="292.562" cy="239.106" r="10.189" fill="#DADAEC"/>
<path d="M57.8665 194.844C61.5201 194.18 63.8472 190.7 63.0728 187.068L61.0326 177.499C60.2737 173.939 56.8125 171.547 53.2186 172.135C48.1699 172.96 40.3301 174.282 30.3144 176.097C22.119 177.582 15.8043 180.904 11.328 184.122C5.42997 188.362 4.05839 195.998 5.77788 203.152L6.09683 204.479C7.08485 208.589 12.6006 210.221 15.9573 207.742C20.7005 204.239 27.4008 200.372 35.1893 198.961C44.0758 197.351 52.3856 195.841 57.8665 194.844Z" fill="#5757FF"/>
<path d="M522.083 194.844C518.43 194.18 516.102 190.7 516.877 187.068L518.917 177.499C519.676 173.939 523.137 171.547 526.731 172.135C531.78 172.96 539.62 174.282 549.635 176.097C557.831 177.582 564.145 180.904 568.622 184.122C574.52 188.362 575.891 195.998 574.172 203.152L573.853 204.479C572.865 208.589 567.349 210.221 563.992 207.742C559.249 204.239 552.549 200.372 544.76 198.961C535.874 197.351 527.564 195.841 522.083 194.844Z" fill="#5757FF"/>
<path d="M143.542 150.814C144.106 152.66 143.166 154.631 141.377 155.355L121.513 163.394C118.698 164.534 115.51 163.015 114.622 160.11L114.369 159.279C113.48 156.375 115.273 153.333 118.245 152.703L139.208 148.26C141.096 147.86 142.977 148.969 143.542 150.814Z" fill="#5757FF"/>
<path d="M236.498 150.816C235.934 152.662 236.873 154.633 238.662 155.357L258.526 163.396C261.342 164.536 264.529 163.017 265.417 160.112L265.671 159.281C266.559 156.377 264.766 153.335 261.795 152.705L240.831 148.262C238.943 147.862 237.062 148.97 236.498 150.816Z" fill="#5757FF"/>
<path fill-rule="evenodd" clip-rule="evenodd" d="M241.141 138.556C241.141 166.945 218.127 189.96 189.738 189.96C161.348 189.96 138.334 166.945 138.334 138.556C138.334 110.167 161.348 87.1523 189.738 87.1523C218.127 87.1523 241.141 110.167 241.141 138.556ZM184.746 176.471L182.61 143.472C170.194 143.712 159.343 144.548 152.174 145.241C155.028 161.544 168.221 174.29 184.746 176.471ZM152.119 132.301C155.126 114.21 170.849 100.418 189.792 100.418C208.736 100.418 224.458 114.21 227.465 132.301C219.166 131.479 206.265 130.57 189.792 130.57C173.319 130.57 160.419 131.479 152.119 132.301ZM227.413 145.224C224.565 161.535 211.368 174.289 194.838 176.471L196.973 143.483C209.162 143.735 220.065 144.546 227.413 145.224Z" fill="#E5E5F4"/>
</g>
<defs>
<clipPath id="clip0_484_503">
<rect width="578.264" height="392" fill="white" transform="translate(0.842773)"/>
</clipPath>
</defs>
</svg>
