<svg width="400" height="400" viewBox="0 0 400 400" fill="none" xmlns="http://www.w3.org/2000/svg">
<g clip-path="url(#clip0_34_486)">
<path d="M173.124 0C174.97 0 176.563 0.670264 177.905 2.0108C179.247 3.35133 179.918 4.9432 179.918 6.78642V169.158C179.918 171.001 179.247 172.593 177.905 173.934C176.563 175.274 174.97 175.944 173.124 175.944H132.611C128.585 175.944 125.23 174.185 122.546 170.666L67.6896 100.791V169.158C67.6896 171.001 67.0186 172.593 65.6765 173.934C64.3345 175.274 62.7408 175.944 60.8955 175.944H14.0915C12.2462 175.944 10.6525 175.274 9.31046 173.934C7.96842 172.593 7.29739 171.001 7.29739 169.158V6.78642C7.29739 4.9432 7.96842 3.35133 9.31046 2.0108C10.6525 0.670264 12.2462 0 14.0915 0H54.8562C58.8824 0 62.1536 1.67566 64.67 5.02699L119.526 80.683V6.78642C119.526 4.9432 120.197 3.35133 121.539 2.0108C122.881 0.670264 124.475 0 126.32 0H173.124Z" fill="#2E2EFF"/>
<path d="M308.154 178.458C279.971 178.458 257.575 172.342 240.967 160.109C224.527 147.877 216.307 128.774 216.307 102.802V6.78642C216.307 4.9432 216.978 3.35133 218.32 2.0108C219.662 0.670264 221.256 0 223.101 0H275.693C277.538 0 279.132 0.670264 280.474 2.0108C281.816 3.35133 282.487 4.9432 282.487 6.78642V106.823C282.487 113.694 284.752 118.972 289.281 122.658C293.978 126.345 300.269 128.188 308.154 128.188C316.038 128.188 322.245 126.345 326.774 122.658C331.472 118.972 333.82 113.694 333.82 106.823V6.78642C333.82 4.9432 334.491 3.35133 335.833 2.0108C337.175 0.670264 338.769 0 340.614 0H393.206C395.051 0 396.645 0.670264 397.987 2.0108C399.329 3.35133 400 4.9432 400 6.78642V102.802C400 128.774 391.696 147.877 375.088 160.109C358.648 172.342 336.337 178.458 308.154 178.458Z" fill="#2E2EFF"/>
<path d="M187.719 391.706C188.222 392.208 188.474 392.878 188.474 393.716C188.474 395.392 187.887 396.9 186.713 398.241C185.706 399.414 184.448 400 182.938 400H128.837C124.307 400 120.868 398.073 118.52 394.219L94.1112 356.768L70.2059 394.219C67.6896 398.073 64.2506 400 59.8889 400H5.53595C4.02615 400 2.6841 399.497 1.50981 398.492C0.503269 397.319 0 395.978 0 394.47V393.716C0 392.878 0.251634 392.208 0.754903 391.706L56.3661 306.75L6.79412 232.35C6.29085 231.68 6.03922 230.758 6.03922 229.585C6.03922 228.077 6.54249 226.821 7.54903 225.815C8.72332 224.642 10.0654 224.056 11.5752 224.056H65.9282C70.2898 224.056 73.8127 226.15 76.4968 230.339L96.1243 262.512L117.262 229.837C118.436 228.329 119.694 226.988 121.036 225.815C122.546 224.642 124.727 224.056 127.579 224.056H181.68C183.19 224.056 184.448 224.642 185.454 225.815C186.629 226.821 187.216 228.077 187.216 229.585V230.339C187.216 231.177 186.964 231.848 186.461 232.35L133.869 310.017L187.719 391.706Z" fill="#2E2EFF"/>
<path d="M342.376 348.474H387.922C389.767 348.474 391.361 349.144 392.703 350.484C394.045 351.825 394.716 353.417 394.716 355.26V393.214C394.716 395.057 394.045 396.649 392.703 397.989C391.361 399.33 389.767 400 387.922 400H228.386C226.54 400 224.947 399.33 223.604 397.989C222.262 396.649 221.591 395.057 221.591 393.214V355.26C221.591 353.417 222.262 351.825 223.604 350.484C224.947 349.144 226.54 348.474 228.386 348.474H274.435V275.582H228.386C226.54 275.582 224.947 274.912 223.604 273.571C222.262 272.231 221.591 270.639 221.591 268.796V230.842C221.591 228.999 222.262 227.407 223.604 226.067C224.947 224.726 226.54 224.056 228.386 224.056H387.922C389.767 224.056 391.361 224.726 392.703 226.067C394.045 227.407 394.716 228.999 394.716 230.842V268.796C394.716 270.639 394.045 272.231 392.703 273.571C391.361 274.912 389.767 275.582 387.922 275.582H342.376V348.474Z" fill="#2E2EFF"/>
</g>
<defs>
<clipPath id="clip0_34_486">
<rect width="400" height="400" fill="white"/>
</clipPath>
</defs>
</svg>
