<?xml version="1.0" encoding="utf-8"?>
<!-- Generator: Adobe Illustrator 26.3.1, SVG Export Plug-In . SVG Version: 6.00 Build 0)  -->
<svg version="1.1" id="Livello_2" xmlns="http://www.w3.org/2000/svg" xmlns:xlink="http://www.w3.org/1999/xlink" x="0px" y="0px"
	 viewBox="0 0 170.4 50.2" style="enable-background:new 0 0 170.4 50.2;" xml:space="preserve">
<style type="text/css">
	.st0{fill:#6060FF;}
</style>
<g>
	<path class="st0" d="M44.3,16.4c0.3,0.1,1.2-1.1,1.5-1.3C46.5,13,42.6,16.1,44.3,16.4z"/>
	<path class="st0" d="M50,38.4c-2.4-4.8,5-25.5-4.1-25.2c-2.3-1.6-5.1,0.2-6.9-1.6c-1.4-3.7-3.9-3.8-4-7.2C31.7,1.6,25.4,4.3,24.3,8
		c-1-5.5-7.4-2.2-10.3-1.4c-5.4-1-8.1,3.2-11.3,7c0.4,3.4-0.2,5.6-1,10c-3.4,3.5-1.5,5,2.2,5.6c-1,5.6,2.1,1.9,3,7
		c-0.4,1.9-2.3,5.7,0.9,6.1c0.8,0,1.8-1.8,0.4-1.9c2-2.4,4.4,2.4,7,2.3c7.4,2.5,6.7-2.6,4.4-7.6c6.4,5.1,8.2-2.8,7.9,5.3
		c-6.7,0.9-5.8,3.2,0.1,4.5c0.3,0.2,8.1-2.4,8.4-2.4c2-4.3-6.7-0.5-5.7-5.8c0.6-2.4,0-4.1,2.2-6.2c0.5,2.8-3.4,8.5,2,7
		c2-1.4-1.5-3.1,0.8-5c-1.1,3,2,5.9,1.4,8c0.1,2.3,5.9,1.3,4.1-1.3C42.6,39.2,51,40.5,50,38.4z M50,38.4C50,38.4,50,38.4,50,38.4
		C50,38.4,50,38.4,50,38.4z M37.6,40.8C37.6,40.8,37.6,40.8,37.6,40.8C37.6,40.8,37.6,40.8,37.6,40.8z M27.2,43.6
		c0.4,0.7-3.5-1.1-3.5-0.9C23.4,42.1,27.2,43.8,27.2,43.6z M27,35c-5.7,4.9,0.2-4.9-2.8-4.5c-1.3,11.8-3.3,1.8-1.6-2.8
		c2.6,1.8,3.4-1.7,4.7-2.5c0.8,0-0.4,3.3-0.3,4.6c-1.1-1.2-2.2,0.9-0.8,1.5h0C28,32.1,27.7,33.3,27,35z M9.5,38.6
		c-1.3,0.3-2.8,1.7-1.9,2.8C6,39.8,7.5,35.4,9.5,38.6C9.5,38.6,9.5,38.6,9.5,38.6z M2.3,27.9c0.4-1.3,1.5-4.5,1.3-6.3
		C3.5,23.5,4.2,27.1,2.3,27.9z M5.6,11.6c-0.8,3,2.5,3.4,4.6,4.1c-1.2,1.4-2,0.1-3.4-0.2C2.4,16.7,3.3,13.4,5.6,11.6z M16.7,6.6
		c0.1-0.1,1-0.4,1-0.3c1.1-1.6,6.8,0.2,5.4,1.8c-0.8-0.2-2.1-1.7-2.2,0C19.3,9.7,15.6,8.4,16.7,6.6z M28.2,5.1
		c2.1-1.3,0.1,2.8-0.3,3.2C25.5,7.5,25.7,5.2,28.2,5.1z M30.4,4.9c1.1-1.9,5-0.4,4.2,1.8c-0.8-1.1-0.8-2.2-2.2-0.9
		c-2-0.5-2.6,2.4-2.5,3.8C29.2,8.2,29.4,6.2,30.4,4.9z M37.5,10.7c-1.8,0.3,0.8,1.3,1.2,1.8c-4.6,2.2-4.7-0.8-3.5-4.3
		c0.6,0.3,2,1.3,2.6,2.6C37.7,10.8,37.6,10.8,37.5,10.7z M43.4,13.5c3.8,0.3,8.4,0.8,3.1,4.8C42.7,22.1,39.8,15.3,43.4,13.5z
		 M29,40.1l0.3-0.8C29.5,39.8,29.6,40.1,29,40.1z M29.3,37.6c-0.1,0-0.2,0-0.2,0.1c0.1-0.4,0.2-0.7,0.4-0.9l0.1,0.9
		C29.5,37.6,29.4,37.6,29.3,37.6z M29.7,33c0.2,2-0.2,2.3-1.4,4c-0.5-3.6,1.7-8.7,3.2-11.8C36.4,23.8,30.9,31.3,29.7,33z M38.5,33.7
		c0,0.6-0.2,1.5-0.7,0.8C38,34.1,38.2,33.9,38.5,33.7z M39,23.8c0.1,1.2,0,3.1-0.7,4.3c1.3-5.3-2.3-5.3,3.3-7.8
		c1.4,0.6-1.5,2.7-1.7,4C40.1,23.6,39.2,22.9,39,23.8z M11,33.3C11,33.3,11,33.3,11,33.3C11,33.3,11,33.3,11,33.3z M27.6,30.6
		c0,0.3-0.3,0.3-0.4,0.3C27.1,30.8,27.6,30.6,27.6,30.6z M28.9,29c-0.8,0.3-1.1,0.1-0.4-0.7C29.4,27.3,29.1,28.1,28.9,29z
		 M25.4,26.4C25.4,26.3,25.4,26.3,25.4,26.4C25.4,26.3,25.6,26.4,25.4,26.4z M24.2,26.7c0,1-1.2,0.3-1.4-0.2
		C23.7,26.4,25.6,25.5,24.2,26.7z M19.3,25C19.3,25,19.3,24.9,19.3,25C19.3,25,19.3,25,19.3,25z M19.3,25C19.4,25,19.4,25,19.3,25
		C19.4,25,19.4,25,19.3,25z M14.6,15.4c0.3,1,3,2.2,5,2.2c1.7,0.1,1.2-2,2.3-2.5C18.9,22.6,16.8,26.5,14.6,15.4z M22.2,8.9
		c0,0.4-0.6-0.2-0.7-0.2C21.7,8.3,22.5,8.6,22.2,8.9z M18.1,13.8c-0.2,0.3-0.8,2-1,2.5C14.4,15.3,16,14.4,18.1,13.8z M19,15.4
		c1.1,0.1,1.4-0.4,1.1,0.9c-0.7,1.2-2.8-0.9-1.4-1.6C18.5,15,18.7,15.3,19,15.4z M21,9.4c-0.2,0.8,1.1,0.2,0.8,0.8
		c-0.8,0.2-1.4-0.3-1.5,0.9c-0.9-0.6-2-0.9-3-0.4C17.2,9.6,20.5,9.5,21,9.4z M18.2,12c-1.1,0.9-1.7,1.6-3.2,2.2
		C14.8,12.7,18.7,10.5,18.2,12z M36.3,16.3c1.5,0.8,1,3.2-0.9,3.4C35.6,18.6,36.5,17.4,36.3,16.3z M38,16.7c0-0.1-0.1-0.2-0.1-0.2
		c1.2,0.2,1,2.5-0.3,3C38.5,18.6,38,17.6,38,16.7z M37.5,17.8C37.6,17.8,37.6,17.8,37.5,17.8C37.5,17.8,37.6,17.8,37.5,17.8z
		 M35.1,22c-0.6-0.1-1.4,0.6-1.5-0.1c0.6,0.2,2.2-0.3,1.4-1.1c-4.1,1.8-4.9-3.6-1.1-4.6c3.6-0.7-2.1,6.3,2.8,3.9
		C36.5,20.9,35.8,22.8,35.1,22z M35,19.1C34.9,19,34.9,19,35,19.1C34.9,19,34.9,19.1,35,19.1z M30.8,23c0.9-3.1,2.3,0.9,4.3,0.3
		C34.3,24.3,30.5,25.2,30.8,23z M40.9,20.1c-0.4,0.2-3,0.5-3.2,0.3c1.9-1.1,1.5-2.2,3.3-0.3C41,20,40.9,20.1,40.9,20.1z M23.7,15
		c1.2,2.1,0.8,5.6-2.1,2.9c1.1-1.1,0.8-3,1.8-4.2C23.2,14.1,23.5,14.8,23.7,15z M25.9,13.4c-0.7-0.5-2.2,1.1-1,1.3
		c0.9-0.3,1.9-1.3,1.7,0.3c-1.2,1,0.7,0.6,0.7,1.1C24.7,17.9,23,12.1,25.9,13.4z M25,14.3C25,14.3,25,14.3,25,14.3
		C25,14.3,25,14.3,25,14.3z M21.4,18.8c1.2,2.2,5-0.8,4.3,2.5c-1.9-1.6-4.5-0.6-5.9,1.1C19.9,20.3,20.8,19.1,21.4,18.8z M25.1,18.6
		c0.2-0.6,0.2-1,0.1-1.6C27.1,16.8,27.5,18.9,25.1,18.6z M28,16.7c0.1-0.1,0.1-0.2,0.2-0.3C29.1,17.8,26.6,17.7,28,16.7z M25.7,25.3
		c-0.1,0.1-0.1,0.2-0.3,0.1c0.1-0.1,0.3-0.2,0.4-0.2C25.8,25.2,25.7,25.2,25.7,25.3z M25.6,24.2c-5.1,4.6-7.2-4.2-0.8-2.6
		c0.9,0.9,2,0.3,1.7,1.5C28.1,24.7,26.6,23.9,25.6,24.2z M33.9,14.8c-1.5,0.3-3,1.2-3.5,2.6c-3.2-1.4-0.9-5.3,0.3-7.3
		c2,1.4,2.1-1.5,1.9,2.1C32.7,12.7,35.7,13.6,33.9,14.8z M33.6,8.1c-2.3-1,0,1.4-1.3,1.3c0.6-0.6-1-1.3-1-0.4
		c-0.5,0.1-0.7-1.4,0.2-0.6c2.5-0.5-0.5-1,0-1.6C32.5,6.6,34.5,6.3,33.6,8.1z M34.1,9.1c-0.3,0.6-0.2,1.6-0.6,2
		c0.1-0.8,0.2-2,0.8-2.6C34.5,8.8,34.2,8.7,34.1,9.1z M26.5,10.4C26.8,10.5,26.8,10.5,26.5,10.4C26.5,10.4,26.5,10.4,26.5,10.4z
		 M26.3,11.4c2.4-1.8,2.9,0,1.7,2.3c-1.2-2.7-5.5-2.1-6,0.9c-0.4-0.7-1.7-0.4-2.4-0.6c-1.5-2-0.4-2,1.4-2.2
		C23.1,9.3,23.9,11.9,26.3,11.4z M6.8,26.7c1-2.5-1.1-5.7,0.6-8.1c5.7-1.1,3.8,2.2,5.2,6C11.1,25,8,25.3,8.5,27
		C9.7,30.1,5.7,29.7,6.8,26.7z M13.2,23.6c-0.2-0.8-0.5-2-0.6-2.8C13.2,21.6,13.8,22.5,13.2,23.6z M15.7,35.2
		c0.5,0.1,0.9,0.5,1.2,0.9c-1.5,1-2.7,1-3-1.9c0,0,0,0,0,0c-1.1-2.9,2-9.3,3.8-4.8C16.7,29.5,13.6,34.9,15.7,35.2z M20.2,26.6
		c-1.8-0.5,2.4,6.2-3.1,4.7c1.5-1.8,2.6-2.9-0.6-4.3c1.1,0,4.7-0.9,1-1.1c-4.2-0.1-3.2,6-6.4,1.4c-1.1-1.5-0.9,0.9-1.7,0.2
		c0-0.4-0.1-0.8,0-1.1c1.1-0.8,2.5-0.5,4-1.3c0.6-0.1,1.5,0.9,2.2,0.1c0.4-2.6,3.8-2.3,5,0c-4.2-1.5,0.7,1.2,1.1,2.3
		c0.2,0.6,0.2,1.2-0.5,2.3C21.4,28.7,21.1,27.7,20.2,26.6z M27.4,22.9c-1.8-2.3,0-5.9,2.9-4.5c0.8,2,0.2,2.8-0.4,4.9
		c1.1,1.7-0.2,4.1-1.8,3.8c-0.1-1.5,1.7-1.4,1.6-2.4c-3.7,0.6,2.5-5.6-0.5-4.3C28.1,17.8,28.1,24.5,27.4,22.9z M34.1,26.6
		c0.7-1.8,2.2-3.8,3.5-5.2c-0.4,1.9,0.5,4.1-0.2,6.4C35.8,27.5,33.1,29.2,34.1,26.6z M25.7,8.1c0.7,0.1,2.6,1.3,1.6,1.8
		C27.4,8.1,23.7,9.3,25.7,8.1z M5,16.7c2.2-0.9,3.9,1.9,5.9-0.4c1.2,2.3-6.4,1.9-7,0.2C4.3,16.7,4.6,16.8,5,16.7z M7.8,31.6
		c1.6-0.4,1.2,1,2.3,1.7c3.1,1.7-1.1-2.7-1.4-3.2c2-5.4,7.1,4.3,2.6,4.3C9.6,34.9,4.8,33,7.8,31.6z M36.7,28.7c1-0.2,0,0.8-0.2,1.4
		C36.5,29.7,36.6,29.3,36.7,28.7z M45.7,36.4c2.1,0.2-5.9-7.2-0.4-7.6c0.2-3.3-4.7,2.3-7.3,4.2c0.4-2.2,1.5-8.1,5.3-12
		c0,0.4-2,5.7-0.1,4c5.2-13.8,7.9-2.5,5.9,6.2c-0.9-2.3,1.4-10.8-1-9.8c-0.5,3.6,2.5,25.1-3.3,14.2C45.4,36,45.7,36.4,45.7,36.4z
		 M40.6,16.8c0,1,0.5,2.3,2.7,3.2c-4-1-5.1-4.6-1-6.7C41.6,14.1,40.6,15.4,40.6,16.8z M38.9,15.9c-5.4-0.9-3-2.1,1.8-2.7
		C39.7,14,39.1,15.2,38.9,15.9z M25.3,9.8c0.1,0.1,0.6,0.4,0.6,0.5v0c0.1,0.1,0.2,0.2,0.3,0.2c-0.8,0.7-1.5-0.3-2-0.7
		C24.6,9.7,25,9.6,25.3,9.8z M23.2,9c0.1,0,0.2,0,0.3,0c-0.1,0-0.2,0.1-0.4,0.2L23.2,9z M16.5,8.8c0.9,2.4-2.3,3.4-2.7,5.7
		c0.3,2.1,0.5,7,2.6,8.1c-0.3,0.1-0.3,0.2-0.5,0.3c-0.7-0.1-0.7,1.3-0.9,1.8c0,0-0.3,0-0.3,0c-1.4-1.2,0.5-1.7-0.7-3.5
		c-1-1.9-1.3-1.5-1.9-3.4c-1.8-2.3,2.5-11.1,0.7-9.6c-1.6,1.9-1.3,6.1-3.4,2.1C9.8,7.8,15,6.3,16.5,8.8z M9.7,8.1
		c-3.8,3.2,2.2,4.1,1.2,7c-5.7-0.8-5.9-4.9-1-7.2C9.9,7.9,9.8,8,9.7,8.1z M3.5,14.9C3.5,14.9,3.5,14.9,3.5,14.9
		C3.5,14.9,3.5,14.9,3.5,14.9z M2.4,24.9c-0.8,3.4-3,2.8,0-0.7C2.5,24.2,2.4,24.9,2.4,24.9z M3.6,28.1c2-2.5-0.4-7.7,1.9-9.7
		C6.2,19.2,7.3,31.3,3.6,28.1z M4.7,30.9c0.2-1.5,2.2-1.3,3.1-0.5C7.6,30.8,3.9,33.8,4.7,30.9z M15.6,41.4c0.6,0.2,1.9,0.8,2,0.9
		c-2.4-0.4-4.2-0.8-6.1-2.6C12.9,40.4,15.2,41.3,15.6,41.4z M18.2,42.3c0.2-0.3,0.1-0.6-0.2-0.8c4-3.5,3.1,1.5,0,0.9
		C18.1,42.4,18.2,42.4,18.2,42.3z M19.7,38.4c-1.3,5.3-11.3-0.3-12.5-4c2.6,1.5,7.4-0.1,7.1,3.6c0,0.6,0.7,0.8,1.2,0.4
		c0.5-0.4,0.4,0.6,0.8,0.7c0.7,0.2,2.4-0.7,1.7-1.6c2.4,0-1-3-2-3.3C16.9,28.5,19.2,36.1,19.7,38.4z M19.2,33.8
		c-1-1.6,0.9-2.1,1.9-2.8C20.9,31.6,20.1,34.5,19.2,33.8z M21,33.7c0,0.3,0,0.5,0,0.8C20.6,34.2,20.7,34,21,33.7z M27.4,41.4
		c-0.6,2.2,1.1,1.1,1.2-0.3c1.4-0.7,1.2,0.3,2,0.9c-1.5,0.8-4.1,0.8-5.6-0.1L27.4,41.4z M32.4,36.3c1.5-2.5-0.5-7.9,3.3-7.5
		c-0.2,3.3-2.1,3.2-2.1,6c-0.4,0.9,1.2,1.6,0.5,2C33.9,36.8,32,37.2,32.4,36.3z M36.4,32.2c0.3-0.8,1.2-2.3,1.6-3.2
		c-2.2,5.4,0.4,5.4-0.6,9C36.7,37.9,35.6,33.3,36.4,32.2z M37.7,40.1c0.9-3,1.9-8.7,5.2-10.2c-0.3,4.4-5.2,6.8-2.6,10.4
		C39.9,41.1,37.4,41.2,37.7,40.1z M41.6,37.1c-1.1-0.4-0.9,0.8,0.2,1.4c-2.8,0.6,0.9-10.3,3.7,0.2C44.1,38.9,42.4,38.2,41.6,37.1z
		 M30.9,40.6c0.1-0.2,2.9,0.5,3.1,0.5l-3.2,0.9C31.2,41.7,30.9,40.9,30.9,40.6z M28.1,43.9c-0.5-0.4,7.7-2.6,7.3-2.1
		C35.4,41.8,28.1,43.9,28.1,43.9z M24.1,8.7c0,0.2-0.1,0.2-0.2,0.2C24,8.8,24.1,8.7,24.1,8.7z"/>
</g>
<path class="st0" d="M123.7,33.4c-0.8,0-1.5,0.4-1.6,0.5c0.4-1.5,2.4-2.5,2.9-2.7c0.2-0.1,0.3-0.2,0.2-0.4l-0.2-0.5
	c0-0.1-0.2-0.2-0.3-0.1c-1.1,0.4-4.1,1.9-4.1,5.3c0,1.9,0.9,3.4,2.9,3.4c1.5,0,2.7-1.3,2.7-2.8C126.3,34.4,125,33.4,123.7,33.4z
	 M123.5,37.8c-1.3,0-1.8-1.4-1.7-2.4c0.1-0.2,0.7-0.9,1.7-0.9c0.9,0,1.6,0.7,1.6,1.7C125.2,37,124.4,37.8,123.5,37.8z"/>
<path class="st0" d="M131,34.5L131,34.5c0.6-0.3,1.3-1,1.3-2c0-1.4-1.1-2.2-2.6-2.2c-1.3,0-2.3,1.1-2.3,1.1c-0.1,0.1-0.1,0.2,0,0.3
	l0.5,0.4c0.1,0.1,0.2,0.1,0.3,0c0.2-0.3,0.7-0.7,1.4-0.7c0.7,0,1.4,0.5,1.4,1.3c0,0.7-0.6,1.3-1.7,1.3h-0.7c-0.2,0-0.2,0.1-0.2,0.3
	v0.5c0,0.2,0.1,0.3,0.2,0.3h0.7c1.3,0,1.9,0.7,1.9,1.4c0,0.8-0.7,1.3-1.5,1.3c-0.9,0-1.6-0.7-1.7-0.8c-0.1-0.1-0.2-0.1-0.3,0
	l-0.5,0.4c-0.1,0.1-0.1,0.2,0,0.3c0.3,0.3,1,1.1,2.5,1.1c1.7,0,2.8-1,2.8-2.3C132.5,35.5,131.6,34.7,131,34.5z"/>
<path class="st0" d="M137.7,12.1H136c-0.2,0-0.3,0.2-0.3,0.3v7.2h0l-7.3-7.7H128c-0.2,0-0.3,0.1-0.3,0.3V24c0,0.2,0.2,0.3,0.3,0.3
	h1.6c0.2,0,0.3-0.2,0.3-0.3v-7.5h0l7.3,8h0.4c0.2,0,0.3-0.1,0.3-0.3V12.4C138,12.2,137.8,12.1,137.7,12.1z"/>
<path class="st0" d="M81.3,24.3h6.4c0.2,0,0.3-0.2,0.3-0.3v-1.4c0-0.2-0.1-0.3-0.3-0.3h-4.5v-9.8c0-0.2-0.2-0.3-0.3-0.3h-1.6
	c-0.2,0-0.3,0.2-0.3,0.3V24C80.9,24.2,81.1,24.3,81.3,24.3z"/>
<path class="st0" d="M143,12.1h-1.6c-0.2,0-0.3,0.2-0.3,0.3V24c0,0.2,0.2,0.3,0.3,0.3h1.6c0.2,0,0.3-0.2,0.3-0.3V12.4
	C143.3,12.2,143.1,12.1,143,12.1z"/>
<path class="st0" d="M90.6,24.3h1.6c0.2,0,0.3-0.2,0.3-0.3V12.4c0-0.2-0.2-0.3-0.3-0.3h-1.6c-0.2,0-0.3,0.2-0.3,0.3V24
	C90.3,24.2,90.5,24.3,90.6,24.3z"/>
<path class="st0" d="M121,24.5c1.6,0,3.1-0.5,4.3-1.7c0.1-0.1,0.2-0.3,0-0.5l-1.1-1.1c-0.1-0.1-0.3-0.1-0.4,0c-0.7,0.6-1.6,1-2.7,1
	c-2.2,0-3.9-1.9-3.9-4c0-2.2,1.7-4.1,3.9-4.1c1,0,2,0.4,2.7,1c0.1,0.1,0.3,0.1,0.4,0l1.1-1.1c0.1-0.1,0.1-0.4,0-0.5
	c-1.2-1.1-2.5-1.6-4.2-1.6c-3.5,0-6.3,2.8-6.3,6.3C114.7,21.7,117.5,24.5,121,24.5z"/>
<path class="st0" d="M164.1,11.9c-3.5,0-6.3,2.8-6.3,6.3c0,3.5,2.8,6.3,6.3,6.3c3.5,0,6.3-2.8,6.3-6.3
	C170.4,14.7,167.6,11.9,164.1,11.9z M164.1,22.2c-2.2,0-4-1.8-4-4c0-2.2,1.8-4.1,4-4.1c2.2,0,4,1.8,4,4.1
	C168.1,20.4,166.3,22.2,164.1,22.2z"/>
<path class="st0" d="M155.1,21.2c-0.1-0.1-0.3-0.1-0.4,0c-0.7,0.6-1.6,1-2.7,1c-2.2,0-3.9-1.9-3.9-4c0-2.2,1.7-4.1,3.9-4.1
	c1,0,2,0.4,2.7,1c0.1,0.1,0.3,0.1,0.4,0l1.1-1.1c0.1-0.1,0.1-0.4,0-0.5c-1.2-1.1-2.5-1.6-4.2-1.6c-3.5,0-6.3,2.8-6.3,6.3
	c0,3.5,2.8,6.3,6.3,6.3c1.6,0,3.1-0.5,4.3-1.7c0.1-0.1,0.2-0.3,0-0.5L155.1,21.2z"/>
<path class="st0" d="M69.1,30.2h-0.8c-0.1,0-0.2,0.1-0.2,0.2v8.1c0,0.1,0.1,0.2,0.2,0.2h0.8c0.1,0,0.2-0.1,0.2-0.2v-8.1
	C69.3,30.3,69.2,30.2,69.1,30.2z"/>
<path class="st0" d="M72.8,24.5c3.5,0,6.3-2.8,6.3-6.3c0-3.5-2.8-6.3-6.3-6.3c-3.5,0-6.3,2.8-6.3,6.3C66.5,21.7,69.3,24.5,72.8,24.5
	z M72.8,14.2c2.2,0,4,1.8,4,4.1c0,2.2-1.8,4-4,4c-2.2,0-4-1.8-4-4C68.8,16,70.6,14.2,72.8,14.2z"/>
<path class="st0" d="M81.6,30.2c0-0.1-0.1-0.1-0.2-0.1h-0.1c-0.1,0-0.2,0.1-0.2,0.1l-3.8,8.3c-0.1,0.2,0,0.3,0.2,0.3h0.8
	c0.1,0,0.2-0.1,0.3-0.2c0.2-0.6,0.5-1.1,0.7-1.7h4l0.8,1.7c0.1,0.1,0.1,0.2,0.3,0.2h0.8c0.2,0,0.3-0.2,0.2-0.3L81.6,30.2z
	 M79.8,35.8l1.5-3.4h0.1l1.5,3.4H79.8z"/>
<path class="st0" d="M76.3,37.6H73v-7.2c0-0.1-0.1-0.2-0.2-0.2h-0.8c-0.1,0-0.2,0.1-0.2,0.2v8.1c0,0.1,0.1,0.2,0.2,0.2h4.4
	c0.1,0,0.2-0.1,0.2-0.2v-0.7C76.5,37.7,76.4,37.6,76.3,37.6z"/>
<path class="st0" d="M57.1,24.3h1.6c0.2,0,0.3-0.2,0.3-0.3v-4.1h2.2c2.1,0,3.9-1.8,3.9-3.9c0-2.1-1.8-3.9-3.9-3.9h-4.1
	c-0.2,0-0.3,0.2-0.3,0.3V24C56.8,24.2,56.9,24.3,57.1,24.3z M59.1,14.2h2c1,0,1.8,0.7,1.8,1.7c0,1-0.8,1.8-1.8,1.8h-2V14.2z"/>
<path class="st0" d="M64.5,30h-0.2c-0.1,0-0.2,0.1-0.2,0.1l-2.6,6.3h0l-2.6-6.3c0-0.1-0.1-0.1-0.2-0.1h-0.2c-0.1,0-0.2,0.1-0.2,0.2
	l-1.5,8.2c0,0.2,0.1,0.3,0.2,0.3h0.8c0.1,0,0.2-0.1,0.2-0.2l0.9-5.5h0l2.2,5.6c0,0.1,0.1,0.1,0.2,0.1h0.2c0.1,0,0.2-0.1,0.2-0.1
	l2.2-5.6h0l0.9,5.5c0,0.1,0.1,0.2,0.2,0.2H66c0.2,0,0.3-0.1,0.2-0.3l-1.5-8.2C64.7,30.1,64.6,30,64.5,30z"/>
<path class="st0" d="M93.4,30.2h-0.8c-0.1,0-0.2,0.1-0.2,0.2v5.8h0L87.1,30h-0.3c-0.1,0-0.2,0.1-0.2,0.2v8.3c0,0.1,0.1,0.2,0.2,0.2
	h0.8c0.1,0,0.2-0.1,0.2-0.2v-6h0l5.3,6.3h0.3c0.1,0,0.2-0.1,0.2-0.2v-8.3C93.7,30.3,93.6,30.2,93.4,30.2z"/>
<path class="st0" d="M112.1,37.8h-1.3v-7.1c0-0.1-0.1-0.2-0.2-0.2h-0.6l-1.8,1.7c0,0-0.1,0.1,0,0.2l0.1,0.4c0,0.1,0.2,0.1,0.3,0.1
	l1.1-0.5v5.5h-1.7c-0.1,0-0.2,0.1-0.2,0.2v0.5c0,0.1,0.1,0.2,0.2,0.2h4.3c0.1,0,0.2-0.1,0.2-0.2V38
	C112.3,37.9,112.2,37.8,112.1,37.8z"/>
<path class="st0" d="M99.8,30c-2.5,0-4.4,2-4.4,4.4c0,2.5,2,4.4,4.4,4.4c2.5,0,4.4-1.9,4.4-4.4C104.3,32,102.3,30,99.8,30z
	 M99.8,37.6c-1.7,0-3.2-1.4-3.2-3.2c0-1.7,1.4-3.2,3.2-3.2c1.8,0,3.2,1.5,3.2,3.2C103,36.2,101.6,37.6,99.8,37.6z"/>
<path class="st0" d="M112.6,12.1h-7.1c-0.2,0-0.3,0.2-0.3,0.3V24c0,0.2,0.1,0.3,0.3,0.3h7.1c0.2,0,0.3-0.2,0.3-0.3v-1.4
	c0-0.2-0.1-0.3-0.3-0.3h-5.2v-3.1h4.3c0.2,0,0.3-0.1,0.3-0.3v-1.5c0-0.2-0.2-0.3-0.3-0.3h-4.3v-2.9h5.2c0.2,0,0.3-0.2,0.3-0.3v-1.4
	C112.9,12.2,112.8,12.1,112.6,12.1z"/>
<path class="st0" d="M97.8,24c0,0.2,0.2,0.3,0.3,0.3h1.6c0.2,0,0.3-0.2,0.3-0.3v-9.8h2.7c0.2,0,0.3-0.2,0.3-0.3v-1.4
	c0-0.2-0.1-0.3-0.3-0.3h-7.7c-0.2,0-0.3,0.2-0.3,0.3v1.4c0,0.2,0.1,0.3,0.3,0.3h2.7V24z"/>
<path class="st0" d="M117.9,34.5L117.9,34.5c0.5-0.3,1.3-1,1.3-1.9c0-1.3-1.1-2.2-2.6-2.2c-1.5,0-2.6,0.9-2.6,2.2
	c0,1,0.7,1.6,1.3,1.9v0c-0.5,0.2-1.5,1-1.5,2c0,1.3,1.1,2.4,2.8,2.4c1.8,0,2.9-1,2.9-2.4C119.4,35.5,118.5,34.7,117.9,34.5z
	 M115.2,32.6c0-0.7,0.6-1.3,1.3-1.3c0.8,0,1.4,0.5,1.4,1.3c0,0.6-0.4,1.2-1.4,1.3C115.6,33.7,115.2,33.2,115.2,32.6z M116.5,37.9
	c-0.8,0-1.5-0.5-1.5-1.3c0-0.6,0.6-1.3,1.6-1.5c1,0.1,1.6,0.8,1.6,1.5C118.1,37.4,117.4,37.9,116.5,37.9z"/>
</svg>
