<?xml version="1.0" encoding="utf-8"?>
<!-- Generator: Adobe Illustrator 26.3.1, SVG Export Plug-In . SVG Version: 6.00 Build 0)  -->
<svg version="1.1" id="Livello_2" xmlns="http://www.w3.org/2000/svg" xmlns:xlink="http://www.w3.org/1999/xlink" x="0px" y="0px"
	 viewBox="0 0 170.4 41.7" style="enable-background:new 0 0 170.4 41.7;" xml:space="preserve">
<style type="text/css">
	.st0{fill:#6060FF;}
</style>
<g>
	<path class="st0" d="M44.3,13.2c0.3,0.1,1.2-1.1,1.5-1.3C46.5,9.8,42.6,12.8,44.3,13.2z"/>
	<path class="st0" d="M50,35.2c-2.4-4.8,5-25.5-4.1-25.2c-2.3-1.6-5.1,0.2-6.9-1.6c-1.4-3.7-3.9-3.8-4-7.2
		c-3.3-2.8-9.6-0.1-10.6,3.6c-1-5.5-7.4-2.2-10.3-1.4c-5.4-1-8.1,3.2-11.3,7c0.4,3.4-0.2,5.6-1,10c-3.4,3.5-1.5,5,2.2,5.6
		c-1,5.6,2.1,1.9,3,7c-0.4,1.9-2.3,5.7,0.9,6.1c0.8,0,1.8-1.8,0.4-1.9c2-2.4,4.4,2.4,7,2.3c7.4,2.5,6.7-2.6,4.4-7.6
		c6.4,5.1,8.2-2.8,7.9,5.3c-6.7,0.9-5.8,3.2,0.1,4.5c0.3,0.2,8.1-2.4,8.4-2.4c2-4.3-6.7-0.5-5.7-5.8c0.6-2.4,0-4.1,2.2-6.2
		c0.5,2.8-3.4,8.5,2,7c2-1.4-1.5-3.1,0.8-5c-1.1,3,2,5.9,1.4,8c0.1,2.3,5.9,1.3,4.1-1.3C42.6,36,51,37.3,50,35.2z M50,35.2
		C50,35.2,50,35.2,50,35.2C50,35.2,50,35.2,50,35.2z M37.6,37.6C37.6,37.6,37.6,37.6,37.6,37.6C37.6,37.6,37.6,37.6,37.6,37.6z
		 M27.2,40.4c0.4,0.7-3.5-1.1-3.5-0.9C23.4,38.9,27.2,40.5,27.2,40.4z M27,31.8c-5.7,4.9,0.2-4.9-2.8-4.5c-1.3,11.8-3.3,1.8-1.6-2.8
		c2.6,1.8,3.4-1.7,4.7-2.5c0.8,0-0.4,3.3-0.3,4.6c-1.1-1.2-2.2,0.9-0.8,1.5h0C28,28.9,27.7,30.1,27,31.8z M9.5,35.4
		c-1.3,0.3-2.8,1.7-1.9,2.8C6,36.6,7.5,32.2,9.5,35.4C9.5,35.4,9.5,35.4,9.5,35.4z M2.3,24.7c0.4-1.3,1.5-4.5,1.3-6.3
		C3.5,20.2,4.2,23.9,2.3,24.7z M5.6,8.4c-0.8,3,2.5,3.4,4.6,4.1c-1.2,1.4-2,0.1-3.4-0.2C2.4,13.5,3.3,10.2,5.6,8.4z M16.7,3.4
		c0.1-0.1,1-0.4,1-0.3c1.1-1.6,6.8,0.2,5.4,1.8c-0.8-0.2-2.1-1.7-2.2,0C19.3,6.5,15.6,5.2,16.7,3.4z M28.2,1.9
		c2.1-1.3,0.1,2.8-0.3,3.2C25.5,4.3,25.7,2,28.2,1.9z M30.4,1.7c1.1-1.9,5-0.4,4.2,1.8c-0.8-1.1-0.8-2.2-2.2-0.9
		c-2-0.5-2.6,2.4-2.5,3.8C29.2,5,29.4,3,30.4,1.7z M37.5,7.5c-1.8,0.3,0.8,1.3,1.2,1.8c-4.6,2.2-4.7-0.8-3.5-4.3
		c0.6,0.3,2,1.3,2.6,2.6C37.7,7.6,37.6,7.6,37.5,7.5z M43.4,10.3c3.8,0.3,8.4,0.8,3.1,4.8C42.7,18.8,39.8,12.1,43.4,10.3z M29,36.9
		l0.3-0.8C29.5,36.6,29.6,36.8,29,36.9z M29.3,34.4c-0.1,0-0.2,0-0.2,0.1c0.1-0.4,0.2-0.7,0.4-0.9l0.1,0.9
		C29.5,34.4,29.4,34.4,29.3,34.4z M29.7,29.8c0.2,2-0.2,2.3-1.4,4c-0.5-3.6,1.7-8.7,3.2-11.8C36.4,20.5,30.9,28,29.7,29.8z
		 M38.5,30.5c0,0.6-0.2,1.5-0.7,0.8C38,30.9,38.2,30.6,38.5,30.5z M39,20.6c0.1,1.2,0,3.1-0.7,4.3c1.3-5.3-2.3-5.3,3.3-7.8
		c1.4,0.6-1.5,2.7-1.7,4C40.1,20.3,39.2,19.7,39,20.6z M11,30.1C11,30.1,11,30.1,11,30.1C11,30.1,11,30.1,11,30.1z M27.6,27.4
		c0,0.3-0.3,0.3-0.4,0.3C27.1,27.6,27.6,27.3,27.6,27.4z M28.9,25.8c-0.8,0.3-1.1,0.1-0.4-0.7C29.4,24.1,29.1,24.9,28.9,25.8z
		 M25.4,23.2C25.4,23.1,25.4,23.1,25.4,23.2C25.4,23.1,25.6,23.2,25.4,23.2z M24.2,23.5c0,1-1.2,0.3-1.4-0.2
		C23.7,23.1,25.6,22.3,24.2,23.5z M19.3,21.7C19.3,21.7,19.3,21.7,19.3,21.7C19.3,21.7,19.3,21.7,19.3,21.7z M19.3,21.7
		C19.4,21.7,19.4,21.8,19.3,21.7C19.4,21.8,19.4,21.7,19.3,21.7z M14.6,12.2c0.3,1,3,2.2,5,2.2c1.7,0.1,1.2-2,2.3-2.5
		C18.9,19.4,16.8,23.3,14.6,12.2z M22.2,5.7c0,0.4-0.6-0.2-0.7-0.2C21.7,5.1,22.5,5.4,22.2,5.7z M18.1,10.5c-0.2,0.3-0.8,2-1,2.5
		C14.4,12.1,16,11.2,18.1,10.5z M19,12.2c1.1,0.1,1.4-0.4,1.1,0.9c-0.7,1.2-2.8-0.9-1.4-1.6C18.5,11.8,18.7,12.1,19,12.2z M21,6.2
		C20.8,7,22.1,6.4,21.8,7c-0.8,0.2-1.4-0.3-1.5,0.9c-0.9-0.6-2-0.9-3-0.4C17.2,6.4,20.5,6.2,21,6.2z M18.2,8.7
		c-1.1,0.9-1.7,1.6-3.2,2.2C14.8,9.5,18.7,7.3,18.2,8.7z M36.3,13.1c1.5,0.8,1,3.2-0.9,3.4C35.6,15.4,36.5,14.2,36.3,13.1z M38,13.4
		c0-0.1-0.1-0.2-0.1-0.2c1.2,0.2,1,2.5-0.3,3C38.5,15.3,38,14.4,38,13.4z M37.5,14.5C37.6,14.5,37.6,14.5,37.5,14.5
		C37.5,14.5,37.6,14.5,37.5,14.5z M35.1,18.8c-0.6-0.1-1.4,0.6-1.5-0.1c0.6,0.2,2.2-0.3,1.4-1.1c-4.1,1.8-4.9-3.6-1.1-4.6
		c3.6-0.7-2.1,6.3,2.8,3.9C36.5,17.7,35.8,19.6,35.1,18.8z M35,15.9C34.9,15.8,34.9,15.8,35,15.9C34.9,15.8,34.9,15.8,35,15.9z
		 M30.8,19.8c0.9-3.1,2.3,0.9,4.3,0.3C34.3,21.1,30.5,22,30.8,19.8z M40.9,16.9c-0.4,0.2-3,0.5-3.2,0.3c1.9-1.1,1.5-2.2,3.3-0.3
		C41,16.8,40.9,16.8,40.9,16.9z M23.7,11.8c1.2,2.1,0.8,5.6-2.1,2.9c1.1-1.1,0.8-3,1.8-4.2C23.2,10.9,23.5,11.5,23.7,11.8z
		 M25.9,10.1c-0.7-0.5-2.2,1.1-1,1.3c0.9-0.3,1.9-1.3,1.7,0.3c-1.2,1,0.7,0.6,0.7,1.1C24.7,14.6,23,8.9,25.9,10.1z M25,11.1
		C25,11.1,25,11.1,25,11.1C25,11.1,25,11.1,25,11.1z M21.4,15.5c1.2,2.2,5-0.8,4.3,2.5c-1.9-1.6-4.5-0.6-5.9,1.1
		C19.9,17.1,20.8,15.9,21.4,15.5z M25.1,15.4c0.2-0.6,0.2-1,0.1-1.6C27.1,13.6,27.5,15.7,25.1,15.4z M28,13.5
		c0.1-0.1,0.1-0.2,0.2-0.3C29.1,14.6,26.6,14.5,28,13.5z M25.7,22c-0.1,0.1-0.1,0.2-0.3,0.1c0.1-0.1,0.3-0.2,0.4-0.2
		C25.8,22,25.7,22,25.7,22z M25.6,21c-5.1,4.6-7.2-4.2-0.8-2.6c0.9,0.9,2,0.3,1.7,1.5C28.1,21.5,26.6,20.7,25.6,21z M33.9,11.6
		c-1.5,0.3-3,1.2-3.5,2.6c-3.2-1.4-0.9-5.3,0.3-7.3c2,1.4,2.1-1.5,1.9,2.1C32.7,9.5,35.7,10.4,33.9,11.6z M33.6,4.8
		c-2.3-1,0,1.4-1.3,1.3c0.6-0.6-1-1.3-1-0.4c-0.5,0.1-0.7-1.4,0.2-0.6c2.5-0.5-0.5-1,0-1.6C32.5,3.4,34.5,3.1,33.6,4.8z M34.1,5.9
		c-0.3,0.6-0.2,1.6-0.6,2c0.1-0.8,0.2-2,0.8-2.6C34.5,5.5,34.2,5.5,34.1,5.9z M26.5,7.2C26.8,7.3,26.8,7.3,26.5,7.2
		C26.5,7.2,26.5,7.2,26.5,7.2z M26.3,8.2c2.4-1.8,2.9,0,1.7,2.3c-1.2-2.7-5.5-2.1-6,0.9c-0.4-0.7-1.7-0.4-2.4-0.6
		c-1.5-2-0.4-2,1.4-2.2C23.1,6.1,23.9,8.7,26.3,8.2z M6.8,23.5c1-2.5-1.1-5.7,0.6-8.1c5.7-1.1,3.8,2.2,5.2,6
		c-1.5,0.5-4.6,0.8-4.1,2.4C9.7,26.9,5.7,26.5,6.8,23.5z M13.2,20.3c-0.2-0.8-0.5-2-0.6-2.8C13.2,18.3,13.8,19.3,13.2,20.3z
		 M15.7,32c0.5,0.1,0.9,0.5,1.2,0.9c-1.5,1-2.7,1-3-1.9c0,0,0,0,0,0c-1.1-2.9,2-9.3,3.8-4.8C16.7,26.3,13.6,31.7,15.7,32z
		 M20.2,23.4c-1.8-0.5,2.4,6.2-3.1,4.7c1.5-1.8,2.6-2.9-0.6-4.3c1.1,0,4.7-0.9,1-1.1c-4.2-0.1-3.2,6-6.4,1.4
		c-1.1-1.5-0.9,0.9-1.7,0.2c0-0.4-0.1-0.8,0-1.1c1.1-0.8,2.5-0.5,4-1.3c0.6-0.1,1.5,0.9,2.2,0.1c0.4-2.6,3.8-2.3,5,0
		c-4.2-1.5,0.7,1.2,1.1,2.3c0.2,0.6,0.2,1.2-0.5,2.3C21.4,25.5,21.1,24.5,20.2,23.4z M27.4,19.7c-1.8-2.3,0-5.9,2.9-4.5
		c0.8,2,0.2,2.8-0.4,4.9c1.1,1.7-0.2,4.1-1.8,3.8c-0.1-1.5,1.7-1.4,1.6-2.4c-3.7,0.6,2.5-5.6-0.5-4.3C28.1,14.6,28.1,21.3,27.4,19.7
		z M34.1,23.3c0.7-1.8,2.2-3.8,3.5-5.2c-0.4,1.9,0.5,4.1-0.2,6.4C35.8,24.3,33.1,26,34.1,23.3z M25.7,4.9c0.7,0.1,2.6,1.3,1.6,1.8
		C27.4,4.9,23.7,6.1,25.7,4.9z M5,13.5c2.2-0.9,3.9,1.9,5.9-0.4c1.2,2.3-6.4,1.9-7,0.2C4.3,13.5,4.6,13.6,5,13.5z M7.8,28.4
		c1.6-0.4,1.2,1,2.3,1.7c3.1,1.7-1.1-2.7-1.4-3.2c2-5.4,7.1,4.3,2.6,4.3C9.6,31.6,4.8,29.8,7.8,28.4z M36.7,25.5
		c1-0.2,0,0.8-0.2,1.4C36.5,26.5,36.6,26,36.7,25.5z M45.7,33.1c2.1,0.2-5.9-7.2-0.4-7.6c0.2-3.3-4.7,2.3-7.3,4.2
		c0.4-2.2,1.5-8.1,5.3-12c0,0.4-2,5.7-0.1,4c5.2-13.8,7.9-2.5,5.9,6.2c-0.9-2.3,1.4-10.8-1-9.8c-0.5,3.6,2.5,25.1-3.3,14.2
		C45.4,32.8,45.7,33.1,45.7,33.1z M40.6,13.6c0,1,0.5,2.3,2.7,3.2c-4-1-5.1-4.6-1-6.7C41.6,10.9,40.6,12.2,40.6,13.6z M38.9,12.7
		c-5.4-0.9-3-2.1,1.8-2.7C39.7,10.8,39.1,12,38.9,12.7z M25.3,6.6c0.1,0.1,0.6,0.4,0.6,0.5v0c0.1,0.1,0.2,0.2,0.3,0.2
		c-0.8,0.7-1.5-0.3-2-0.7C24.6,6.5,25,6.3,25.3,6.6z M23.2,5.8c0.1,0,0.2,0,0.3,0c-0.1,0-0.2,0.1-0.4,0.2L23.2,5.8z M16.5,5.6
		c0.9,2.4-2.3,3.4-2.7,5.7c0.3,2.1,0.5,7,2.6,8.1c-0.3,0.1-0.3,0.2-0.5,0.3c-0.7-0.1-0.7,1.3-0.9,1.8c0,0-0.3,0-0.3,0
		c-1.4-1.2,0.5-1.7-0.7-3.5c-1-1.9-1.3-1.5-1.9-3.4c-1.8-2.3,2.5-11.1,0.7-9.6c-1.6,1.9-1.3,6.1-3.4,2.1C9.8,4.6,15,3.1,16.5,5.6z
		 M9.7,4.8c-3.8,3.2,2.2,4.1,1.2,7C5.2,11,5,6.9,10,4.6C9.9,4.7,9.8,4.8,9.7,4.8z M3.5,11.7C3.5,11.7,3.5,11.7,3.5,11.7
		C3.5,11.7,3.5,11.7,3.5,11.7z M2.4,21.7c-0.8,3.4-3,2.8,0-0.7C2.5,21,2.4,21.7,2.4,21.7z M3.6,24.9c2-2.5-0.4-7.7,1.9-9.7
		C6.2,16,7.3,28.1,3.6,24.9z M4.7,27.7c0.2-1.5,2.2-1.3,3.1-0.5C7.6,27.6,3.9,30.5,4.7,27.7z M15.6,38.2c0.6,0.2,1.9,0.8,2,0.9
		c-2.4-0.4-4.2-0.8-6.1-2.6C12.9,37.1,15.2,38.1,15.6,38.2z M18.2,39.1c0.2-0.3,0.1-0.6-0.2-0.8c4-3.5,3.1,1.5,0,0.9
		C18.1,39.2,18.2,39.1,18.2,39.1z M19.7,35.2c-1.3,5.3-11.3-0.3-12.5-4c2.6,1.5,7.4-0.1,7.1,3.6c0,0.6,0.7,0.8,1.2,0.4
		c0.5-0.4,0.4,0.6,0.8,0.7c0.7,0.2,2.4-0.7,1.7-1.6c2.4,0-1-3-2-3.3C16.9,25.3,19.2,32.9,19.7,35.2z M19.2,30.6
		c-1-1.6,0.9-2.1,1.9-2.8C20.9,28.4,20.1,31.3,19.2,30.6z M21,30.5c0,0.3,0,0.5,0,0.8C20.6,31,20.7,30.8,21,30.5z M27.4,38.2
		c-0.6,2.2,1.1,1.1,1.2-0.3c1.4-0.7,1.2,0.3,2,0.9c-1.5,0.8-4.1,0.8-5.6-0.1L27.4,38.2z M32.4,33.1c1.5-2.5-0.5-7.9,3.3-7.5
		c-0.2,3.3-2.1,3.2-2.1,6c-0.4,0.9,1.2,1.6,0.5,2C33.9,33.6,32,34,32.4,33.1z M36.4,29c0.3-0.8,1.2-2.3,1.6-3.2
		c-2.2,5.4,0.4,5.4-0.6,9C36.7,34.7,35.6,30,36.4,29z M37.7,36.9c0.9-3,1.9-8.7,5.2-10.2c-0.3,4.4-5.2,6.8-2.6,10.4
		C39.9,37.9,37.4,38,37.7,36.9z M41.6,33.9c-1.1-0.4-0.9,0.8,0.2,1.4c-2.8,0.6,0.9-10.3,3.7,0.2C44.1,35.6,42.4,35,41.6,33.9z
		 M30.9,37.3c0.1-0.2,2.9,0.5,3.1,0.5l-3.2,0.9C31.2,38.5,30.9,37.7,30.9,37.3z M28.1,40.7c-0.5-0.4,7.7-2.6,7.3-2.1
		C35.4,38.6,28.1,40.7,28.1,40.7z M24.1,5.4c0,0.2-0.1,0.2-0.2,0.2C24,5.6,24.1,5.5,24.1,5.4z"/>
</g>
<path class="st0" d="M123.7,30.2c-0.8,0-1.5,0.4-1.6,0.5c0.4-1.5,2.4-2.5,2.9-2.7c0.2-0.1,0.3-0.2,0.2-0.4l-0.2-0.5
	c0-0.1-0.2-0.2-0.3-0.1c-1.1,0.4-4.1,1.9-4.1,5.3c0,1.9,0.9,3.4,2.9,3.4c1.5,0,2.7-1.3,2.7-2.8C126.3,31.1,125,30.2,123.7,30.2z
	 M123.5,34.5c-1.3,0-1.8-1.4-1.7-2.4c0.1-0.2,0.7-0.9,1.7-0.9c0.9,0,1.6,0.7,1.6,1.7C125.2,33.8,124.4,34.5,123.5,34.5z"/>
<path class="st0" d="M131,31.3L131,31.3c0.6-0.3,1.3-1,1.3-2c0-1.4-1.1-2.2-2.6-2.2c-1.3,0-2.3,1.1-2.3,1.1c-0.1,0.1-0.1,0.2,0,0.3
	l0.5,0.4c0.1,0.1,0.2,0.1,0.3,0c0.2-0.3,0.7-0.7,1.4-0.7c0.7,0,1.4,0.5,1.4,1.3c0,0.7-0.6,1.3-1.7,1.3h-0.7c-0.2,0-0.2,0.1-0.2,0.3
	v0.5c0,0.2,0.1,0.3,0.2,0.3h0.7c1.3,0,1.9,0.7,1.9,1.4c0,0.8-0.7,1.3-1.5,1.3c-0.9,0-1.6-0.7-1.7-0.8c-0.1-0.1-0.2-0.1-0.3,0
	l-0.5,0.4c-0.1,0.1-0.1,0.2,0,0.3c0.3,0.3,1,1.1,2.5,1.1c1.7,0,2.8-1,2.8-2.3C132.5,32.3,131.6,31.5,131,31.3z"/>
<path class="st0" d="M137.7,8.9H136c-0.2,0-0.3,0.2-0.3,0.3v7.2h0l-7.3-7.7H128c-0.2,0-0.3,0.1-0.3,0.3v11.8c0,0.2,0.2,0.3,0.3,0.3
	h1.6c0.2,0,0.3-0.2,0.3-0.3v-7.5h0l7.3,8h0.4c0.2,0,0.3-0.1,0.3-0.3V9.2C138,9,137.8,8.9,137.7,8.9z"/>
<path class="st0" d="M81.3,21.1h6.4c0.2,0,0.3-0.2,0.3-0.3v-1.4c0-0.2-0.1-0.3-0.3-0.3h-4.5V9.2c0-0.2-0.2-0.3-0.3-0.3h-1.6
	c-0.2,0-0.3,0.2-0.3,0.3v11.6C80.9,21,81.1,21.1,81.3,21.1z"/>
<path class="st0" d="M143,8.9h-1.6c-0.2,0-0.3,0.2-0.3,0.3v11.6c0,0.2,0.2,0.3,0.3,0.3h1.6c0.2,0,0.3-0.2,0.3-0.3V9.2
	C143.3,9,143.1,8.9,143,8.9z"/>
<path class="st0" d="M90.6,21.1h1.6c0.2,0,0.3-0.2,0.3-0.3V9.2c0-0.2-0.2-0.3-0.3-0.3h-1.6c-0.2,0-0.3,0.2-0.3,0.3v11.6
	C90.3,21,90.5,21.1,90.6,21.1z"/>
<path class="st0" d="M121,21.3c1.6,0,3.1-0.5,4.3-1.7c0.1-0.1,0.2-0.3,0-0.5l-1.1-1.1c-0.1-0.1-0.3-0.1-0.4,0c-0.7,0.6-1.6,1-2.7,1
	c-2.2,0-3.9-1.9-3.9-4c0-2.2,1.7-4.1,3.9-4.1c1,0,2,0.4,2.7,1c0.1,0.1,0.3,0.1,0.4,0l1.1-1.1c0.1-0.1,0.1-0.4,0-0.5
	c-1.2-1.1-2.5-1.6-4.2-1.6c-3.5,0-6.3,2.8-6.3,6.3C114.7,18.5,117.5,21.3,121,21.3z"/>
<path class="st0" d="M164.1,8.7c-3.5,0-6.3,2.8-6.3,6.3c0,3.5,2.8,6.3,6.3,6.3c3.5,0,6.3-2.8,6.3-6.3
	C170.4,11.5,167.6,8.7,164.1,8.7z M164.1,19c-2.2,0-4-1.8-4-4c0-2.2,1.8-4.1,4-4.1c2.2,0,4,1.8,4,4.1C168.1,17.2,166.3,19,164.1,19z
	"/>
<path class="st0" d="M155.1,18c-0.1-0.1-0.3-0.1-0.4,0c-0.7,0.6-1.6,1-2.7,1c-2.2,0-3.9-1.9-3.9-4c0-2.2,1.7-4.1,3.9-4.1
	c1,0,2,0.4,2.7,1c0.1,0.1,0.3,0.1,0.4,0l1.1-1.1c0.1-0.1,0.1-0.4,0-0.5c-1.2-1.1-2.5-1.6-4.2-1.6c-3.5,0-6.3,2.8-6.3,6.3
	c0,3.5,2.8,6.3,6.3,6.3c1.6,0,3.1-0.5,4.3-1.7c0.1-0.1,0.2-0.3,0-0.5L155.1,18z"/>
<path class="st0" d="M69.1,26.9h-0.8c-0.1,0-0.2,0.1-0.2,0.2v8.1c0,0.1,0.1,0.2,0.2,0.2h0.8c0.1,0,0.2-0.1,0.2-0.2v-8.1
	C69.3,27.1,69.2,26.9,69.1,26.9z"/>
<path class="st0" d="M72.8,21.3c3.5,0,6.3-2.8,6.3-6.3c0-3.5-2.8-6.3-6.3-6.3c-3.5,0-6.3,2.8-6.3,6.3C66.5,18.5,69.3,21.3,72.8,21.3
	z M72.8,11c2.2,0,4,1.8,4,4.1c0,2.2-1.8,4-4,4c-2.2,0-4-1.8-4-4C68.8,12.8,70.6,11,72.8,11z"/>
<path class="st0" d="M81.6,27c0-0.1-0.1-0.1-0.2-0.1h-0.1c-0.1,0-0.2,0.1-0.2,0.1l-3.8,8.3c-0.1,0.2,0,0.3,0.2,0.3h0.8
	c0.1,0,0.2-0.1,0.3-0.2c0.2-0.6,0.5-1.1,0.7-1.7h4l0.8,1.7c0.1,0.1,0.1,0.2,0.3,0.2h0.8c0.2,0,0.3-0.2,0.2-0.3L81.6,27z M79.8,32.6
	l1.5-3.4h0.1l1.5,3.4H79.8z"/>
<path class="st0" d="M76.3,34.4H73v-7.2c0-0.1-0.1-0.2-0.2-0.2h-0.8c-0.1,0-0.2,0.1-0.2,0.2v8.1c0,0.1,0.1,0.2,0.2,0.2h4.4
	c0.1,0,0.2-0.1,0.2-0.2v-0.7C76.5,34.5,76.4,34.4,76.3,34.4z"/>
<path class="st0" d="M57.1,21.1h1.6c0.2,0,0.3-0.2,0.3-0.3v-4.1h2.2c2.1,0,3.9-1.8,3.9-3.9c0-2.1-1.8-3.9-3.9-3.9h-4.1
	c-0.2,0-0.3,0.2-0.3,0.3v11.6C56.8,21,56.9,21.1,57.1,21.1z M59.1,11h2c1,0,1.8,0.7,1.8,1.7c0,1-0.8,1.8-1.8,1.8h-2V11z"/>
<path class="st0" d="M64.5,26.8h-0.2c-0.1,0-0.2,0.1-0.2,0.1l-2.6,6.3h0L58.9,27c0-0.1-0.1-0.1-0.2-0.1h-0.2c-0.1,0-0.2,0.1-0.2,0.2
	l-1.5,8.2c0,0.2,0.1,0.3,0.2,0.3h0.8c0.1,0,0.2-0.1,0.2-0.2l0.9-5.5h0l2.2,5.6c0,0.1,0.1,0.1,0.2,0.1h0.2c0.1,0,0.2-0.1,0.2-0.1
	l2.2-5.6h0l0.9,5.5c0,0.1,0.1,0.2,0.2,0.2H66c0.2,0,0.3-0.1,0.2-0.3L64.7,27C64.7,26.9,64.6,26.8,64.5,26.8z"/>
<path class="st0" d="M93.4,26.9h-0.8c-0.1,0-0.2,0.1-0.2,0.2V33h0l-5.3-6.2h-0.3c-0.1,0-0.2,0.1-0.2,0.2v8.3c0,0.1,0.1,0.2,0.2,0.2
	h0.8c0.1,0,0.2-0.1,0.2-0.2v-6h0l5.3,6.3h0.3c0.1,0,0.2-0.1,0.2-0.2v-8.3C93.7,27.1,93.6,26.9,93.4,26.9z"/>
<path class="st0" d="M112.1,34.5h-1.3v-7.1c0-0.1-0.1-0.2-0.2-0.2h-0.6l-1.8,1.7c0,0-0.1,0.1,0,0.2l0.1,0.4c0,0.1,0.2,0.1,0.3,0.1
	l1.1-0.5v5.5h-1.7c-0.1,0-0.2,0.1-0.2,0.2v0.5c0,0.1,0.1,0.2,0.2,0.2h4.3c0.1,0,0.2-0.1,0.2-0.2v-0.5
	C112.3,34.6,112.2,34.5,112.1,34.5z"/>
<path class="st0" d="M99.8,26.8c-2.5,0-4.4,2-4.4,4.4c0,2.5,2,4.4,4.4,4.4c2.5,0,4.4-1.9,4.4-4.4C104.3,28.8,102.3,26.8,99.8,26.8z
	 M99.8,34.4c-1.7,0-3.2-1.4-3.2-3.2c0-1.7,1.4-3.2,3.2-3.2c1.8,0,3.2,1.5,3.2,3.2C103,33,101.6,34.4,99.8,34.4z"/>
<path class="st0" d="M112.6,8.9h-7.1c-0.2,0-0.3,0.2-0.3,0.3v11.6c0,0.2,0.1,0.3,0.3,0.3h7.1c0.2,0,0.3-0.2,0.3-0.3v-1.4
	c0-0.2-0.1-0.3-0.3-0.3h-5.2V16h4.3c0.2,0,0.3-0.1,0.3-0.3v-1.5c0-0.2-0.2-0.3-0.3-0.3h-4.3V11h5.2c0.2,0,0.3-0.2,0.3-0.3V9.2
	C112.9,9,112.8,8.9,112.6,8.9z"/>
<path class="st0" d="M97.8,20.8c0,0.2,0.2,0.3,0.3,0.3h1.6c0.2,0,0.3-0.2,0.3-0.3V11h2.7c0.2,0,0.3-0.2,0.3-0.3V9.2
	c0-0.2-0.1-0.3-0.3-0.3h-7.7c-0.2,0-0.3,0.2-0.3,0.3v1.4c0,0.2,0.1,0.3,0.3,0.3h2.7V20.8z"/>
<path class="st0" d="M117.9,31.2L117.9,31.2c0.5-0.3,1.3-1,1.3-1.9c0-1.3-1.1-2.2-2.6-2.2c-1.5,0-2.6,0.9-2.6,2.2
	c0,1,0.7,1.6,1.3,1.9v0c-0.5,0.2-1.5,1-1.5,2c0,1.3,1.1,2.4,2.8,2.4c1.8,0,2.9-1,2.9-2.4C119.4,32.2,118.5,31.5,117.9,31.2z
	 M115.2,29.4c0-0.7,0.6-1.3,1.3-1.3c0.8,0,1.4,0.5,1.4,1.3c0,0.6-0.4,1.2-1.4,1.3C115.6,30.5,115.2,30,115.2,29.4z M116.5,34.7
	c-0.8,0-1.5-0.5-1.5-1.3c0-0.6,0.6-1.3,1.6-1.5c1,0.1,1.6,0.8,1.6,1.5C118.1,34.1,117.4,34.7,116.5,34.7z"/>
</svg>
