<?xml version="1.0" encoding="utf-8"?>
<!-- Generator: Adobe Illustrator 26.3.1, SVG Export Plug-In . SVG Version: 6.00 Build 0)  -->
<svg version="1.1" id="Livello_2" xmlns="http://www.w3.org/2000/svg" xmlns:xlink="http://www.w3.org/1999/xlink" x="0px" y="0px"
	 viewBox="0 0 170.4 50.2" style="enable-background:new 0 0 170.4 50.2;" xml:space="preserve">
<style type="text/css">
	.st0{fill:#6060FF;}
</style>
<path class="st0" d="M21.3,26.6c0-0.1,0-0.1,0-0.2l0.2-0.2c0,0,0.1,0,0.2,0c0,0,0,0.1,0,0.2l-0.2,0.2C21.5,26.7,21.4,26.7,21.3,26.6
	C21.4,26.7,21.3,26.7,21.3,26.6 M34.8,33.4c-0.7-0.2-1-0.5-1-0.8c0-0.4,0.4-0.7,0.4-0.7c0,0,0.1,0,0.2,0c0,0,0,0.1,0,0.2
	c0,0-0.3,0.3-0.3,0.5c0,0.2,0.1,0.4,0.8,0.6c0.1,0,0.1,0.1,0.1,0.1C34.9,33.4,34.9,33.4,34.8,33.4C34.8,33.4,34.8,33.4,34.8,33.4
	 M43.3,32.7c-0.1,0-0.1-0.1-0.1-0.1c0-0.1,0-0.2,0-0.4c0-1.2-0.3-4-0.3-5.9c0-0.5,0-1,0.1-1.3c0.1-0.6,0.1-1.1,0.1-1.5
	c0-0.9-0.1-1.6-0.1-1.6c0-0.1,0-0.1,0.1-0.1c0.1,0,0.1,0,0.1,0.1c0,0,0.1,0.7,0.1,1.6c0,0.5,0,1-0.1,1.6c-0.1,0.3-0.1,0.8-0.1,1.3
	c0,1.9,0.3,4.7,0.3,5.9c0,0.2,0,0.3,0,0.4C43.4,32.6,43.4,32.7,43.3,32.7C43.3,32.7,43.3,32.7,43.3,32.7 M39.5,17.5c0,0,0-0.1,0-0.2
	l0.9-0.9c0,0,0.1,0,0.2,0c0,0,0,0.1,0,0.2l-0.9,0.9C39.7,17.5,39.6,17.5,39.5,17.5C39.6,17.5,39.6,17.5,39.5,17.5 M40.9,34
	c0,0-1.4-1.4-2.7-2.9v0c0,0,0-0.1,0-0.2c0.1,0,0.1,0,0.2,0c1.3,1.4,2.7,2.9,2.7,2.9c0,0,0,0.1,0,0.2C41.1,34,41,34,40.9,34
	C41,34,41,34,40.9,34 M18.9,33.1c0-0.1,0-0.1,0-0.2c0,0,1.3-1.1,1.4-1.6c0.2-0.4,0.4-0.9,0.4-0.9c0.4-0.9,0.4-1.4,0.5-1.9l0,0
	c0-0.1,0.1-0.1,0.1-0.1c0.1,0,0.1,0.1,0.1,0.1c-0.1,0.4-0.1,1-0.5,1.9c0,0-0.2,0.5-0.4,0.9c-0.2,0.6-1.4,1.7-1.4,1.7
	C19.1,33.1,19,33.1,18.9,33.1C19,33.1,18.9,33.1,18.9,33.1 M21.3,26.7C21,25.8,19.1,25,19.1,25C19,25,19,24.9,19,24.9
	c0-0.1,0.1-0.1,0.2-0.1c0,0,2,0.8,2.4,1.8c0,0.1,0,0.1-0.1,0.1c0,0,0,0,0,0C21.3,26.8,21.3,26.7,21.3,26.7 M16,26.7
	c-0.1,0-0.1-0.1,0-0.2c0,0,0.5-0.6,1.7-0.6c0,0,0.5,0,0.9,0c0.1,0,0.1,0.1,0.1,0.1c0,0.1-0.1,0.1-0.1,0.1c-0.4,0-0.9,0-0.9,0
	c-1.1,0-1.5,0.6-1.5,0.6C16.1,26.7,16.1,26.7,16,26.7C16,26.7,16,26.7,16,26.7 M35.6,25.7c-0.1-0.6-0.1-1.2-0.1-1.5
	c0-0.2,0-0.3,0-0.4l0,0c0-0.1,0.1-0.1,0.1-0.1c0.1,0,0.1,0.1,0.1,0.1c0,0,0,0.1,0,0.3c0,0.3,0,0.8,0.1,1.4c0,0.1,0,0.1-0.1,0.1
	c0,0,0,0,0,0C35.6,25.8,35.6,25.7,35.6,25.7 M13.9,24.7c0,0-0.4-1.2-0.6-2.4c-0.1-0.7-0.2-1.3-0.2-1.7c0-0.3,0-0.5,0-0.5h0
	c0-0.1,0.1-0.1,0.1-0.1c0.1,0,0.1,0.1,0.1,0.1c0,0,0,0.2,0,0.5c0,0.4,0,0.9,0.2,1.6c0.3,1.2,0.6,2.4,0.6,2.4c0,0.1,0,0.1-0.1,0.2
	c0,0,0,0,0,0C14,24.8,14,24.8,13.9,24.7 M26.3,24.1c-0.1,0-0.1-0.1-0.1-0.2c0,0,0.8-2.6,1.4-2.9c0.1,0,0.1,0,0.2,0.1
	c0,0.1,0,0.1-0.1,0.2c-0.2,0-0.6,0.8-0.8,1.4c-0.3,0.7-0.5,1.3-0.5,1.3l0,0C26.4,24.1,26.4,24.1,26.3,24.1
	C26.3,24.1,26.3,24.1,26.3,24.1 M33.4,22c-0.1,0-0.1-0.1-0.1-0.2c0.2-0.5,0.3-1.2,0.3-1.2h0c0-0.1,0.1-0.1,0.1-0.1
	c0.1,0,0.1,0.1,0.1,0.1c0,0-0.1,0.8-0.3,1.3C33.6,21.9,33.5,22,33.4,22C33.4,22,33.4,22,33.4,22 M34,21.5c0-0.1,0-0.1,0.1-0.1
	l2.1-0.1c0,0,0.5-0.1,0.7-0.2c0.1,0,0.1,0,0.2,0c0,0.1,0,0.1,0,0.2c-0.3,0.2-0.8,0.3-0.8,0.3l-2.1,0.1h0C34,21.6,34,21.5,34,21.5
	 M24.1,20.1c-0.4,0-0.7-0.1-0.7-0.1c-0.1,0-0.1-0.1-0.1-0.1c0-0.1,0.1-0.1,0.1-0.1c0,0,0.3,0.1,0.6,0.1c0.6,0,1.3-0.2,1.6-0.9
	c0-0.1,0.1-0.1,0.1-0.1c0.1,0,0.1,0.1,0.1,0.1C25.6,19.9,24.8,20.1,24.1,20.1L24.1,20.1z M35.3,18.8c-0.1-1.1-0.8-1.2-1.2-1.3
	c-0.2,0-0.3,0-0.3,0l0,0c-0.1,0-0.1,0-0.1-0.1c0-0.1,0-0.1,0.1-0.1c0,0,0.1,0,0.3,0c0.5,0,1.4,0.2,1.5,1.5c0,0.1,0,0.1-0.1,0.1h0
	C35.3,18.9,35.3,18.9,35.3,18.8 M25.3,16.5c0-0.1,0-0.1,0.1-0.2c0.2-0.1,0.3-0.2,0.3-0.2c-0.2-0.1-0.5-0.3-0.7-0.4
	c-0.1,0-0.2-0.1-0.2-0.3c0-0.2,0.2-0.3,0.2-0.3c0,0,0.1,0,0.2,0c0,0.1,0,0.1,0,0.2c0,0-0.1,0.1-0.1,0.1c0,0,0,0,0.1,0
	c0.3,0.1,0.8,0.5,0.8,0.5l0,0.1c0,0-0.1,0.3-0.5,0.5l0,0c0,0,0,0-0.1,0C25.4,16.6,25.3,16.6,25.3,16.5 M25.2,47.9l0.4,0l0,2.2
	l-0.4,0L25.2,47.9z M24,50.1l0.1-2.2l0.4,0l-0.1,2.2L24,50.1z M26.2,47.8l0.4,0l0.1,2.2l-0.4,0L26.2,47.8z M22.9,50l0.2-2.2l0.4,0
	L23.3,50L22.9,50z M27.3,47.8l0.4,0l0.2,2.2l-0.4,0L27.3,47.8z M21.7,49.8l0.3-2.2l0.4,0.1l-0.3,2.2L21.7,49.8z M28.3,47.6l0.4-0.1
	l0.3,2.2l-0.4,0.1L28.3,47.6z M20.5,49.7l0.4-2.2l0.4,0.1l-0.4,2.2L20.5,49.7z M29.4,47.5l0.4-0.1l0.4,2.2l-0.4,0.1L29.4,47.5z
	 M19.4,49.4l0.5-2.2l0.4,0.1l-0.5,2.2L19.4,49.4z M30.4,47.3l0.4-0.1l0.5,2.1L31,49.4L30.4,47.3z M18.3,49.1l0.6-2.1l0.4,0.1
	l-0.6,2.1L18.3,49.1z M31.5,47l0.4-0.1l0.6,2.1l-0.4,0.1L31.5,47z M17.1,48.8l0.7-2.1l0.4,0.1l-0.7,2.1L17.1,48.8z M32.5,46.7
	l0.4-0.1l0.7,2.1l-0.4,0.1L32.5,46.7z M16,48.4l0.8-2.1l0.4,0.1l-0.8,2.1L16,48.4z M33.5,46.3l0.4-0.2l0.8,2l-0.4,0.2L33.5,46.3z
	 M15,47.9l0.9-2l0.4,0.2l-0.9,2L15,47.9z M34.4,45.9l0.4-0.2l0.9,2l-0.4,0.2L34.4,45.9z M13.9,47.4l1-2l0.4,0.2l-1,2L13.9,47.4z
	 M35.4,45.4l0.4-0.2l1,2l-0.4,0.2L35.4,45.4z M12.9,46.9L14,45l0.4,0.2l-1.1,1.9L12.9,46.9z M36.3,44.9l0.4-0.2l1.1,1.9l-0.4,0.2
	L36.3,44.9z M11.9,46.3l1.2-1.9l0.4,0.2l-1.2,1.9L11.9,46.3z M37.2,44.4l0.3-0.2l1.2,1.9l-0.3,0.2L37.2,44.4z M10.9,45.7l1.3-1.8
	l0.3,0.2l-1.2,1.8L10.9,45.7z M38.1,43.8l0.3-0.2l1.3,1.8l-0.3,0.2L38.1,43.8z M10,45l1.3-1.8l0.3,0.2l-1.3,1.8L10,45z M39,43.2
	l0.3-0.3l1.4,1.7l-0.3,0.3L39,43.2z M9.1,44.3l1.4-1.7l0.3,0.3l-1.4,1.7L9.1,44.3z M39.8,42.5l0.3-0.3l1.4,1.7l-0.3,0.3L39.8,42.5z
	 M8.2,43.5l1.5-1.6l0.3,0.3l-1.5,1.6L8.2,43.5z M40.6,41.8l0.3-0.3l1.5,1.6l-0.3,0.3L40.6,41.8z M7.3,42.7l1.6-1.6l0.3,0.3L7.6,43
	L7.3,42.7z M41.4,41.1l0.3-0.3l1.6,1.5L43,42.6L41.4,41.1z M6.5,41.8l1.6-1.5l0.3,0.3l-1.6,1.5L6.5,41.8z M42.1,40.3l0.3-0.3
	l1.7,1.5l-0.3,0.3L42.1,40.3z M5.8,40.9l1.7-1.4l0.3,0.3L6,41.3L5.8,40.9z M42.8,39.5l0.3-0.3l1.7,1.4l-0.3,0.3L42.8,39.5z M5.1,40
	l1.8-1.3L7.1,39l-1.8,1.3L5.1,40z M43.4,38.6l0.2-0.3l1.8,1.3l-0.2,0.3L43.4,38.6z M4.4,39.1l1.8-1.2l0.2,0.3l-1.8,1.2L4.4,39.1z
	 M44.1,37.8l0.2-0.3l1.8,1.2L45.9,39L44.1,37.8z M3.8,38.1l1.9-1.2l0.2,0.4L4,38.4L3.8,38.1z M44.6,36.9l0.2-0.4l1.9,1.1L46.5,38
	L44.6,36.9z M3.2,37.1L5.1,36l0.2,0.4l-1.9,1.1L3.2,37.1z M45.2,35.9l0.2-0.4l2,1L47.1,37L45.2,35.9z M2.6,36.1l2-1l0.2,0.4l-2,1
	L2.6,36.1z M45.7,35l0.2-0.4l2,0.9l-0.2,0.4L45.7,35z M2.1,35l2-0.9l0.2,0.4l-2,0.9L2.1,35z M46.1,34l0.2-0.4l2,0.8l-0.2,0.4
	L46.1,34z M1.7,33.9l2.1-0.8l0.1,0.4l-2.1,0.8L1.7,33.9z M46.5,33l0.1-0.4l2.1,0.7l-0.1,0.4L46.5,33z M1.3,32.8l2.1-0.7l0.1,0.4
	l-2.1,0.7L1.3,32.8z M46.8,32l0.1-0.4l2.1,0.7L49,32.7L46.8,32z M1,31.7l2.1-0.6l0.1,0.4l-2.1,0.6L1,31.7z M47.1,31l0.1-0.4l2.1,0.6
	l-0.1,0.4L47.1,31z M0.7,30.6l2.2-0.5l0.1,0.4L0.8,31L0.7,30.6z M47.4,30l0.1-0.4l2.2,0.5l-0.1,0.4L47.4,30z M0.5,29.4L2.6,29
	l0.1,0.4l-2.2,0.4L0.5,29.4z M47.6,29l0.1-0.4l2.2,0.3l-0.1,0.4L47.6,29z M0.3,28.3L2.5,28l0.1,0.4l-2.2,0.3L0.3,28.3z M47.7,27.9
	l0-0.4l2.2,0.3l0,0.4L47.7,27.9z M0.2,27.1l2.2-0.2l0,0.4l-2.2,0.2L0.2,27.1z M47.9,26.8l0-0.4l2.2,0.1l0,0.4L47.9,26.8z M0.1,25.9
	l2.2-0.1l0,0.4l-2.2,0.1L0.1,25.9z M47.9,26l0-0.4l2.2,0.1l0,0.4L47.9,26z M0.1,25.2v-0.4l2.2,0v0.4L0.1,25.2z M47.9,24.5l2.2,0
	l0,0.4l-2.2,0L47.9,24.5z M0.1,24l0-0.4l2.2,0.1l0,0.4L0.1,24z M47.9,23.5l2.2-0.1l0,0.4l-2.2,0.1L47.9,23.5z M0.2,22.9l0-0.4
	l2.2,0.2l0,0.4L0.2,22.9z M47.8,22.4l2.2-0.2l0,0.4l-2.2,0.2L47.8,22.4z M0.3,21.7l0.1-0.4l2.2,0.3L2.5,22L0.3,21.7z M47.6,21.3
	l2.2-0.3l0.1,0.4l-2.2,0.3L47.6,21.3z M0.5,20.5l0.1-0.4l2.2,0.4L2.7,21L0.5,20.5z M47.4,20.3l2.2-0.4l0.1,0.4l-2.2,0.4L47.4,20.3z
	 M0.7,19.4L0.8,19L3,19.5l-0.1,0.4L0.7,19.4z M47.2,19.3l2.2-0.5l0.1,0.4l-2.1,0.5L47.2,19.3z M1,18.3l0.1-0.4l2.1,0.6l-0.1,0.4
	L1,18.3z M46.9,18.2l2.1-0.7l0.1,0.4L47,18.6L46.9,18.2z M1.4,17.2l0.1-0.4l2.1,0.7l-0.1,0.4L1.4,17.2z M46.5,17.2l2.1-0.7l0.1,0.4
	l-2.1,0.7L46.5,17.2z M1.8,16.1l0.2-0.4L4,16.5l-0.2,0.4L1.8,16.1z M46.2,16.2l2.1-0.8l0.2,0.4l-2.1,0.8L46.2,16.2z M2.2,15l0.2-0.4
	l2,0.9l-0.2,0.4L2.2,15z M45.7,15.3l2-0.9l0.2,0.4l-2,0.9L45.7,15.3z M2.7,13.9l0.2-0.4l2,1l-0.2,0.4L2.7,13.9z M45.2,14.3l2-1
	l0.2,0.4l-2,1L45.2,14.3z M3.2,12.9l0.2-0.4l1.9,1.1L5.2,14L3.2,12.9z M44.7,13.4l1.9-1.1l0.2,0.4l-1.9,1.1L44.7,13.4z M3.8,11.9
	l0.2-0.4l1.9,1.2l-0.2,0.4L3.8,11.9z M44.2,12.5l1.9-1.2l0.2,0.3l-1.9,1.2L44.2,12.5z M4.5,10.9l0.2-0.3l1.8,1.3l-0.2,0.3L4.5,10.9z
	 M43.5,11.6l1.8-1.3l0.2,0.3L43.8,12L43.5,11.6z M5.2,10l0.3-0.3L7.2,11l-0.3,0.3L5.2,10z M42.9,10.8l1.7-1.4l0.3,0.3l-1.7,1.4
	L42.9,10.8z M5.9,9l0.3-0.3l1.7,1.4l-0.3,0.3L5.9,9z M42.2,10l1.7-1.5l0.3,0.3l-1.7,1.5L42.2,10z M6.7,8.2l0.3-0.3l1.6,1.5L8.3,9.7
	L6.7,8.2z M41.5,9.2l1.6-1.5L43.4,8l-1.6,1.5L41.5,9.2z M7.5,7.3L7.8,7l1.6,1.6L9,8.9L7.5,7.3z M40.7,8.4l1.5-1.6l0.3,0.3L41,8.7
	L40.7,8.4z M8.3,6.5l0.3-0.3l1.5,1.7L9.8,8.2L8.3,6.5z M39.9,7.7l1.4-1.7l0.3,0.3L40.3,8L39.9,7.7z M9.2,5.8l0.3-0.3l1.4,1.7
	l-0.3,0.3L9.2,5.8z M39.1,7.1l1.4-1.7l0.3,0.3l-1.4,1.7L39.1,7.1z M10.1,5l0.3-0.2l1.3,1.8l-0.3,0.3L10.1,5z M38.3,6.4l1.3-1.8
	l0.3,0.2l-1.3,1.8L38.3,6.4z M11.1,4.4l0.3-0.2L12.6,6l-0.3,0.2L11.1,4.4z M37.4,5.8L38.6,4l0.3,0.2l-1.2,1.9L37.4,5.8z M12,3.7
	l0.4-0.2l1.1,1.9l-0.4,0.2L12,3.7z M36.5,5.3l1.1-1.9L38,3.6l-1.1,1.9L36.5,5.3z M13,3.1l0.4-0.2l1,2l-0.4,0.2L13,3.1z M35.5,4.8
	l1-2L36.9,3l-1,2L35.5,4.8z M14.1,2.6l0.4-0.2l0.9,2L15,4.6L14.1,2.6z M34.6,4.3l0.9-2l0.4,0.2l-0.9,2L34.6,4.3z M15.1,2.1L15.5,2
	l0.9,2L16,4.2L15.1,2.1z M33.6,3.9l0.8-2L34.8,2L34,4.1L33.6,3.9z M16.2,1.7l0.4-0.1l0.8,2.1L17,3.8L16.2,1.7z M32.6,3.5l0.7-2.1
	l0.4,0.1L33,3.7L32.6,3.5z M17.3,1.3l0.4-0.1l0.7,2.1L18,3.4L17.3,1.3z M31.6,3.2l0.6-2.1l0.4,0.1L32,3.3L31.6,3.2z M18.4,1l0.4-0.1
	L19.4,3L19,3.1L18.4,1z M30.6,2.9l0.6-2.1l0.4,0.1L31,3L30.6,2.9z M19.6,0.7L20,0.6l0.5,2.2L20,2.8L19.6,0.7z M29.5,2.7L30,0.5
	l0.4,0.1l-0.4,2.2L29.5,2.7z M20.7,0.4l0.4-0.1l0.4,2.2l-0.4,0.1L20.7,0.4z M28.5,2.5l0.3-2.2l0.4,0.1l-0.3,2.2L28.5,2.5z M21.9,0.3
	l0.4-0.1l0.3,2.2l-0.4,0.1L21.9,0.3z M27.4,2.4l0.3-2.2l0.4,0.1l-0.3,2.2L27.4,2.4z M23,0.1l0.4,0l0.2,2.2l-0.4,0L23,0.1z M26.4,2.3
	l0.1-2.2l0.4,0l-0.1,2.2L26.4,2.3z M24.2,0.1l0.4,0l0.1,2.2l-0.4,0L24.2,0.1z M25.3,2.3l0-2.2l0.4,0l0,2.2L25.3,2.3z M26,40.9
	l-3.6-1.2c0,0-0.1-0.1-0.1-0.1v-0.9c0,0,0,0,0,0c0,0,0,0,0,0c0,0,0,0,0,0l0,0c0,0,0,0,0,0h0c0,0,0,0,0,0c0,0,0,0,0,0h0c0,0,0,0,0,0
	h0l3.7-0.9l0.2-1.5c-0.2-0.1-0.2-0.4-0.2-0.4c0,0,0,0,0,0L26,34.2c-0.1-0.1-0.1-0.1-0.2-0.2c0,0,0,0,0,0c-0.1-0.1-0.3-0.1-0.4-0.1
	c-0.4,0-0.8,0.4-1.4,0.6c-0.8,0.2-1.6,0.3-1.6,0.3c0,0,0,0-0.1,0c-0.8-0.2-2.6-2.2-2.7-2.2l0,0c0,0,0-0.1,0-0.2c0,0,0.1,0,0.2,0
	c0,0,0.4,0.4,0.9,0.9c0-0.5-0.1-1.8-0.1-2.5c0-0.2,0-0.3,0-0.4c0-0.1,0.1-0.1,0.1-0.1c0.1,0,0.1,0.1,0.1,0.1c0,0,0,0.2,0,0.3
	c0,0.8,0.1,2.7,0.1,2.7l0,0c0,0,0,0,0,0c0.5,0.4,1,0.9,1.3,1c0.2-0.4,0.7-2,0.9-3.3c0,0,0.1-0.8,0.1-1.8v0c0-0.1,0.1-0.1,0.1-0.1
	c0.1,0,0.1,0.1,0.1,0.1c-0.1,1-0.2,1.8-0.2,1.8c-0.1,1.2-0.7,2.7-0.9,3.2c0.3,0,0.8-0.1,1.3-0.3c0.5-0.2,0.9-0.6,1.5-0.6
	c0.1,0,0.2,0,0.3,0c0-0.1,0-0.2,0-0.2c0-0.1,0-0.3,0-0.4c0-0.4,0.3-0.8,0.6-1.3c0.1-0.1,0.2-0.4,0.3-0.7L26.5,31
	c-0.1,0.1-0.1,0.2-0.3,0.2c-0.3,0-0.3-0.3-0.3-0.3c0,0,0-0.1,0-0.1c0-0.2,0.1-0.5,0.2-0.7c0,0,0,0,0-0.1c-0.1,0.1-0.3,0.1-0.4,0.1
	c-0.1,0-0.1,0-0.2,0c-0.3-0.1-0.6-0.3-0.6-0.3l-0.4-0.3c-0.1-0.1-0.2-0.2-0.2-0.3c0-0.2,0.2-0.2,0.2-0.2c0,0,0,0,0-0.1
	c0-0.2,0.2-0.2,0.2-0.2c0.1,0,0.1,0,0.1,0c0.2,0.1,0.4,0.3,0.4,0.4h0c0,0,0.1,0,0.1-0.1c0.1,0,0.1-0.1,0.2-0.1l0,0c0,0,0,0,0-0.1
	c0-0.1,0-0.1,0-0.2l0,0c0,0,0,0,0,0c0-0.2,0.2-0.8,0.2-0.9c0-0.1,0-0.1,0.2-0.4c0,0,0,0,0,0c-0.1-0.3-0.2-0.6-0.2-0.9
	c0-0.5,0.2-0.9,0.4-1.2c0-0.1-0.1-0.9-0.1-1.5c0-0.1,0-0.2,0-0.2c0-0.3,0.3-1.6,0.6-2.7c0-0.1,0.1-0.1,0.1-0.1
	c0.1,0,0.1,0.1,0.1,0.1c-0.3,1.1-0.5,2.5-0.6,2.7c0,0.1,0,0.1,0,0.2c0,0.4,0,0.9,0.1,1.3c0.4-0.4,0.8-0.5,0.8-0.5
	c0.1,0,0.1,0,0.2,0.1c0,0.1,0,0.1-0.1,0.2c0,0-1.3,0.5-1.3,1.7c0,0.2,0,0.5,0.2,0.7c0,0,0,0,0,0c0,0,0,0,0,0c0,0,0,0,0,0
	c0,0,0.1-0.1,0.4-0.4c0.2-0.2,0.4-0.3,0.6-0.3c0.1,0,0.2,0,0.3,0.1c0.3-0.9,0.7-1.2,0.8-1.3c0.1,0,0.2-0.4,0.3-0.5l-0.1,0
	c-0.1,0-0.1,0-0.1-0.1c0,0-0.3-0.9-0.4-1.4c0-0.1,0-0.1,0-0.2c0-0.6,0.5-1.2,0.7-1.3c0.1,0,0.2-0.4,0.2-0.4c0,0,0,0,0,0
	c-0.3-0.4-0.3-0.8-0.3-0.8c0-0.2-0.1-0.4-0.1-0.6c0,0,0,0,0-0.1c0,0,0,0,0,0c0,0-0.2-0.1-0.2-0.4c0,0,0-0.1,0-0.1c0,0,0,0,0-0.1
	c0-0.1,0-0.1,0-0.2L27,18.6c0,0.1-0.1,0.2-0.2,0.3c0,0-0.2,0.2-0.4,0.3c-0.1,0-0.3,0.1-0.4,0.1c-0.1,0-0.1,0-0.1,0l-0.1-0.1
	c0,0-0.1-0.1-0.1-0.2c0,0-0.3-0.2-0.3-0.8c-0.8,0-1.4-0.1-1.7-0.2c0,0.1,0.1,0.2,0.1,0.3c0,0.2,0.1,0.3,0.1,0.5c0,0.1,0,0.2,0,0.3
	c0,0-0.1,0.9-0.5,1.2c-0.1,0-0.2,0.1-0.4,0.1c-0.5,0-1.3-0.1-1.5-0.4c-0.1-0.2-0.1-0.2-0.6-0.5c-0.3,0.2-1.5,1.1-1.5,3.3
	c0,0.2,0,0.5,0.1,0.8c0.1,0,0.2,0.1,0.3,0.1c0-0.1,0-0.2,0-0.3c0-0.2,0-0.5,0.2-0.6c0,0,0,0,0,0c0.1-0.1,0.2-0.2,0.2-0.2
	c0.1-0.1,0.3-0.4,0.6-0.4c0.1,0,0.2-0.1,0.3-0.2c0.1-0.1,0.4-0.5,0.9-0.5c0,0,0.1,0,0.1,0c0.5,0.1,1.5,0.1,1.7,0.2
	c0.1,0.1,0.5,0.3,0.7,0.5c0.1,0,0.1,0.1,0.1,0.1c0,0,0.1,0,0.1,0l0-2.1c0-0.1,0.1-0.1,0.1-0.1c0.1,0,0.1,0,0.1,0.1l0,2.2
	c0.2,0,0.4,0.2,0.5,0.4c0.1,0.1,0.2,0.2,0.2,0.4c0,0.1,0,0.1-0.1,0.2c0.2,0.1,0.5,0.3,0.6,0.5c0,0.1,0.1,0.2,0.1,0.4
	c0,0.2-0.1,0.5-0.5,0.6c0,0-0.4,0-0.5,0.1c-0.1,0.3-0.3,0.5-0.4,0.6c0,0.2,0,0.6,0,0.8c0,0.2-0.2,0.3-0.4,0.3c0,0-0.1,0-0.1,0
	c0,0.1-0.1,0.2-0.3,0.3c-0.1,0-0.2,0.1-0.3,0.2c0,0-0.1,0.1-0.3,0.2c-0.1,0-0.2,0-0.3,0c-0.4,0-0.9-0.2-1.1-0.4
	c-0.2-0.2-0.4-0.6-0.4-0.6l0,0c0-0.1,0-0.1,0.1-0.2c0.1,0,0.1,0,0.2,0.1c0,0,0.2,0.3,0.3,0.5c0.1,0.1,0.6,0.3,0.9,0.3
	c0.1,0,0.1,0,0.2,0c0.1,0,0.1-0.1,0.3-0.2c0,0,0,0,0,0l-0.1-0.1c0,0-0.1-0.1,0-0.2c0,0,0.1-0.1,0.2,0l0.2,0.1c0,0,0,0,0,0
	c0,0,0.1,0,0.1,0c0,0,0-0.1,0.1-0.1c-0.1,0-0.2-0.1-0.2-0.2h0v0h0c0,0,0,0,0-0.1c0.1,0,0.1,0,0.1,0c0,0,0,0,0,0c0,0,0,0,0,0.1l0,0
	c0,0,0,0,0.1,0c0,0,0.1,0,0.1,0c0,0,0,0,0,0c0,0,0.1,0,0.1,0c0.1,0,0.1,0,0.1-0.1c0-0.2,0-0.8,0-0.8l0.1-0.1c0,0,0.3-0.2,0.3-0.5
	c0,0-0.1-0.1-0.1-0.1c0,0-0.1,0-0.1,0c-0.1,0-0.1,0-0.2,0.1C24.4,24.7,24,25,23.8,25c-0.1,0-0.2,0.1-0.3,0.1l0,0
	c0,0.1-0.2,0.3-0.6,0.5L21.4,26c0.1,0.4,0.2,0.9,0.2,0.9c0,0,0.1,0.4,0.1,0.5c0,0,0,0,0,0c0,0.5-0.3,2.1-1.6,2.3v0h0
	c-0.3,0.4-0.9,0.9-1.8,1.1c0.1,0.3,0.5,1,0.5,1.4c0,0.2,0.3,1.1,0.5,1.8c0.2,0.5,0.3,0.9,0.3,0.9c0,0.1,0.3,0.4,0.3,0.9
	c0,0.1,0,0.2,0,0.3c0,0,0,0,0,0c0,0,0,0,0,0c0,0,0.2,0.3,0.5,0.7c0.1,0.2,0.2,0.5,0.2,0.8c0,0.4-0.1,0.7-0.1,0.9
	c0,0.4-0.3,0.4-0.7,0.9c-0.3,0.3-0.6,0.4-1,0.4c-0.4,0-0.7-0.1-1-0.1c-0.4-0.1-1.5-0.4-2.1-0.4c-0.7-0.1-1.9-0.8-2.2-0.9
	c-0.3-0.2-1.7-1.3-1.9-1.5c-0.1-0.1-0.4-0.2-0.6-0.2v0c-0.1,0-1.1,0.7-1.2,0.7c-0.1,0-0.2,0.2-0.2,0.2c0,0,0,0,0,0
	c0,0,0,0.1,0.1,0.2c0,0,0.1,0,0.2,0.1c0.1,0,0.3,0.1,0.3,0.1c0.1,0,0.1,0.1,0.1,0.1c0,0.2-0.2,0.4-0.3,0.4l0,0c0,0,0,0.1,0,0.1
	c-0.1,0.2-0.2,0.2-0.3,0.2c0,0-0.1,0-0.1,0c-0.1,0-0.1,0-0.2,0v0l0,0v0c-0.1,0-0.3,0-0.3,0c-0.1-0.1-0.2-0.1-0.3-0.3l0,0
	c0,0,0,0,0,0c0,0,0-0.1-0.1-0.1c-0.1-0.1-0.1-0.2-0.2-0.3c-0.1-0.3-0.3-0.5-0.3-0.7c0,0,0-0.1,0-0.1c0-0.3,0.4-1.2,0.6-1.6
	c0.2-0.4,0.2-0.8,0.2-1.1c0-0.2,0.1-0.4,0.2-0.5c-0.5-0.5-0.6-1.1-0.6-1.6c0-0.3,0-0.5,0.1-0.6c0,0,0,0,0,0c-0.2-0.3-0.3-0.8-0.4-1
	c-0.3,0.2-0.7,0.4-0.7,0.4l-0.1,0h0c-0.8,0-1-0.6-1-1.1c0-0.4,0.1-0.7,0.1-0.9c0.1-0.4,0.4-0.7,0.7-0.9c-0.2,0-0.3,0-0.4-0.1
	c-0.1-0.1-0.2-0.2-0.3-0.3c-0.2-0.2-0.4-0.2-0.9-0.2c-0.1,0-0.1,0-0.2-0.1c-0.1,0-0.4-0.1-0.6-0.2c-0.3-0.1-0.6-0.1-0.7-0.3
	c0,0,0,0,0-0.1c0,0-0.1,0-0.1,0l-0.8-0.5c-0.2-0.1-0.2-0.3-0.2-0.4c0-0.2,0.1-0.4,0.1-0.4c0,0,1.1-1.1,1.5-2.1C5.2,23,5.3,21,5.3,21
	c0.2-1.6,0.8-2.2,1-2.4C6.1,18.3,6,18,6,17.7c0-0.2,0.1-0.4,0.1-0.5c-0.2-0.2-0.3-0.3-0.3-0.3c-0.2-0.2-0.2-0.5-0.3-0.8
	c0-0.2,0-0.3,0.1-0.4c0.2-0.2,0.7-0.8,0.7-0.8c0.8-1.5,1.7-1.8,1.8-1.8c0-0.1,0-0.2,0.1-0.3c0.2-0.6,0.7-0.8,1-1
	c0.3-0.2,0.7-0.9,1.1-1.2c0.4-0.3,1.4-0.4,2.2-0.6c0.3-0.1,0.6-0.1,1-0.1c0.7,0,1.3,0.1,1.3,0.1c0,0,0,0,0.1,0c0,0,0,0,0.1,0
	c0.2,0,0.6,0,1.1,0.2c0-0.3,0.3-0.5,0.4-0.6c0,0,0.1,0,0.1,0C16.7,9.2,17.5,9,17.7,9c0.1-0.5,0.7-0.5,1.2-0.5c0.4,0,0.8,0.1,0.8,0.1
	c0.1,0,0.2,0,0.3,0c0.7,0,1.4,0.4,1.5,0.5c0,0,0.1,0,0.1,0c0.6,0,0.9,0.6,1,0.7c0.4,0.1,0.5,0.5,0.5,0.8c0,0.3-0.1,0.5-0.1,0.5
	c0,0.1-0.1,0.4-0.5,0.4c0,0-0.1,0-0.1,0c-0.1,0-0.2,0-0.3-0.1c0,0-0.1,0.1-0.1,0.2c-0.1,0.2-0.4,1-0.5,1.4c0,0.2-0.1,0.3-0.3,0.3
	c-0.1,0-0.1,0-0.2-0.1c0,0-0.1,0.1-0.1,0.1c-0.1,0.1-0.2,0.1-0.3,0.1c0,0.1-0.1,0.1-0.2,0.2c0,0-0.1,0.1-0.1,0.1
	c0,0.1-0.1,0.3-0.3,0.3h0c-0.2,0-0.6-0.2-0.7-0.2l-0.5-0.3c0,0.2,0,0.6-0.2,0.9c0,0,0,0,0,0v0.1c0,0.1,0,0.4,0,0.6
	c0,0.1-0.1,0.1-0.2,0.2c0.2,0.1,0.7,0.5,0.8,0.8c0,0,0,0,0,0l0.3,0.1l0.2,0c0,0,0.6,0.1,0.6,0.1c0.1,0,0.6,0.1,0.6,0.1l0.1,0.1
	c0,0,0,0.1,0,0.1c0,0.3-0.3,0.3-0.4,0.3l-0.4,0.1l0.1,0.1c0,0.1,0.1,0.1,0.1,0.2c0,0.2-0.2,0.4-0.2,0.4c0,0.1,0,0.1,0,0.1
	c0,0.4-0.3,0.6-0.3,0.6c-0.2,0.1-0.4,0.2-0.6,0.2c-0.3,0-0.6-0.2-0.9-0.3c0,0,0,0,0,0c0,0-1,0-1.1,0c-1.2-0.1-1.6-1.2-1.6-1.2
	c-0.1-0.1-0.1-0.2-0.1-0.4c0-0.1,0-0.1,0-0.2l-0.7,0.4c0,0,0,0,0,0.1c0.2,0.4,0.7,1.4,0.7,2.2v0c0,0,0,0,0,0.1c0,0.7,0.1,1.4,0.3,2
	c0.1,0.5,0.5,1.1,0.6,1.2l0,0c0.2,0,0.5,0.1,0.6,0.2c0.1,0.1,0.5,0.3,0.6,0.3c0.1,0,0.2,0.1,0.3,0.2c0.1,0,0.7,0.2,1.2,0.4
	c0-0.2,0-0.5,0-0.7c0-2.2,1.2-3.2,1.6-3.5c0-0.1-0.1-0.1-0.1-0.2c0-0.5,0.7-1,0.7-1.2c0-0.1,0,0,0.1-0.5c0.1-0.5,0.5-1.8,0.5-1.8
	c0.1-0.3,0.4-0.5,0.4-0.5c0.2-0.5,0.6-0.5,0.8-0.5c0.1,0,0.1,0,0.1,0c0.1-0.1,0.3-0.1,0.4-0.1c0.1,0,0.1,0,0.2,0
	c0.1,0,0.5-0.2,0.7-0.2c0,0,0,0,0,0c0,0,0.4,0,0.6,0.3c0,0,0.3,0.1,0.4,0.4c-0.1,0,0.4,0.1,0.4,0.5v0c0.1,0.1,0.2,0.1,0.2,0.3
	c0.1,0,0.2,0.1,0.2,0.3c0.1-0.3,0.3-0.7,0.4-0.8c0,0,0.3-0.5,0.3-1.3c0-0.4-0.1-1-0.3-1.6v0c0,0-0.1,0.1-0.2,0.2
	c-0.1,0.1-0.2,0.1-0.2,0.1v0c0,0,0,0,0,0c-0.1,0.1-0.2,0.1-0.2,0.2C25.9,13,25.6,13,25.5,13c-0.1,0.3-0.5,0.2-0.7,0.4
	c-0.2,0.1-0.3,0.1-0.5,0.1c-0.3,0-0.6-0.2-0.6-0.2c0,0-0.7-0.6-0.8-0.8c0,0,0,0,0,0c0,0.1-0.1,0.1-0.4,0.1h0c-0.3,0-0.5-0.2-0.5-0.3
	c0,0,0,0,0-0.1c0.1-0.3,0.4-0.3,0.4-0.3c0,0,0.4-0.3,0.9-0.3c0,0,0.1,0,0.1,0c0-0.2,0-0.7,0.2-0.9c0.1-0.1,0.4-0.3,0.6-0.4
	c0-0.1-0.1-0.3-0.1-0.5c0-0.3,0.1-0.6,0.4-1c0.6-0.7,0.8-0.9,1.1-0.9c0.2,0,0.6-0.1,0.7-0.1c0.1-0.1,0.5-0.3,1-0.3
	c0.2,0,0.5,0.1,0.7,0.2c0.2-0.2,0.4-0.4,0.5-0.5c0.2-0.1,1-0.3,1-0.3c0,0,0.1,0,0.2,0c0.3,0,0.9,0,1.4,0.4c0.2,0,0.6,0.1,0.8,0.5
	c0.2,0.4,0.5,0.9,0.5,1.2c0,0,0,0,0,0.1c0,0.2-0.1,0.4-0.1,0.4h0l0,0c0,0,0,0,0,0.1c0,0.2,0,0.5-0.1,0.7c0.2,0.1,1.7,0.7,2.6,2.3
	c0,0,0.4,0.6,0.4,1c0,0.1,0,0.1,0,0.1c0,0,0,0,0,0v0v0c0.5,0.4,0.7,0.7,0.7,0.8c0.3,0,0.7-0.1,1-0.1c0.3,0,0.7,0,1,0.1c0,0,0,0,0,0
	c0.1,0,0.2,0,0.3,0c0.3,0,0.6,0.1,0.6,0.1c0,0,0.1,0,0.2,0c0.1,0,0.2,0,0.3,0c0.4,0,1,0,1.7,0.5l0.8-0.2c0.1,0,0.2,0,0.3,0
	c1.2,0,1.8,1.1,1.8,1.8c0,0.4-0.2,0.8-0.4,1.1c0,0,0,0,0,0c0.5,1.2,0.8,2.8,1,5c0.1,0.8,0.1,1.5,0.1,2.2c0,3.3-0.8,6.1-1.1,7.3
	c-0.1,0.3-0.1,0.6-0.1,0.9c0,1.2,0.5,2.4,0.9,2.5c0.1,0,0.1,0.1,0.1,0.1c0,0.1,0,0.1-0.1,0.1c0,0-2.1,0.2-3.2,0.2
	c-0.1,0-0.2,0-0.2,0c-0.4,0-0.5,0-1,0c-1.5-0.1-3-0.1-3.4-0.2c0,0,0,0.1,0,0c0,0,0.5,0.7,0.6,1l0,0v0c0,0.3-0.4,0.6-0.5,0.7
	c-0.1,0.1-0.4,0.2-0.5,0.3c-0.1,0.1-0.2,0.1-0.3,0.1c-0.1,0-0.2,0-0.3,0c-0.2,0-0.4-0.1-0.5-0.1c-0.1,0-0.3,0.1-0.5,0.1
	c0,0-0.1,0-0.1,0c-0.4-0.1-0.4-0.5-0.4-0.8c0,0,0-0.1,0-0.1c0-0.1,0-0.2,0-0.3c0.1-0.2,0.2-0.4,0.2-0.5c0-0.1,0.1-0.2,0.1-0.4
	c0,0,0,0,0,0c-0.5-0.1-0.7-0.3-1.2-1.6l-0.2-0.9c-0.2-0.5-0.3-1-0.3-1.5c0-0.9,0.3-1.5,0.4-1.7c0.1-0.4,0.9-1.8,0.9-1.8l0.4-1l0-0.1
	c-0.2,0-0.5,0-1,0.1c0,0,0,0,0,0c-0.1,1.9-0.6,2.6-0.6,2.6c0,0-0.9,1.4-1,1.6c-0.1,0.1-0.1,0.3-0.1,0.5c0,0.1,0,0.2,0,0.2l0,0h0v0
	c0,0.2-0.1,0.4-0.1,0.4c0,0,0,0,0,0.1c0,0.2,0.1,0.4,0.2,0.6c0.1,0.2,0.3,0.3,0.4,0.5c0,0,0,0.1,0,0.1c0,0.3-0.2,0.5-0.5,0.6
	C31.3,35,31,35,30.6,35c-0.3,0-0.5,0-0.8,0c-0.5-0.1-0.6-0.5-0.5-0.7c0-0.1,0-0.1,0-0.1c0,0,0.2-0.7,0.3-0.8c0,0,0-0.2,0-0.3
	c0-0.1,0-0.2,0-0.3c0,0,0,0,0-0.1c0-0.3,0.2-0.8,0.4-1.1c0.1-0.1,0.1-0.5,0.1-0.8c0-0.2,0-0.3,0-0.4c0,0,0-0.1,0-0.2
	c0-0.4,0-1.3,0-1.8h0c-0.8,1.5-2.1,3-2.1,3.1c0,0.1-0.1,0.2-0.1,0.4c0,0.2,0,0.5,0.2,1c0,0.1,0,0.3,0,0.4c0,0.4-0.2,0.8-0.3,1l0,0
	c0,0,0,0,0,0l0.4,2.8l0.6-0.1l3.8,0.8c0.1,0,0.1,0.1,0.1,0.1v0l0,0v0.9c0,0.1,0,0.1-0.1,0.1L26,40.9L26,40.9z M26.1,40.7l6.5-1.9
	v-0.7l-6.5,1.8L26.1,40.7z M22.5,39.5l3.4,1.1v-0.7l-3.4-1.1V39.5z M26,39.7l6.2-1.8l-3.3-0.7l-0.6,0.1l0.2,1c0,0.1,0,0.1-0.1,0.1
	c-0.1,0-0.1,0-0.1-0.1l-0.4-1l-1.4,0.3L26.1,39c0,0.1-0.1,0.1-0.1,0.1c-0.1,0-0.1-0.1-0.1-0.1l0.2-1l-3.2,0.7L26,39.7z M11.1,36.3
	c0.2,0,0.6,0.1,0.8,0.3c0.1,0.1,1.6,1.3,1.8,1.4c0.3,0.1,1.5,0.9,2.1,0.9c0.6,0.1,1.7,0.3,2.1,0.4c0.2,0.1,0.6,0.1,0.9,0.1
	c0.3,0,0.6-0.1,0.8-0.3c0.5-0.5,0.6-0.5,0.6-0.8c0-0.2,0.1-0.5,0.1-0.9c0-0.3,0-0.5-0.1-0.7c-0.2-0.3-0.3-0.5-0.4-0.6
	c0,0.1,0,0.1-0.1,0.2c-0.4,0.8-0.6,1.8-2.5,1.8c0,0-0.1,0-0.1,0c0.4,0.2,0.8,0.4,0.9,0.5c0,0,0,0.1,0,0.2c0,0-0.1,0-0.2,0
	c-0.1-0.1-1-0.5-1.5-0.7c-0.1-0.1-0.2-0.1-0.3-0.1c-0.3-0.1-2.7-1.1-3.8-1.6c-1.1-0.5-1.9-1.5-2.9-2.2c0,0.1-0.1,0.2-0.1,0.3
	c0,0.2,0,0.7-0.2,1.2c-0.2,0.4-0.6,1.3-0.5,1.5c0,0,0,0,0,0c0,0.2,0.5,1,0.6,1.2h0c0,0,0,0,0,0c0,0,0.1,0.1,0.1,0.1l0,0
	c0,0,0.2,0,0.2,0c0,0,0,0,0,0c0,0,0,0,0,0c0.1,0,0.1,0,0.2,0h0c0,0,0.1,0,0.1,0c0-0.1,0-0.2,0.1-0.3c0,0,0,0,0,0c0,0,0-0.1,0.1-0.1
	c0,0,0-0.1,0.1-0.1C10,38,9.9,38,9.8,37.9c0,0-0.2,0-0.3-0.2c0-0.1-0.1-0.1-0.1-0.3c0,0,0-0.1,0-0.1c0.1-0.2,0.2-0.3,0.3-0.3
	C9.9,37,10.8,36.3,11.1,36.3C11.1,36.3,11.1,36.3,11.1,36.3C11.1,36.3,11.1,36.3,11.1,36.3L11.1,36.3 M34.8,38c0,0,0.4,0.1,0.5,0.1
	c0.1,0,0.2,0,0.3,0c0.1,0,0.2,0,0.2,0c0.2-0.1,0.4-0.2,0.5-0.3c0.1-0.1,0.4-0.4,0.4-0.5c0,0,0,0,0,0c0-0.1-0.5-0.9-0.5-0.9
	c0,0,0-0.1-0.1-0.2c0-0.2-0.1-0.5-0.1-0.8c0-0.2,0-0.4,0.1-0.6c0.3-0.5,2.8-4,2.8-6.6c0,0,0,0,0-0.1c-0.1,0.1-0.1,0.1-0.2,0.2
	c-0.4,0.6-2.1,2-3.2,2.9c0,0,0,0,0,0c0,0-0.2,2.2-0.5,2.9c-0.3,0.6-0.5,1.2-0.5,1.4h-0.1l0.1,0l0,0c0,0.3-0.2,0.9-0.3,1.1
	c-0.1,0.1-0.2,0.3-0.2,0.5c0,0.1,0,0.2,0,0.3c0,0,0,0,0,0.1c0,0.4,0.1,0.6,0.2,0.6c0,0,0.1,0,0.1,0C34.5,38,34.7,38,34.8,38L34.8,38
	z M16.5,37.9l0.5,0c0.1,0,0.2,0,0.2,0c1.9,0,1.9-0.8,2.3-1.6c0-0.1,0.1-0.2,0.1-0.3c0,0,0-0.1,0-0.1c0-0.1,0-0.2,0-0.2
	c0-0.4-0.2-0.6-0.3-0.8c0-0.1-0.2-0.4-0.3-0.9c-0.2-0.7-0.5-1.6-0.6-1.9c0-0.3-0.5-1.2-0.5-1.4c-0.6,0-1-0.3-1.1-0.4
	c-0.1,0.1-0.1,0.2-0.1,0.2l-0.3,0.7c0,0-0.5,1.1-0.5,1.4l0,0v0l0,0c0,0,0,0.1,0.1,0.1c0.1,0,0.2,0.1,0.3,0.1
	c0.2,0.1,0.6,0.3,0.7,0.4c0.1,0.1,0.3,0.3,0.4,0.4c0,0,0.1,0.1,0.1,0.1c0.1,0.1,0.4,0.2,0.4,0.3c0,0,0.5,0.6,0.6,0.7
	c0,0.1,0.1,0.1,0.1,0.2c0,0,0,0.1,0,0.1C18.5,35,18.4,35,18.4,35l-0.1,0l-0.7-0.4l-0.1,0c0.1,0.2,0.2,0.3,0.2,0.3
	c0,0,0.2,0.4,0.2,0.6c0,0.1,0,0.1,0,0.2c0,0.2-0.2,0.3-0.2,0.3c0,0,0,0-0.1,0c-0.2,0-0.3-0.2-0.3-0.2l-0.3-0.5L17,35.2l0.1,0.4
	c0,0,0.1,0.3,0.1,0.4c0,0,0,0.1,0,0.1c0,0.1-0.1,0.2-0.1,0.2c0,0-0.1,0-0.1,0c-0.1,0-0.2-0.1-0.2-0.1l-0.1-0.1l-0.4-0.8
	c-0.1,0.2-0.4,0.3-0.5,0.3c-0.1,0-0.1,0-0.2,0.1c0,0.1-0.1,0.1-0.2,0.1c-0.1,0-0.1,0-0.1,0c-0.1-0.1-0.1-0.2-0.1-0.3
	c0-0.1,0-0.2,0.1-0.2c0.1-0.1,0.2-0.2,0.3-0.2c0-0.1-0.1-0.2-0.1-0.3c0,0,0,0,0,0c0,0-0.1-0.1-0.1-0.1c-0.1-0.1-0.2-0.1-0.2-0.2
	c0,0-0.4-0.3-0.4-0.3c-0.3-0.3-0.4-0.9-0.5-1.6c-0.4,0.3-1,0.4-1.6,0.4c-0.5,0-1,0-1.4-0.1c-1-0.1-1.8-0.5-2.2-0.9
	c0,0.1,0,0.2,0,0.4c0,0.4,0.1,1,0.6,1.5c0,0,0,0,0.1,0c0.9,0.8,1.8,1.7,2.8,2.2c1.1,0.5,3.5,1.5,3.8,1.6
	C16.3,37.8,16.4,37.9,16.5,37.9L16.5,37.9C16.5,37.9,16.5,37.9,16.5,37.9 M26.6,36.1l-0.2,1.5l0,0l0.8-2.2c0,0,0.1-0.1,0.1-0.1
	c0,0,0.1,0,0.1,0.1l0.6,1.8h0l-0.4-2.9l0-0.3c-0.1,0-0.3,0.1-0.4,0.3c-0.2,0.3-0.4,1-0.5,1.3C26.7,35.8,26.6,36,26.6,36.1
	C26.6,36.1,26.6,36.1,26.6,36.1 M26.6,37.6l1.2-0.3l-0.5-1.4L26.6,37.6z M39.8,36.2c0.5,0,0.5,0,1,0c0.1,0,0.1,0,0.2,0
	c0.1,0,0.2,0,0.4,0c-0.7-0.4-1.8-1.3-1.8-3.7c0-0.1,0.1-0.1,0.1-0.1c0.1,0,0.1,0,0.1,0.1c0.1,3.3,2.1,3.7,2.1,3.7c0,0,0,0,0,0
	c0.7,0,1.5-0.1,2-0.2c-0.4-0.4-0.7-1.5-0.7-2.5c0-0.3,0-0.7,0.1-1c0.3-1.2,1.1-3.9,1.1-7.2c0-0.7,0-1.4-0.1-2.2
	c-0.2-2.1-0.5-3.7-1-4.8c-0.2,0.3-0.4,0.5-0.4,0.5l-1,0.8c-0.3,0.6-1.4,1.1-1.7,1.3c-0.2,0.2-0.5,0.3-0.7,0.3c0,0,0,0,0,0l-0.9,3.5
	c0,0.1-0.1,0.1-0.1,0.1c-0.1,0-0.1-0.1-0.1-0.1l0.9-3.4c-0.1,0-0.1,0-0.2,0c-0.1,0-0.3,0-0.4,0c-3.5,4.1-4.3,9.2-4.5,10.8
	c0.1-0.1,0.1-0.2,0.2-0.2c0.2-0.1,0.5-0.4,0.9-0.7c1.1-0.9,2.8-2.3,3.2-2.9c0.1-0.2,0.3-0.3,0.4-0.4l0,0c0.5-0.3,1.1-0.4,1.4-0.4
	c0.2,0,0.3,0,0.3,0c0.1,0,0.1,0.1,0.1,0.1c0,0.1-0.1,0.1-0.1,0.1c0,0-0.1,0-0.2,0c-0.3,0-0.8,0-1.2,0.3c0,0.1,0,0.2,0,0.2
	c0,2.7-2.6,6.3-2.8,6.7c-0.1,0.1-0.1,0.3-0.1,0.5c0,0.2,0,0.5,0.1,0.7c0,0,0,0,0.1,0v0c0,0,0,0,0.1,0c0.1,0,0.1,0,0.2,0
	c0.2,0,0.5,0,0.8,0.1c0.3,0,0.6,0,1,0.1c-0.7-0.4-1.3-1.1-1.3-1.1c0,0,0-0.1,0-0.2c0,0,0.1,0,0.2,0c0,0,1,1.1,1.8,1.3c0,0,0,0,0,0
	C39.3,36.2,39.5,36.2,39.8,36.2 M17,36.1C17,36.1,17,36.1,17,36.1C17.1,36.1,17.1,36.1,17,36.1L17,36.1L17,36.1L17,36.1
	c0-0.1,0-0.4,0-0.4l-0.1-0.5l-0.1-0.3l-0.1-0.3c0,0,0-0.1,0-0.1c0,0,0.1-0.1,0.1-0.1c0,0,0.1,0,0.1,0.1l0.5,0.7l0.3,0.5c0,0,0,0,0,0
	c0,0,0,0,0.1,0c0.1,0,0.1,0,0.1-0.1c0,0,0,0,0-0.1c-0.1-0.2-0.2-0.6-0.2-0.6c0,0-0.2-0.5-0.4-0.6c0,0-0.1-0.1,0-0.1
	c0-0.1,0.1-0.1,0.1-0.1l0.5,0.2l0.6,0.4c0,0,0,0,0,0c0,0,0,0,0-0.1c-0.1-0.1-0.6-0.7-0.6-0.7c0,0-0.2-0.2-0.3-0.2
	c0,0-0.1-0.1-0.2-0.2c0,0,0,0,0,0c0,0-0.1-0.1-0.1-0.1c-0.1-0.1-0.2-0.2-0.2-0.2c0,0-0.5-0.3-0.6-0.3c-0.1,0-0.6,0-0.6-0.4
	c0,0,0,0,0,0c0-0.3,0.5-1.4,0.5-1.4l0.3-0.7c0,0,0.1-0.1,0.1-0.3c0.2-0.3,0.4-0.9,0.4-1.1c0-0.1,0-0.1,0.1-0.1c0,0,0.8-0.2,0.8-0.4
	c0-0.1,0-0.2,0-0.3c0-0.3-0.2-0.8-2-1.5c-0.2,0.1-0.7,0.6-1,1.2c-0.2,0.4-0.4,0.8-0.5,1.3c-0.1,0.4-0.2,0.9-0.2,1.5
	c0,0.1,0,0.1,0,0.2c0,0.5,0,1,0.1,1.5c0,0,0,0,0,0.1c0.1,0.8,0.2,1.4,0.5,1.6c0,0,0.4,0.3,0.4,0.4c0,0,0.3,0.2,0.4,0.4
	c0,0.1,0.1,0.2,0.1,0.4c0,0,0,0.1,0,0.1c-0.1,0.1-0.2,0.1-0.2,0.2c0,0,0,0,0,0c0,0,0,0.1,0,0.1c0,0,0,0,0,0c0.1-0.1,0.2-0.2,0.3-0.2
	c0,0,0.1,0,0.2-0.1c0.1,0,0.1-0.1,0.1-0.1c0-0.1,0-0.2,0-0.3c0,0,0,0,0,0h0c0,0,0,0,0,0l0,0l0,0c0,0,0.1-0.1,0.1-0.1
	c0.1,0,0.1,0,0.1,0.1L17,36.1C17,36.1,17,36.1,17,36.1 M26.3,35.7c0,0.1,0,0.2,0.1,0.2c0-0.1,0.1-0.2,0.1-0.4c0.1-0.3,0.3-1,0.5-1.4
	c0.3-0.4,0.7-0.4,0.7-0.4c0.1,0,0.1,0,0.1,0.1l0,0.2c0.1-0.2,0.2-0.4,0.2-0.7c0-0.1,0-0.2,0-0.3c-0.1-0.5-0.2-0.9-0.2-1.1
	c0-0.2,0-0.3,0.1-0.4c0.1-0.2,1.3-1.7,2.1-3.2c0.1-0.2,0.2-0.3,0.2-0.5c0.3-0.6,0.5-1.2,0.5-1.7c0-0.1,0-0.1,0-0.2l0-0.1l0.7-1.4
	c-0.2,0.1-0.3,0.1-0.3,0.1l-2.2,0.3c0,0,0,0,0,0c0,0-0.2,0.6-0.4,0.7c-0.1,0.1-0.4,0.3-0.8,1.3c-0.2,0.5-0.3,1.1-0.4,2
	c0,0-0.2,0.7-0.4,1.4c-0.2,0.6-0.4,1.2-0.5,1.5c-0.2,0.5-0.6,0.9-0.5,1.2c0,0.1,0,0.3,0,0.4c0,0.1,0,0.3,0.1,0.4c0,0,0,0,0,0.1
	c0,0,0,0,0,0c0,0.1,0.1,0.1,0.2,0.2l0.1,0.1L26.3,35.7L26.3,35.7z M34.7,21.4c0.1,0,0.1,0.1,0.1,0.1c0,0.2-0.4,1.4-0.4,1.7
	c0,0.1,0,0.2,0,0.3c0,0.1,0,0.3,0.1,0.4c0.1,0.3,0.3,1,0.3,1.4c0,0,0,0,0,0.1c0,0.4-0.2,1.3-0.3,1.8c0,0.1,0,0.2-0.1,0.2l-0.1,0.3
	l-0.5,1c0,0-0.8,1.5-0.9,1.8c-0.1,0.2-0.4,0.8-0.4,1.6c0,0.4,0.1,0.9,0.3,1.4l0.2,0.9c0.4,1.3,0.5,1.4,1,1.4c0,0,0,0,0,0
	c0-0.2,0.1-0.3,0.1-0.4h0c0,0,0,0,0,0c0-0.3,0.2-0.8,0.5-1.5c0.2-0.5,0.4-2.1,0.5-2.6c-0.3,0.2-0.6,0.4-0.7,0.6
	c-0.1,0-0.4,0.5-0.4,0.5c0,0-0.1,0.1-0.1,0c-0.1,0-0.1-0.1-0.1-0.1c0,0,0.4-6.3,4.5-11.2c-1.2-0.3-2.4-1.5-2.8-2c0,0,0,0.1,0,0.1
	c0,0-0.3,1.1-1.2,1.5c0,0-0.2,0.1-0.3,0.2c-0.3,0.5-0.5,1.1-0.5,1.1c-0.1,0.1-0.1,0.2-0.2,0.4c0,0,0,0,0,0c0,0-0.8,1.3-1.1,1.7
	c-0.1,0.1-0.3,0.3-0.5,0.3c0,0,0,0,0,0.1l0,0L31,26c0,0,0,0.1,0,0.1c0,0.5-0.2,1.1-0.4,1.7c1-0.2,1.8-0.3,2.4-0.4h0
	c0.6-0.1,1-0.1,1.2-0.1c0,0,0-0.1,0-0.2c0.1-0.5,0.3-1.4,0.3-1.7c0,0,0,0,0-0.1c0-0.3-0.2-1.1-0.3-1.3c-0.1-0.2-0.1-0.4-0.1-0.5
	c0-0.1,0-0.2,0-0.4c0-0.3,0.4-1.5,0.4-1.7l0,0C34.6,21.4,34.6,21.4,34.7,21.4C34.7,21.4,34.7,21.4,34.7,21.4 M29.6,34.3
	c0,0.1,0,0.4,0.3,0.4c0.2,0,0.5,0,0.7,0c0.3,0,0.6,0,0.7-0.1c0.2-0.1,0.4-0.3,0.4-0.4c0,0,0,0,0,0c-0.1-0.1-0.3-0.3-0.4-0.5
	c-0.1-0.2-0.3-0.5-0.3-0.7c0,0,0-0.1,0-0.1c0,0,0.1-0.3,0.1-0.4v0c0,0,0-0.1,0-0.2c0-0.2,0-0.5,0.1-0.7c0.1-0.2,1-1.6,1-1.6
	c0,0,0.4-0.6,0.6-2.4c-0.6,0.1-1.5,0.2-2.4,0.4c0,0.3,0,1.7,0,2.2c0,0.1,0,0.2,0,0.2c0,0.1,0,0.2,0,0.4c0,0.3,0,0.7-0.2,0.9
	c-0.2,0.3-0.4,0.8-0.4,0.9c0,0,0,0,0,0c0,0.1,0,0.2,0,0.4c0,0.2,0,0.3,0,0.4C29.8,33.6,29.6,34.2,29.6,34.3
	C29.6,34.2,29.6,34.3,29.6,34.3 M8.6,30.7c0,0,0.1,0.7,0.3,1c0,0,0,0.1,0.1,0.1c0.3,0.3,1.2,0.9,2.2,0.9c0.5,0,1,0.1,1.4,0.1
	c0.6,0,1.2-0.1,1.6-0.4c0-0.5-0.1-1-0.1-1.5c0-0.1,0-0.1,0-0.2c0-0.5,0.1-1,0.2-1.4h0c-0.6-0.3-1.7-1.5-2.2-2.1
	c-0.1,0.1-0.5,0.2-0.8,0.4c-0.2,0.1-0.4,0.3-0.5,0.4c-0.3,0.3-0.5,0.7-0.6,1c0,0,0,0.1,0,0.1v0c0,0.3,0.3,0.6,0.4,0.6c0,0,0,0,0,0
	c0.2,0,0.4,0.1,0.5,0.2c0.2,0.2,0.3,1,0.3,0.9c0.1,0.1,0.8,0.7,0.8,0.7c0.1,0,0.1,0.1,0,0.2c0,0.1-0.1,0.1-0.2,0
	c0,0-0.7-0.6-0.8-0.7c-0.2-0.2-0.2-0.8-0.4-1c0,0-0.2-0.1-0.4-0.1c-0.3,0-0.7,0-0.9,0v0h0l0,0C9.6,30,8.8,30.5,8.6,30.7
	C8.6,30.7,8.6,30.7,8.6,30.7 M7,29.4c0,0.2-0.1,0.6-0.1,0.9c0,0.5,0.1,0.8,0.8,0.8h0c0.1-0.1,0.5-0.3,0.7-0.4c0,0,0.1-0.1,0.1-0.1
	c0.2-0.3,1.1-0.7,1.3-0.8h0c0,0,0,0,0,0c0,0,0,0,0,0c0.1,0,0.3,0,0.6,0c-0.1-0.2-0.3-0.4-0.3-0.6c0,0,0,0,0,0c0,0,0,0,0,0
	c0,0-0.2-0.1-0.4-0.3c-0.2-0.1-0.4-0.3-0.4-0.3c-0.1,0-0.3,0-0.5-0.1c-0.2,0-0.4-0.1-0.5-0.1c0,0,0,0,0,0c0,0-0.1,0-0.1,0
	C7.8,28.5,7,29,7,29.4 M26.1,30.8C26.1,30.8,26.1,30.9,26.1,30.8c0.1,0.1,0.1,0.2,0.1,0.2c0,0,0,0,0.1-0.1l0.2-0.3l0.2-0.4
	c0,0,0,0,0,0c0.2-0.7,0.4-1.4,0.4-1.4c0.1-0.8,0.2-1.5,0.4-1.9c0,0-0.1-0.1-0.2-0.1c-0.1,0-0.3,0-0.5,0.2c-0.3,0.3-0.4,0.4-0.4,0.4
	c-0.3,0.5-0.3,0.4-0.3,0.5c0,0.1-0.2,0.8-0.2,0.8h-0.1h0.1h0l0,0v0c0,0,0,0,0,0c0,0.1,0,0.3-0.1,0.4c-0.1,0-0.3,0.2-0.4,0.2
	c0,0-0.1,0-0.1-0.1c0,0-0.1-0.1-0.2-0.2C25,29,24.9,29,24.9,29c0,0-0.1,0-0.1,0c0,0,0,0,0,0c0,0.2-0.1,0.2-0.2,0.2c0,0,0,0,0.1,0.1
	l0.4,0.3c0,0,0.3,0.3,0.5,0.3c0,0,0.1,0,0.1,0c0.2,0,0.3-0.1,0.4-0.2c0,0,0,0,0,0c0-0.1,0-0.3,0-0.3c-0.1-0.1-0.1-0.3-0.1-0.4
	c0-0.1,0-0.3,0-0.3l0,0c0-0.1,0.1-0.1,0.1-0.1c0.1,0,0.1,0.1,0.1,0.1c0,0.1,0,0.2,0,0.3c0,0.1,0,0.2,0.1,0.2c0,0,0.2,0,0.2-0.2
	c0-0.3,0.2-0.5,0.2-0.5c0-0.1,0.1-0.1,0.1-0.1c0.1,0,0.1,0.1,0.1,0.1c-0.1,0.2-0.2,0.2-0.2,0.5c0,0.3-0.3,0.4-0.4,0.4
	c0,0.1,0,0.2-0.1,0.4c0,0.2-0.1,0.4-0.1,0.5C26.2,30.3,26.1,30.7,26.1,30.8L26.1,30.8L26.1,30.8z M18,30.5
	C18.1,30.5,18.1,30.5,18,30.5L18,30.5c1-0.1,1.6-0.7,1.9-1.1c0.2-0.3,0.3-0.7,0.3-1.1c0-0.5-0.2-1.1-0.8-1.8c0-0.1,0-0.1,0-0.2
	c0.1,0,0.1,0,0.2,0c0.6,0.8,0.8,1.4,0.8,2c0,0.4-0.1,0.8-0.3,1.1c1-0.2,1.2-1.6,1.2-2v0c0,0-0.1-0.4-0.1-0.4c0,0-0.1-0.5-0.2-0.9
	c0-0.2-1.2-1.8-1.3-1.9l0,0c0,0-0.1-0.1-0.1-0.1l0,0c-0.4-0.3-1.4-0.6-1.7-0.7c0,0.1-0.1,0.1-0.2,0.1c-0.2,0-0.3,0.1-0.4,0.1
	c-0.2,0-0.3,0-0.3,0c0,0,0,0-0.1,0c0,0-0.1,0-0.1,0h0c0,0-0.1,0.1-0.2,0.1c-0.1,0-0.3,0.1-0.3,0.1c0,0.1-0.1,0.3-0.1,0.3
	c0,0.1-0.1,0.4-0.1,0.5c0,0.1,0,0.3-0.1,0.4c0,0-0.2,0.2-0.4,0.2c-0.1,0-0.1,0-0.2,0c-0.1,0-0.2,0-0.4-0.1c-0.1-0.1-0.3-0.3-0.4-0.4
	c0,0,0,0,0,0L13.5,25c0,0-1.2,0.3-1.5,0.3c-0.3,0-1.3,0.3-1.3,0.8c0,0,0,0,0,0c0,0.1,0,0.2,0,0.3c0,0.1,0,0.3,0,0.4
	c0,0.2,0,0.2,0.1,0.3c0.2,0.1,0.3,0.2,0.4,0.3c0.3-0.2,0.5-0.3,0.7-0.4c-0.1-0.1-0.2-0.2-0.2-0.2c0,0,0-0.1,0-0.2c0,0,0.1,0,0.2,0
	c0,0,0.1,0.1,0.3,0.3c0.5,0.5,1.6,1.7,2.2,2.1c0.1-0.5,0.3-0.9,0.5-1.2c0.4-0.8,1.1-1.3,1.1-1.3l0.1,0c1.9,0.7,2.2,1.3,2.2,1.7
	c0,0.1,0,0.2,0,0.3c-0.1,0.5-0.7,0.6-0.9,0.6c-0.1,0.3-0.2,0.6-0.4,0.9c0,0,0,0,0.1,0C17.1,30.1,17.4,30.5,18,30.5 M9.2,28.4
	c0.2,0,0.7,0.4,0.9,0.5c0.1-0.3,0.3-0.7,0.6-1c0.1-0.1,0.2-0.2,0.4-0.3c-0.1-0.1-0.2-0.1-0.3-0.2c-0.2-0.1-0.2-0.3-0.2-0.5
	c0-0.1,0-0.2,0-0.4c0-0.1,0-0.2,0-0.3c0,0,0,0,0,0c0-0.8,1.2-1,1.5-1c0.3,0,1.4-0.3,1.4-0.3l1-0.4c-0.1-0.1-0.1-0.3-0.1-0.5
	c0-0.1,0-0.1,0-0.2c0.1-0.4,0.3-0.8,0.3-0.8l0,0c0,0-0.4-1.2-0.4-1.2c0,0-0.7-0.9-0.8-1.2c-0.1-0.1-0.4-0.6-0.7-1.5
	c-0.3,0-1.4,0.2-2.7,0.2c-0.3,0-0.6,0-0.9,0c-0.1,0.1-0.7,0.8-0.7,1.9c0,1.2,0.3,2.9,0.3,3.4H8.8l0.1,0c0,0.3-0.1,0.9-0.2,1.5
	c0,0.2-0.1,0.6-0.1,1c0,0.3,0.1,0.7,0.2,1.1c0,0,0,0,0,0C8.9,28.3,9.1,28.3,9.2,28.4 M25.9,28.8L25.9,28.8L25.9,28.8L25.9,28.8z
	 M25.7,28.8C25.7,28.8,25.7,28.8,25.7,28.8L25.7,28.8z M7.7,19.2c0,0-1,0.7-1,2.4v0c0,0.7,0.1,1.5,0.1,2.4c0,1.1-0.1,2.2-0.5,2.9
	c-0.1,0.1-0.1,0.2-0.2,0.3c0,0-0.3,0.3-0.2,0.4c0,0,0,0,0.1,0c0.4,0,0.8,0,1,0.3c0.1,0.1,0.2,0.2,0.2,0.2c0,0,0.2,0.1,0.6,0.1
	c0.1,0,0.2,0,0.3,0c0,0,0.1,0,0.1,0c0,0,0,0,0,0h0c0.1,0,0.2,0,0.3,0c-0.1-0.4-0.2-0.8-0.2-1.1c0-0.5,0.1-0.8,0.1-1
	c0.1-0.6,0.2-1.2,0.2-1.4c0,0,0,0,0,0c0-0.4-0.3-2.2-0.3-3.4c0-0.9,0.4-1.6,0.6-1.9C8.5,19.3,8.1,19.2,7.7,19.2
	C7.7,19.2,7.7,19.2,7.7,19.2 M4.7,27.3c0.1,0,0.2,0.1,0.4,0.1c0.2,0,0.4,0.1,0.5,0.1c0-0.3,0.3-0.5,0.3-0.5C6,27,6,26.9,6.1,26.8
	c0.4-0.7,0.5-1.7,0.5-2.8c0-0.8-0.1-1.7-0.1-2.4c0,0,0,0,0-0.1c0-1.4,0.7-2.2,1-2.5C7.3,19.1,7.1,19,7,19c-0.1,0.1-0.9,0.9-0.9,2.3
	l-0.3,3.4c0,0,0,0,0,0.1c0,0.1,0,0.3-0.2,0.8c0,0-0.3,0.6-0.4,1C5,26.8,5,26.8,5,26.9c-0.1,0.1-0.3,0.3-0.3,0.4c0,0,0,0,0,0l0,0
	C4.6,27.3,4.7,27.3,4.7,27.3 M6.2,19.2C6,19.5,5.7,20,5.6,21c0,0-0.1,2-0.4,2.9c-0.5,1.1-1.6,2.2-1.6,2.2c0,0-0.1,0.1-0.1,0.2
	c0,0.1,0,0.2,0.1,0.3l0.8,0.5c0,0,0,0,0,0c0.1,0,0.2-0.3,0.3-0.4c0,0,0-0.1,0.2-0.3c0.2-0.4,0.4-1,0.4-1c0.2-0.5,0.2-0.6,0.2-0.7h0
	l0,0l0.3-3.4c0-1.3,0.6-2.1,0.9-2.4c-0.1,0-0.1,0-0.2-0.1C6.5,18.9,6.3,19,6.2,19.2 M23.8,26.3C23.8,26.3,23.8,26.3,23.8,26.3
	C23.8,26.3,23.8,26.3,23.8,26.3C23.8,26.3,23.8,26.3,23.8,26.3 M20,24c0,0,0.9,1.3,1.2,1.8l1.5-0.3c0.4-0.2,0.5-0.4,0.5-0.4
	c0.1-0.2,0.3-0.2,0.4-0.2c0.1,0,0.5-0.3,0.6-0.4c0.1-0.1,0.2-0.1,0.3-0.1c0.1,0,0.1,0,0.2,0c0.1,0.1,0.2,0.2,0.2,0.2
	c0.1,0,0.2,0,0.2,0c0.1,0,0.3,0,0.3,0c0.2-0.1,0.3-0.2,0.3-0.4c0-0.1,0-0.2-0.1-0.3c0-0.2-0.5-0.5-0.5-0.5c0,0,0,0-0.1-0.1
	c0,0,0-0.1,0-0.1c0.1-0.1,0.1-0.2,0.1-0.2c0-0.1-0.1-0.2-0.1-0.2l0-0.1c-0.1-0.2-0.3-0.3-0.4-0.3c-0.1,0-0.2,0-0.2,0
	c-0.2,0-0.8-0.5-0.9-0.6c0-0.1-1.2-0.1-1.6-0.2c0,0-0.1,0-0.1,0c-0.3,0-0.6,0.3-0.7,0.4c-0.1,0.1-0.3,0.3-0.5,0.3
	c0,0-0.3,0.2-0.4,0.4c-0.1,0.1-0.2,0.2-0.2,0.2c0,0,0,0-0.1,0.1c-0.1,0-0.1,0.2-0.1,0.4c0,0.2,0.1,0.4,0.1,0.4c0,0,0,0,0,0
	C19.9,23.9,20,23.9,20,24C20,23.9,20,24,20,24 M14.1,11.1c0.1,0,0.1,0.1,0,0.2c0,0-0.8,1.4-1,1.9c-0.2,0.4-0.3,1-0.3,1.4
	c0,0.1,0,0.2,0,0.2c0,0.2,0,1.1-0.1,1.9c0,0.1,0,0.2,0,0.4c0,0,0,0.1,0,0.1c0,0.4,0.1,0.6,0.1,0.6c0,0.5,0.1,0.9,0.2,1.2
	c0.3,1,0.6,1.3,0.7,1.5c0.1,0.2,0.8,1.1,0.8,1.1c0,0,0.4,1.1,0.4,1.3v0c0,0.2-0.2,0.4-0.3,0.8c0,0,0,0.1,0,0.1
	c0,0.2,0.1,0.4,0.1,0.4c0,0,0,0.1,0.1,0.1c0.1,0.1,0.3,0.3,0.4,0.4c0,0,0.1,0,0.2,0c0.1,0,0.1,0,0.2,0c0.1,0,0.3-0.2,0.3-0.2
	c0,0,0-0.1,0-0.2c0-0.1,0.1-0.4,0.1-0.5c0-0.1,0.1-0.2,0.1-0.3c0,0,0,0,0-0.1l0,0c0,0,0,0,0-0.1c0.1-0.1,0.3-0.2,0.4-0.2
	c0,0,0.1-0.1,0.2-0.1c0,0,0,0,0,0h0c0.1,0,0.3,0.1,0.3,0.1c0,0,0.1,0,0.3,0c0.1,0,0.2,0,0.4-0.1c0,0,0,0,0.1,0c0,0-0.1-0.1-0.2-0.1
	c-0.1-0.1-0.5-0.2-0.6-0.4c0-0.1-0.3-0.2-0.4-0.2c-0.3-0.1-0.6-0.8-0.8-1.4c-0.2-0.6-0.3-1.3-0.3-2c0,0,0,0,0,0c0,0,0,0,0,0
	c0-0.7-0.5-1.7-0.7-2.1c0-0.1-0.1-0.2-0.1-0.2c0-0.1,0-0.1,0-0.1c0-0.1,0.1-0.2,0.1-0.2c0.4-0.3,0.6-1.2,0.7-1.6
	c0.1-0.4,0.5-0.5,0.7-0.6c0.1-0.1,0.4-0.3,0.6-0.6c0.2-0.2,0.3-0.5,0.4-0.7c0.1-0.2,0.1-0.4,0.1-0.6c0-0.3-0.1-0.5-0.2-0.8
	c-0.1-0.2-0.3-0.5-0.6-0.7c-0.1-0.1-0.2-0.2-0.4-0.2c-0.4-0.2-0.8-0.3-1.1-0.3c0,0,0,0,0,0c-0.5,0-2.7,0.3-3.3,1
	c-0.6,0.6-0.9,1.1-0.9,1.5c0,0.2,0.1,0.4,0.2,0.6c0.5,0.6,1,1.1,1.4,1.1c0.1,0,0.1,0,0.2,0h0c0,0,0,0,0,0c0.1-0.4,0.1-0.9,0.3-1.3
	c0.2-0.6,1-2,1-2C14,11.1,14,11.1,14.1,11.1C14.1,11.1,14.1,11.1,14.1,11.1 M28.9,22c-0.1,0-0.6,0.7-0.6,1.2c0,0,0,0.1,0,0.1
	c0.1,0.4,0.3,1.1,0.3,1.3l0.1,0l2.3-0.3c0,0,0.1,0,0.3-0.1c0.2-0.1,0.5-0.2,0.6-0.4c0.1-0.1,0.4-0.5,0.6-0.8
	c-0.2,0.1-0.4,0.1-0.5,0.1c-0.2,0-0.3-0.1-0.3-0.1c0,0-0.3-0.1-0.4-0.2l-0.3,0.2c0,0-0.1,0-0.1,0c-0.5,0-0.6-0.7-0.7-0.8
	c0-0.1-0.2-0.2-0.2-0.2c-0.1,0-0.3,0-0.4-0.1c0,0-0.4-0.3-0.6-0.5C29.1,21.8,29,22,28.9,22 M31,23l0.3-0.2l0.1,0c0,0,0.1,0,0.2,0.1
	c0,0,0,0,0,0l0.2-0.1c0.1,0,0.1,0,0.2,0c0,0.1,0,0.1,0,0.2l-0.1,0.1c0,0,0.1,0,0.2,0c0.2,0,0.6-0.1,1-0.7c0.1-0.1,0.1-0.2,0.2-0.3
	c0,0,0.3-0.6,0.5-1.2l0.1-0.1c0.1,0,0.3-0.2,0.4-0.2c0.7-0.2,1-1.3,1-1.3l0-0.1c0-0.1,0-0.2,0-0.3c0-0.1,0-0.1,0.1-0.1h0
	c0,0,0.1,0,0.1,0c0,0,1.5,1.9,3,2.2c0.1,0,0.3,0,0.4,0c0.3,0,0.5-0.1,0.8-0.2c-2.2-0.6-2.9-1.7-2.9-2.7c0-1.4,1.2-2.7,1.7-3.1
	c-0.1,0-0.2-0.1-0.4-0.1c-0.2,0-0.4,0-0.6,0.1c-1.4,0.5-2.1,2.9-2.1,2.9l0,0c0,0.1-0.1,0.1-0.1,0.1c-0.1,0-0.1-0.1-0.1-0.1
	c0-0.1,0.7-2.4,2.2-3.1c-0.2,0-0.4,0-0.6,0c-2.2,0-4.3,1.1-4.4,1.1c-0.4,0.2-0.7,0.5-0.8,0.6c0,0,0.1,0,0.1,0c0.1,0,0.1,0,0.2,0
	c0,0,0.3,0.1,0.5,0.2c0.1,0.1,0.3,0.1,0.3,0.1c0.2,0,0.8,0.2,0.8,0.2c0.1,0,0.4-0.1,0.5,0.3c0,0,0,0,0,0.1c0,0.1-0.1,0.1-0.1,0.2
	c0.1,0,0.2,0.1,0.3,0.3c0,0,0,0,0,0c0,0.1-0.1,0.2-0.1,0.3l0,0l0,0c0,0,0.2,0.4,0.3,0.5c0,0.1,0,0.1,0,0.2c0,0.1,0,0.2-0.1,0.2
	c0,0,0,0-0.1,0.1c0,0,0,0.1,0,0.1c0,0.1,0,0.2-0.1,0.3c0,0-0.1,0.2-0.2,0.3c0,0-0.2,0.3-0.4,0.4c-0.1,0.1-0.3,0.1-0.3,0.1l0,0
	c-0.1,0.2-0.4,0.3-0.6,0.3c0,0,0,0,0,0c0,0,0,0,0,0c-0.1,0-0.3,0.2-0.5,0.2c-0.1,0-0.2,0-0.2-0.1c-0.1-0.1-0.1-0.3-0.1-0.4
	c0-0.1,0-0.2,0-0.3c0.1-0.2,0.2-0.3,0.2-0.3c0,0,0-0.1,0-0.1c0,0,0-0.1,0-0.1c0,0-0.2-0.1-0.2-0.3c0-0.1,0-0.2,0.1-0.2
	c0.2-0.2,0.5-0.9,0.6-1c0-0.1,0-0.1,0-0.1c0-0.1,0-0.2,0-0.2c0,0-0.5-0.3-0.5-0.3c0,0-0.6-0.2-0.7-0.1l0,0v0l0,0c0,0,0,0,0,0
	c-0.1,0-0.1,0-0.2,0c-0.1,0-0.3,0-0.4,0.1c-0.2,0.1-0.6,0.2-0.6,0.3c-0.1,0-0.4,0.3-0.4,0.3l-0.4,0.4c0,0-0.5,0.4-0.5,1.5
	c0,0.1,0,0.1,0,0.2c0,0.2,0,0.4,0,0.6c0,0,0.1,0.4,0.3,0.8c0,0.1,0.6,0.5,0.6,0.5c0,0,0.3,0,0.3,0c0.1,0,0.3,0.1,0.4,0.3
	C30.6,22.5,30.8,23,31,23L31,23C31,22.9,31,22.9,31,23 M32.2,17.3c0.1,0,0.5,0.3,0.6,0.4c0.1,0.1,0.1,0.2,0.1,0.3c0,0.1,0,0.1,0,0.2
	c-0.1,0.2-0.4,0.9-0.7,1.1c0,0,0,0.1,0,0.1c0,0.1,0.1,0.1,0.1,0.2c0.1,0.1,0.1,0.1,0.1,0.2c0,0.1,0,0.1,0,0.2
	c-0.1,0.1-0.2,0.2-0.2,0.3c0,0,0,0.1,0,0.2c0,0.1,0,0.3,0.1,0.3v0v0v0c0.1,0,0.3-0.1,0.5-0.2c0,0,0,0,0,0h0c0,0,0.3-0.1,0.3-0.1
	c0,0,0,0,0,0c0.1-0.2,0.4-0.2,0.4-0.2c0.1,0,0.2-0.3,0.3-0.4c0,0,0.1-0.2,0.2-0.3c0,0,0-0.1,0-0.1l0,0c0,0-0.1-0.1-0.1-0.1
	c0-0.2,0.1-0.2,0.2-0.2c0,0,0,0,0-0.1c0,0,0-0.1,0-0.1c0-0.1-0.2-0.4-0.3-0.5c0,0,0-0.1,0-0.1c0-0.1,0.1-0.3,0.1-0.3c0,0,0,0-0.1,0
	c-0.1,0-0.1-0.1-0.2-0.1c-0.1,0-0.1-0.1-0.1-0.2c0-0.1,0.1-0.2,0.1-0.2c0,0,0,0-0.1,0c-0.1,0-0.2,0-0.2,0c-0.2,0-0.7-0.2-0.8-0.2
	c-0.1,0-0.2-0.1-0.4-0.1c-0.2-0.1-0.4-0.2-0.5-0.2c0,0,0,0,0,0c0,0,0,0-0.1,0c-0.1,0-0.2,0-0.3,0c-0.1,0-0.3,0-0.3,0
	c-0.1,0-0.5,0.2-0.7,0.2l0,0l0,0h0c-0.1,0-0.4,0.2-0.7,0.3c-0.2,0-0.1,0.5-0.6,0.6c-0.1,0-0.2,0.1-0.2,0.2c-0.1,0.2-0.1,0.5-0.3,0.6
	c0,0,0,0,0,0c0,0,0,0.1,0,0.1c0,0,0,0,0,0c0,0.1,0,0.2,0,0.3c0,0,0,0.1,0,0.1c0,0,0,0,0,0c0,0,0,0.1,0,0.1c0.1-1,0.6-1.4,0.6-1.4
	l0.4-0.4c0,0,0.3-0.3,0.4-0.3c0.1-0.1,0.5-0.2,0.6-0.3c0.1-0.1,0.3-0.1,0.5-0.1c0.1,0,0.2,0,0.2,0h0c0,0,0,0,0,0h0
	C31.5,17.2,32.1,17.3,32.2,17.3 M38.7,15.2c-0.3,0.3-1.7,1.7-1.7,3c0,0.9,0.6,1.9,3,2.5c0.4-0.2,1.3-0.8,1.6-1.2l1-0.8
	c0,0,1-0.9,1-1.6c0-0.6-0.5-1.6-1.6-1.6c-0.1,0-0.2,0-0.3,0l-0.8,0.2l-0.1,0c-0.6-0.5-1.2-0.5-1.6-0.5c-0.1,0-0.2,0-0.3,0
	S38.8,15.1,38.7,15.2C38.7,15.1,38.7,15.1,38.7,15.2 M21.7,19.9c0.1,0,0.2,0.1,0.3,0.1c0.3,0.1,0.6,0.1,0.8,0.1c0.2,0,0.3,0,0.3,0
	c0.2,0,0.4-1,0.4-1c0-0.1,0-0.2,0-0.2c0-0.1,0-0.2-0.1-0.4c0-0.1-0.1-0.2-0.1-0.3c-0.1-0.3-0.2-0.7-0.2-0.9c0,0,0,0,0-0.1v0
	c0-0.1-0.1-0.4-0.2-0.5c-0.1-0.1-0.3-0.3-0.3-0.6c0,0,0-0.1,0-0.1c0.1-0.4,0.3-0.8,0.5-0.9c0,0,0.1,0,0.1-0.1c0,0,0,0-0.1,0l-0.1,0
	c0,0,0,0-0.1,0c-0.2,0-0.4,0-0.7,0.5c0,0-0.3,0.2-0.4,0.4c0,0-0.4,1.3-0.5,1.7c-0.1,0.5,0,0.4-0.1,0.5c-0.1,0.2-0.7,0.8-0.7,1.1
	c0,0.1,0,0.1,0.1,0.2c0,0,0,0,0,0c0.4,0.3,0.6,0.4,0.7,0.7h0C21.6,19.8,21.6,19.8,21.7,19.9 M6.9,18.7c0.2,0.1,0.5,0.1,0.8,0.2
	c0.5,0.1,1,0.1,1.5,0.2c0.3,0,0.6,0,0.9,0c1.2,0,2.3-0.1,2.6-0.2c-0.1-0.3-0.1-0.7-0.2-1.1c0,0-0.1-0.2-0.1-0.6c0,0,0,0,0,0
	c-0.2,0.2-0.7,0.5-1.3,0.9c-0.2,0.1-0.4,0.2-0.6,0.2c-0.6,0-1-0.5-1.3-0.7c-0.1-0.1-0.2-0.1-0.4-0.1c-0.4,0-0.9,0.1-1.4,0.2
	c0,0-0.1,0-0.1,0c-0.4,0-0.7-0.2-0.9-0.4c0,0.1-0.1,0.2-0.1,0.3c0,0.2,0.1,0.5,0.3,0.9C6.7,18.7,6.8,18.7,6.9,18.7 M26,19
	c0.1,0,0.2,0,0.3,0c0.2-0.1,0.4-0.3,0.4-0.3c0.1-0.1,0.1-0.1,0.1-0.2c0-0.1,0-0.2,0-0.3c0,0,0-0.1,0-0.1c0,0,0,0,0-0.1
	c0-0.1-0.1-0.3-0.1-0.3c0-0.1,0-0.1,0-0.2c0,0,0,0,0,0c0,0,0,0-0.1-0.1c-0.1-0.1-0.1-0.1-0.1-0.1c-0.1,0-0.1-0.1-0.1-0.1
	c0,0,0-0.1,0-0.1c0,0,0-0.1,0-0.1c-0.1-0.2-0.1-0.5-0.1-0.5c0,0-0.1-0.3-0.1-0.3C26.1,16,26,15.9,26,15.9l-0.1-0.1
	c0-0.1-0.2-0.2-0.2-0.2l-0.1-0.1c0,0,0,0,0-0.1c0-0.2-0.2-0.1-0.4-0.4c0-0.1-0.3-0.3-0.4-0.3c-0.1-0.2-0.5-0.2-0.5-0.2h0
	c-0.1,0-0.2,0-0.3,0.1c0.1,0,0.3,0,0.5,0.1c0,0,0.3,0.2,0.3,0.3c0,0,0.3,0.2,0.4,0.3c0.2,0.2,0.2,0.3,0.2,0.4c0,0.1,0,0.1-0.1,0.1
	c-0.1,0-0.1,0-0.1-0.1c0,0,0-0.2-0.2-0.3c-0.1-0.1-0.3-0.2-0.4-0.3c-0.1,0-0.3-0.2-0.3-0.3c-0.2,0-0.3-0.1-0.4-0.1
	c-0.4,0-0.6,0.1-0.7,0.2c-0.1,0-0.4,0.5-0.4,0.8c0,0,0,0,0,0.1c0,0.2,0.1,0.3,0.3,0.5c0.1,0.2,0.3,0.5,0.3,0.7c0,0,0,0,0,0v0
	c0,0.1,0,0.3,0.1,0.6c0.1,0,0.7,0.3,1.9,0.3h0c0.2-0.1,0.4-0.2,0.5-0.3c0,0,0,0,0-0.1c0-0.2-0.1-0.4-0.1-0.5c0,0,0,0,0,0
	c0,0,0-0.1,0-0.1c-0.2,0.1-0.6,0.2-0.6,0.2c-0.1,0-0.1,0-0.1-0.1c0-0.1,0-0.1,0.1-0.1c0,0,0.4-0.1,0.5-0.2c0,0,0,0,0.1,0
	c0-0.2-0.1-0.4-0.1-0.5c0-0.1,0-0.1,0.1-0.1c0.1,0,0.1,0,0.1,0.1c0,0.1,0.1,0.7,0.1,0.8v0v0l0,0v0c0,0,0.1,0.3,0.1,0.5
	c0,0.1,0,0.2-0.1,0.2c-0.1,0.1-0.3,0.2-0.5,0.3c0,0,0,0,0,0.1c0,0.5,0.2,0.5,0.3,0.7C25.9,18.9,26,19,26,19C26,19,26,19,26,19
	 M28.3,18.9c0-0.1,0-0.2,0.1-0.2c0,0,0.1-0.3,0.2-0.5c0.1-0.1,0.2-0.2,0.4-0.3c0.3,0,0.1-0.4,0.6-0.6c0.3-0.1,0.5-0.3,0.8-0.3h0h0
	l0,0c0.1,0,0.5-0.2,0.6-0.2c0,0,0.1,0,0.2,0c0,0,0-0.1,0-0.1c0,0,0.3-0.4,0.9-0.7c-1-0.8-1.2-1.6-1.2-2c0,0,0-0.1,0-0.1l0,0L30.9,14
	c0,0.1,0,0.1-0.1,0.2c-0.1,0.1,0,0.2-0.2,0.3l0,0c0,0,0,0-0.1,0h0c0,0,0,0,0,0v0h0c-0.2-0.1-0.4-0.5-0.4-0.5l0-0.1l0.2-0.8l0.1-0.9
	c-0.6,0.4-1.3,0.4-1.4,0.4c0,0,0,0-0.1,0c-0.5-0.1-0.7-0.8-0.8-1.1c0,0,0,0,0,0.1c0,0,0,0,0,0.1c0,0.1,0,0.2,0.1,0.4
	c0,0.1,0,0.1,0,0.2c0,0.2,0,0.5-0.1,0.6c-0.1,0.2-0.3,0.2-0.4,0.2h0c0,0,0,0,0,0c0,0,0,0,0,0c0,0-0.1,0-0.1,0
	c-0.1,0-0.1,0.1-0.1,0.1c0,0-0.1,0-0.1,0c0,0-0.1-0.1,0-0.1c0,0,0.1-0.3,0.1-0.4c0-0.1-0.2-0.5-0.3-0.7c-0.1-0.2-0.2-1.3-0.2-1.6v0
	c0,0,0,0,0,0c0-0.3,0.3-1,0.3-1.1c0-0.2,0.2-0.7,0.4-1c0-0.1,0.1-0.1,0.2-0.2C27.6,8,27.4,8,27.2,8c-0.5,0-0.9,0.3-0.9,0.3l-0.1,0
	c0,0-0.4,0.1-0.7,0.1c-0.2,0-0.4,0.1-1,0.8c-0.3,0.3-0.3,0.6-0.3,0.8c0,0.3,0.1,0.4,0.1,0.4l0,0c0,0,0,0,0,0h0c0.1,0,0.2,0,0.2,0
	c0.4,0.2,1.4,0.6,1.7,1.2c0.1,0.2,0.1,0.3,0.1,0.4c0.1,0,0.1-0.1,0.2-0.1l-0.2-1c0-0.1,0-0.1,0.1-0.1c0.1,0,0.1,0,0.1,0.1l0.4,1.4
	c0,0,0,0,0,0c0.2,0.5,0.3,1,0.3,1.4c0,0.9-0.3,1.4-0.4,1.4c0,0-0.4,0.9-0.4,1c0,0.1,0,0.1,0,0.1c0,0,0.1,0.3,0.1,0.4
	c0,0.1,0,0.1,0,0.2c0,0,0,0.1,0,0.1c0.1,0.1,0.3,0.2,0.3,0.4v0c0,0,0,0.1,0,0.1c0.1,0.1,0.1,0.2,0.1,0.3c0,0,0,0.1,0,0.1
	c0,0,0,0,0,0.1c0,0,0,0.1,0,0.1L28.3,18.9z M18.2,16.4c-0.1,0.1-0.2,0.4-0.2,0.7c0,0,0,0,0,0c0,0,0,0,0,0c0,0.1,0,0.2,0,0.3
	c0,0.2,0,0.3,0.2,0.4c0.1,0,0.2,0.1,0.3,0.1c0.3,0.1,0.6,0.3,0.8,0.3c0.1,0,0.3,0,0.5-0.1c0,0,0.2-0.1,0.2-0.4c0-0.1,0-0.1,0-0.2
	l0.1-0.1c0,0,0.2-0.1,0.2-0.3c0,0,0-0.1,0-0.1L20,16.8c0,0,0-0.1,0-0.1c0,0,0-0.1,0.1-0.1l0.5-0.1c0,0,0.1,0,0.1-0.1c0,0,0,0,0,0
	c-0.2,0-0.4-0.1-0.4-0.1c-0.1,0-0.6-0.1-0.6-0.1l-0.1,0c0,0.1,0,0.1,0.1,0.2c0,0,0,0.1-0.1,0.1c-0.1,0.1-0.3,0.2-0.5,0.2
	c0,0-0.1,0-0.1,0l-0.1-0.1c-0.1,0-0.1-0.1-0.1-0.2c0-0.1,0.1-0.1,0.2,0l0.1,0.1c0,0,0,0,0,0c0.1,0,0.2-0.1,0.3-0.1
	c0,0,0-0.1-0.1-0.2l-0.3-0.1l-0.4-0.1C18.6,16.2,18.3,16.3,18.2,16.4 M9.4,17.5c0.3,0.2,0.7,0.6,1.2,0.6c0.2,0,0.3,0,0.5-0.2
	c0.4-0.3,0.9-0.6,1.1-0.8l-0.9-0.3c-0.2-0.1-1.2-0.5-1.4-0.5c-0.3,0-0.8-0.2-1-0.4C8.5,15.8,8,15.1,8,14.8v0c0,0,0,0,0,0
	c0-0.1,0.1-0.8,0.2-1.4c-0.3,0.1-0.9,0.5-1.6,1.7c0,0-0.5,0.7-0.7,0.8c0,0-0.1,0.1-0.1,0.2c0,0.2,0.1,0.6,0.2,0.6
	c0.1,0.1,0.2,0.2,0.4,0.4c0,0,0,0,0,0c0,0,0,0,0,0c0.2,0.2,0.5,0.4,0.8,0.4c0,0,0.1,0,0.1,0c0.5-0.1,1-0.2,1.5-0.2
	C9,17.3,9.2,17.4,9.4,17.5 M15.9,16.6c0,0.1,0,0.2,0.1,0.3c0,0,0.3,1,1.4,1c0.1,0,0.4,0,0.7,0c-0.2-0.1-0.2-0.4-0.2-0.5
	c0-0.1,0-0.2,0-0.3c0,0,0,0,0,0c0,0,0,0,0,0c0-0.4,0.1-0.7,0.3-0.8c0.2-0.2,0.6-0.3,0.6-0.3h0.1l0.2,0c-0.2-0.2-0.6-0.6-0.6-0.6v0
	c0,0,0,0,0-0.1c0,0,0,0,0,0c-0.6,0.3-1.7,0.6-1.7,0.6l-0.6,0.3C15.9,16.3,15.9,16.5,15.9,16.6 M8.9,15.8c0.2,0.1,0.8,0.4,0.9,0.4
	c0.3,0,1.3,0.4,1.4,0.5l1.1,0.4c0,0,0,0,0,0c0,0,0.1,0,0.1,0v0c0,0,0,0,0,0c0-0.1,0-0.2,0-0.3c0.1-0.7,0.1-1.7,0.1-1.9
	c0,0,0-0.1,0-0.1c-0.1,0-0.1,0-0.2,0c-0.6,0-1.1-0.6-1.6-1.2c-0.2-0.2-0.3-0.5-0.3-0.7c0-0.5,0.4-1,1-1.7c0.5-0.5,1.5-0.8,2.3-0.9
	c-0.1,0-0.2,0-0.2,0c-0.3,0-0.7,0-0.9,0.1c-0.8,0.2-1.8,0.4-2.1,0.6C10.2,11,9.8,11.8,9.4,12c-0.4,0.2-0.8,0.4-0.9,0.9
	c0,0.1-0.1,0.2-0.1,0.4c-0.1,0.6-0.2,1.4-0.2,1.6c0,0,0,0,0,0C8.3,14.9,8.8,15.7,8.9,15.8 M16.3,14.4c-0.3,0.1-0.5,0.2-0.6,0.5
	c-0.1,0.4-0.3,1.2-0.7,1.6l0.8-0.4l0.7-0.4c0,0,1.1-0.4,1.7-0.6c0.2-0.1,0.3-0.1,0.3-0.2c0-0.1,0-0.2,0-0.4c0,0-0.1,0-0.1,0.1
	l-0.6,0.4c-0.1,0-0.1,0-0.2,0c0-0.1,0-0.1,0-0.2l0.6-0.4c0.1,0,0.1-0.1,0.2-0.2c0.2-0.3,0.3-0.6,0.3-0.8c0,0,0-0.1,0-0.1L17,13.8
	l0,0c0,0-0.1,0-0.1,0C16.7,14.1,16.4,14.3,16.3,14.4 M31.2,14c0,0.3,0.1,1.1,1.2,1.8c0.3-0.2,1.6-0.8,3.1-1
	c-0.1-0.1-0.3-0.4-0.7-0.7c-0.3-0.2-0.6-0.4-1-0.5c-0.1,0-0.1-0.1-0.1-0.2c0-0.1,0.1-0.1,0.2-0.1c0.3,0.1,0.6,0.3,0.9,0.5
	c0-0.3-0.4-0.9-0.4-0.9c-0.9-1.5-2.3-2.1-2.5-2.2c0,0.1,0,0.1,0,0.1c0,0,0,0,0,0c0,0.1,0.1,0.4,0.1,0.6c0,0.1,0,0.1-0.1,0.2
	c0,0.1-0.1,0.1-0.1,0.1c0,0-0.1,0-0.1,0c0,0.1,0,0.5-0.2,0.7c-0.1,0.1-0.1,0.2-0.1,0.2c0,0,0,0.2,0,0.4c0,0.2,0,0.3-0.1,0.5
	c0,0.1-0.1,0.1-0.1,0.1C31.2,13.8,31.2,13.9,31.2,14 M8.3,14.8L8.3,14.8L8.3,14.8z M30.5,14.3c0,0,0-0.1,0-0.1
	c0-0.1,0.1-0.3,0.1-0.3l0-0.1l0.1-0.1c0.1-0.1,0.2-0.1,0.2-0.1c0,0,0.1-0.1,0.1-0.1c0-0.1,0.1-0.2,0.1-0.3c0-0.2,0-0.3,0-0.4l0,0h0
	c0-0.1,0.1-0.3,0.2-0.4c0.1,0,0.1-0.4,0.1-0.5c0-0.2,0.2-0.3,0.2-0.3c0,0,0,0,0,0c0-0.1-0.1-0.4-0.1-0.5c0,0,0-0.1,0-0.1
	c0-0.1,0-0.2,0.1-0.3c0,0,0,0,0-0.1c0-0.1,0.1-0.6,0.1-0.7c0,0,0,0,0,0c0,0,0,0,0-0.1c0-0.2,0.1-0.3,0.1-0.4c0,0,0,0,0,0
	c0-0.1-0.3-0.7-0.5-1.1c-0.1-0.3-0.7-0.3-0.7-0.3l-0.1,0c-0.3-0.4-0.9-0.4-1.2-0.4c-0.1,0-0.1,0-0.2,0c0,0-0.8,0.2-0.9,0.3
	c-0.1,0-0.3,0.3-0.5,0.5c0,0,0,0,0,0c0,0,0,0,0,0.1c-0.1,0.1-0.2,0.2-0.2,0.3c-0.1,0.2-0.3,0.8-0.3,0.9c0,0.2-0.3,0.9-0.3,1.1
	c0,0,0,0,0,0c0,0.3,0.2,1.4,0.2,1.5c0,0.1,0.3,0.6,0.3,0.7c0,0,0,0,0,0c0,0,0,0.1,0,0.2c0.1,0,0.1,0,0.2,0c0,0,0,0,0,0c0,0,0,0,0,0
	c0,0,0.1,0,0.1,0c0,0,0,0,0,0c0-0.1,0.1-0.3,0.1-0.6c0-0.1,0-0.1,0-0.2c0-0.2-0.1-0.3-0.1-0.4c0-0.1,0-0.1,0-0.2
	c0-0.1,0.1-0.2,0.2-0.3c0.1-0.1,0.1-0.1,0.1-0.2c0-0.2,0.1-0.7,0.2-0.8c0.1-0.1,0.3-0.5,0.4-0.6c0.1-0.2,0.4-0.3,0.6-0.3
	c0,0,0,0,0,0c0.1,0,0.3,0,0.5,0c0.1,0,0.1,0,0.1,0c0.1-0.1,0.7-0.6,0.7-0.6c0,0,0.1,0,0.1,0c0,0,0.1,0,0.1,0.1c0,0,0.1,0.4,0.1,0.5
	c0,0,0.3,0.4,0.4,0.5c0.2,0.2,0.2,0.6,0.2,0.7c0,0,0,0,0,0.1L30.7,12l0,0.1l-0.1,1.1L30.4,14C30.4,14.1,30.5,14.2,30.5,14.3
	 M19.8,13.6c0.1,0.1,0.3,0.1,0.3,0.1h0c0.1,0,0,0,0.1-0.1c0-0.2,0.1-0.3,0.3-0.3l0,0c0,0,0,0,0-0.1l-0.2-0.2c0-0.1,0-0.1,0-0.2
	c0,0,0.1,0,0.2,0l0.2,0.2c0.1,0,0.2,0,0.2,0c0,0,0.2-0.2,0.2-0.2c0,0,0,0,0,0c0,0,0,0,0,0h0v0c0,0,0,0,0,0c0,0,0,0,0.1,0
	c0,0,0,0,0,0h0c0,0,0,0,0,0c0,0,0.1,0.1,0.1,0.1c0,0,0,0,0-0.1c0.1-0.4,0.4-1.2,0.5-1.4c0-0.1,0.1-0.1,0.1-0.2
	c-0.2-0.1-0.3-0.1-0.6-0.3L21,10.8c0,0.1-0.1,0.3-0.2,0.4c-0.1,0.1-0.3,0.2-0.4,0.2c0,0,0,0,0,0h0h0c0,0-0.3,0.2-0.4,0.3
	c-0.1,0.1-0.4,0.4-0.8,0.4c0,0-0.4,0.1-0.7,0.1c-0.1,0-0.2,0-0.3-0.1c0,0-0.1,0-0.1,0c-0.1,0-0.2,0-0.4,0c-0.1,0-0.2,0-0.3-0.1
	c0,0,0-0.1-0.1-0.1c0,0.1,0,0.2,0,0.4c0,0.2,0,0.4-0.1,0.6c-0.1,0.2-0.2,0.5-0.3,0.7l1.6-0.4l0.1,0l0.1,0.1l0.7,0.4
	C19.5,13.5,19.7,13.6,19.8,13.6 M23.9,13.3c0.1,0,0.2,0.1,0.3,0.1c0.1,0,0.2,0,0.4-0.1c0.4-0.2,0.7-0.2,0.7-0.4c0,0,0,0,0-0.1
	c0,0,0-0.1,0-0.2c-0.2-0.6,0-0.3-0.2-0.5c-0.1-0.1-0.3-0.3-0.3-0.3h0c0,0,0,0-0.1,0c0,0,0,0,0,0c0,0,0,0,0,0.1c0,0,0,0,0,0.1
	c0,0,0,0.1,0.1,0.2c0.1,0.1,0.2,0.3,0.2,0.3v0c0,0.1,0,0.1,0,0.2c-0.1,0-0.1,0-0.2,0c0,0-0.1-0.1-0.1-0.2c0,0,0,0,0,0l-0.4-0.2
	C24,12,23.9,12,23.7,12c-0.1,0-0.2,0-0.3,0c-0.1,0-0.1,0-0.2,0c-0.4,0-0.8,0.3-0.8,0.3c0,0-0.2,0.1-0.3,0.1c0,0.1,0.1,0.1,0.3,0.1h0
	c0.1,0,0.2,0,0.2,0l0,0c0,0,0,0,0,0c0-0.1,0.1-0.1,0.2-0.1c0.1,0,0.1,0,0.2,0.1c0,0,0.7,0.7,0.7,0.7C23.8,13.3,23.8,13.3,23.9,13.3
	 M24.7,11.7c0.1,0,0.2,0,0.2,0.1c0,0,0.1,0.1,0.3,0.3c0.1,0.1,0.2,0.1,0.3,0.6c0,0.1,0,0.1,0,0.2c0.1,0,0.3-0.1,0.4-0.1
	c0.1,0,0.1-0.1,0.2-0.1c0-0.1,0.1-0.1,0.1-0.3c0-0.1,0-0.2-0.1-0.4c-0.2-0.5-1.2-1-1.5-1.1c0,0-0.1,0-0.1,0c0,0-0.1,0-0.1,0
	c-0.2,0-0.5,0.2-0.6,0.4c-0.1,0.1-0.1,0.5-0.2,0.7c0.1,0,0.1,0,0.2,0c0.2,0,0.4,0,0.6,0.2l0.1,0.1c0,0,0,0,0,0c0-0.1,0-0.1,0.1-0.2
	C24.5,11.7,24.6,11.7,24.7,11.7L24.7,11.7z M22.1,12.5L22.1,12.5L22.1,12.5z M28.3,11.4c0,0,0.3,1,0.7,1.1c0,0,0,0,0,0
	c0.1,0,0.8,0,1.4-0.5c0,0,0,0,0,0l0,0l0.3-0.5c-0.1,0-0.2,0-0.3-0.1l0,0c0,0.1-0.1,0.1-0.1,0.1c-0.1,0-0.1-0.1-0.1-0.1l0-0.1
	c-0.1,0-0.2-0.1-0.2-0.1l0,0c-0.1,0-0.1-0.1,0-0.2c0-0.1,0.1-0.1,0.2,0c0,0,0.3,0.2,0.7,0.2c0,0,0,0,0,0l0.4-0.6v0
	c0-0.1-0.1-0.6-0.1-0.6c-0.1-0.1-0.4-0.4-0.5-0.6c0-0.1,0-0.2-0.1-0.3c-0.2,0.2-0.5,0.4-0.6,0.5c-0.1,0-0.2,0-0.2,0
	c-0.2,0-0.5,0-0.5-0.1c-0.1,0-0.3,0.1-0.3,0.2c-0.1,0.1-0.3,0.6-0.4,0.7c0,0-0.1,0.5-0.1,0.7C28.4,11.2,28.4,11.3,28.3,11.4
	C28.3,11.3,28.3,11.4,28.3,11.4 M18.3,11.9c0,0,0.1,0,0.2,0c0.3,0,0.6-0.1,0.7-0.1c0.3,0,0.5-0.2,0.7-0.3c0.1-0.1,0.3-0.3,0.6-0.3
	c0,0,0,0,0,0c0,0,0,0,0,0c0.1,0,0.1,0,0.2-0.1c0.1-0.1,0.1-0.3,0.1-0.4c0,0,0-0.1,0-0.1c0-0.1,0-0.1,0.1-0.1c0,0,0.1,0,0.1,0
	l0.5,0.4c0.4,0.2,0.4,0.2,0.7,0.3c0.1,0,0.2,0.1,0.3,0.1c0,0,0,0,0,0c0.3-0.1,0.2-0.1,0.3-0.2c0-0.1,0.1-0.3,0.1-0.5
	c0-0.3-0.1-0.5-0.3-0.6l-0.1-0.1c0,0-0.3-0.6-0.8-0.6c0,0-0.1,0-0.1,0l-0.1,0c0,0-0.2-0.1-0.4-0.3c-0.3-0.1-0.6-0.3-1-0.3
	c-0.1,0-0.2,0-0.3,0c0,0-0.4-0.1-0.8-0.1c-0.5,0-0.9,0.1-0.9,0.4c0,0.1,0,0.1-0.1,0.1c0,0-0.3,0-0.6,0.1c-0.3,0.1-0.5,0.3-0.5,0.3
	l0,0c0,0,0,0,0,0c0,0.1,0,0.1-0.1,0.1c0,0-0.1,0-0.2,0h0c-0.1,0-0.3,0.2-0.3,0.4c0,0,0,0.1,0,0.1l0,0c0,0,0,0,0,0
	c0.1,0.1,0.2,0.1,0.3,0.2c0.3,0.2,0.5,0.5,0.6,0.8c0,0,0,0.1,0,0.1c0.2,0.1,0.4,0.3,0.4,0.5c0,0,0,0,0.1,0c0.1,0,0.2,0,0.4,0
	C18.2,11.9,18.3,11.9,18.3,11.9 M11.8,26.9L11.8,26.9L11.8,26.9L11.8,26.9z M23.8,25.7c0-0.1,0-0.1,0-0.2l0,0
	c-0.1,0-0.1-0.1-0.2-0.2c0-0.1,0-0.1,0-0.2c0.1,0,0.1,0,0.2,0c0,0.1,0.4,0.2,0.4,0.2v0c0.1,0,0.1,0.1,0.1,0.1c0,0.1-0.1,0.1-0.1,0.1
	c0,0-0.1,0-0.2-0.1l-0.1,0.1C23.9,25.7,23.9,25.7,23.8,25.7C23.8,25.7,23.8,25.7,23.8,25.7 M31.3,22.1L31.2,22L30.8,22
	c-0.1,0-0.1,0-0.1-0.1c0-0.1,0-0.1,0.1-0.1l1-0.2c0.1,0,0.1,0,0.1,0.1c0,0.1,0,0.1-0.1,0.1l-0.4,0.1v0c0,0,0,0.1,0,0.2
	C31.4,22.1,31.4,22.1,31.3,22.1C31.3,22.1,31.3,22.1,31.3,22.1 M31.3,17.4L31.3,17.4L31.3,17.4z M23.6,16.1c-0.1,0-0.1-0.1,0-0.2
	c0,0,0.3-0.4,0.6-0.5c0,0,0.1,0,0.2,0.1c0,0,0.1,0.1,0,0.2c0,0-0.1,0.1-0.2,0h0c0,0,0,0,0,0c0,0,0,0,0,0l0,0.1c0,0.1,0,0.1,0,0.2
	c-0.1,0-0.1,0-0.2,0l0-0.1c0,0,0,0,0,0c-0.1,0.1-0.2,0.2-0.2,0.2h0C23.8,16.1,23.7,16.1,23.6,16.1C23.7,16.1,23.6,16.1,23.6,16.1
	 M29.4,12.3c-0.3,0-0.4-0.2-0.4-0.2c-0.1,0-0.1-0.1,0-0.2c0-0.1,0.1-0.1,0.2,0c0,0,0.1,0.1,0.3,0.1c0.1,0,0.1,0.1,0.1,0.1
	C29.5,12.2,29.5,12.3,29.4,12.3L29.4,12.3z M21.2,12.2L21,12.1L21,12.2c0,0.1-0.1,0.1-0.2,0c-0.1,0-0.1-0.1,0-0.2l0.1-0.1l-0.2-0.1
	c-0.1,0-0.1-0.1,0-0.2c0-0.1,0.1-0.1,0.2,0l0.6,0.4c0.1,0,0.1,0.1,0,0.2C21.4,12.2,21.4,12.3,21.2,12.2
	C21.3,12.3,21.3,12.2,21.2,12.2 M29.5,11.9c-0.2,0-0.3-0.1-0.3-0.2c0,0,0-0.1,0-0.1c0-0.1,0.1-0.1,0.2,0c0,0,0,0,0,0
	c0,0,0.1,0,0.1,0c0.1,0,0.1,0.1,0.1,0.1C29.6,11.8,29.6,11.9,29.5,11.9L29.5,11.9z M29.1,11c-0.1,0-0.1-0.1-0.1-0.1l0-0.1
	c-0.2-0.1-0.3-0.1-0.3-0.1v0c-0.1,0-0.1-0.1,0-0.2c0-0.1,0.1-0.1,0.2,0c0,0,0.3,0.2,0.7,0.2c0.1,0,0.1,0,0.1,0.1
	c0,0.1-0.1,0.1-0.1,0.1c-0.1,0-0.2,0-0.3,0l0,0.1C29.2,10.9,29.1,11,29.1,11C29.1,11,29.1,11,29.1,11 M127.2,37.8
	c0.3,0.3,1,1.1,2.5,1.1c1.7,0,2.8-1,2.8-2.3c0-1.1-0.9-1.8-1.5-2v0c0.6-0.3,1.3-1,1.3-1.9c0-1.4-1.1-2.2-2.6-2.2
	c-1.3,0-2.3,1.1-2.3,1.1c-0.1,0.1-0.1,0.2,0,0.3l0.5,0.4c0.1,0.1,0.2,0.1,0.3,0c0.2-0.3,0.7-0.7,1.4-0.7c0.7,0,1.4,0.5,1.4,1.3
	c0,0.7-0.6,1.3-1.7,1.3h-0.7c-0.2,0-0.2,0.1-0.2,0.3v0.5c0,0.2,0.1,0.3,0.2,0.3h0.7c1.3,0,1.9,0.7,1.9,1.4c0,0.8-0.7,1.3-1.5,1.3
	c-0.9,0-1.6-0.7-1.7-0.8c-0.1-0.1-0.2-0.1-0.3,0l-0.5,0.4C127.1,37.6,127.1,37.7,127.2,37.8 M123.5,37.8c-1.3,0-1.8-1.4-1.7-2.4
	c0.1-0.2,0.7-0.9,1.7-0.9c0.9,0,1.6,0.7,1.6,1.7C125.2,37,124.4,37.8,123.5,37.8 M120.7,35.4c0,1.9,0.9,3.4,2.9,3.4
	c1.5,0,2.7-1.3,2.7-2.8c0-1.7-1.3-2.7-2.6-2.7c-0.8,0-1.5,0.4-1.6,0.5c0.4-1.5,2.4-2.5,2.9-2.7c0.2-0.1,0.3-0.2,0.2-0.4l-0.2-0.5
	c0-0.1-0.2-0.2-0.3-0.1C123.6,30.6,120.7,32,120.7,35.4 M115,36.5c0-0.6,0.6-1.3,1.6-1.5c1,0.1,1.6,0.8,1.6,1.5
	c0,0.8-0.7,1.3-1.6,1.3C115.7,37.9,115,37.3,115,36.5 M116.6,33.9c-1-0.1-1.4-0.7-1.4-1.3c0-0.7,0.6-1.3,1.3-1.3
	c0.8,0,1.4,0.5,1.4,1.3C117.9,33.2,117.5,33.8,116.6,33.9 M113.7,36.5c0,1.3,1.1,2.4,2.8,2.4c1.8,0,2.9-1,2.9-2.4
	c0-1.1-0.9-1.8-1.5-2v-0.1c0.5-0.3,1.3-0.9,1.3-1.9c0-1.3-1.1-2.2-2.6-2.2c-1.5,0-2.6,0.9-2.6,2.2c0,1,0.7,1.6,1.3,1.9v0
	C114.8,34.7,113.7,35.4,113.7,36.5 M107.8,38.7h4.3c0.1,0,0.2-0.1,0.2-0.2V38c0-0.1-0.1-0.2-0.2-0.2h-1.3v-7.1
	c0-0.1-0.1-0.2-0.2-0.2h-0.6l-1.8,1.7c0,0-0.1,0.1,0,0.2l0.1,0.4c0,0.1,0.2,0.1,0.3,0.1l1.1-0.5v5.5h-1.7c-0.1,0-0.2,0.1-0.2,0.2
	v0.5C107.6,38.7,107.7,38.7,107.8,38.7 M96.7,34.5c0-1.7,1.4-3.2,3.2-3.2c1.8,0,3.2,1.5,3.2,3.2c0,1.7-1.4,3.2-3.2,3.2
	C98.1,37.6,96.7,36.2,96.7,34.5 M95.4,34.5c0,2.5,2,4.4,4.4,4.4c2.5,0,4.4-1.9,4.4-4.4c0-2.5-2-4.4-4.4-4.4
	C97.4,30,95.4,32,95.4,34.5 M86.6,38.5c0,0.1,0.1,0.2,0.2,0.2h0.8c0.1,0,0.2-0.1,0.2-0.2v-6h0l5.3,6.3h0.3c0.1,0,0.2-0.1,0.2-0.2
	v-8.3c0-0.1-0.1-0.2-0.2-0.2h-0.8c-0.1,0-0.2,0.1-0.2,0.2v5.8h0L87.1,30h-0.3c-0.1,0-0.2,0.1-0.2,0.2V38.5z M79.8,35.8l1.5-3.4h0.1
	l1.5,3.4H79.8z M77.5,38.7h0.8c0.1,0,0.2-0.1,0.3-0.2c0.2-0.6,0.5-1.1,0.7-1.7h4l0.8,1.7c0.1,0.1,0.1,0.2,0.3,0.2h0.8
	c0.2,0,0.3-0.2,0.2-0.3l-3.7-8.3c0-0.1-0.1-0.1-0.2-0.1h-0.1c-0.1,0-0.2,0.1-0.2,0.1l-3.8,8.3C77.2,38.6,77.3,38.7,77.5,38.7
	 M71.7,38.5c0,0.1,0.1,0.2,0.2,0.2h4.4c0.1,0,0.2-0.1,0.2-0.2v-0.7c0-0.1-0.1-0.2-0.2-0.2H73v-7.2c0-0.1-0.1-0.2-0.2-0.2h-0.8
	c-0.1,0-0.2,0.1-0.2,0.2V38.5z M68,38.5c0,0.1,0.1,0.2,0.2,0.2h0.8c0.1,0,0.2-0.1,0.2-0.2v-8.1c0-0.1-0.1-0.2-0.2-0.2h-0.8
	c-0.1,0-0.2,0.1-0.2,0.2V38.5z M56.8,38.5c0,0.2,0.1,0.3,0.2,0.3h0.8c0.1,0,0.2-0.1,0.2-0.2l0.9-5.5h0l2.2,5.6
	c0,0.1,0.1,0.1,0.2,0.1h0.2c0.1,0,0.2-0.1,0.2-0.1l2.2-5.6h0l0.9,5.5c0,0.1,0.1,0.2,0.2,0.2H66c0.2,0,0.3-0.1,0.2-0.3l-1.5-8.2
	c0-0.1-0.1-0.2-0.2-0.2h-0.2c-0.1,0-0.2,0.1-0.2,0.1l-2.6,6.3h0l-2.6-6.3c0-0.1-0.1-0.1-0.2-0.1h-0.2c-0.1,0-0.2,0.1-0.2,0.2
	L56.8,38.5z M160.1,18.2c0-2.2,1.8-4.1,4-4.1c2.2,0,4,1.8,4,4.1c0,2.2-1.8,4-4,4C161.9,22.2,160.1,20.4,160.1,18.2 M157.8,18.2
	c0,3.5,2.8,6.3,6.3,6.3c3.5,0,6.3-2.8,6.3-6.3c0-3.5-2.8-6.3-6.3-6.3C160.6,11.9,157.8,14.7,157.8,18.2 M145.6,18.2
	c0,3.5,2.8,6.3,6.3,6.3c1.6,0,3.1-0.5,4.3-1.7c0.1-0.1,0.2-0.3,0-0.5l-1.1-1.1c-0.1-0.1-0.3-0.1-0.4,0c-0.7,0.6-1.6,1-2.7,1
	c-2.2,0-3.9-1.9-3.9-4c0-2.2,1.7-4.1,3.9-4.1c1,0,2,0.4,2.7,1c0.1,0.1,0.3,0.1,0.4,0l1.1-1.1c0.1-0.1,0.1-0.4,0-0.5
	c-1.2-1.1-2.5-1.6-4.2-1.6C148.4,11.9,145.6,14.7,145.6,18.2 M141,24c0,0.2,0.2,0.3,0.3,0.3h1.6c0.2,0,0.3-0.2,0.3-0.3V12.4
	c0-0.2-0.2-0.3-0.3-0.3h-1.6c-0.2,0-0.3,0.2-0.3,0.3V24z M127.6,24c0,0.2,0.2,0.3,0.3,0.3h1.6c0.2,0,0.3-0.2,0.3-0.3v-7.5h0l7.3,8
	h0.4c0.2,0,0.3-0.1,0.3-0.3V12.4c0-0.2-0.2-0.3-0.3-0.3H136c-0.2,0-0.3,0.2-0.3,0.3v7.2h0l-7.3-7.7H128c-0.2,0-0.3,0.1-0.3,0.3V24z
	 M114.7,18.2c0,3.5,2.8,6.3,6.3,6.3c1.6,0,3.1-0.5,4.3-1.7c0.1-0.1,0.2-0.3,0-0.5l-1.1-1.1c-0.1-0.1-0.3-0.1-0.4,0
	c-0.7,0.6-1.6,1-2.7,1c-2.2,0-3.9-1.9-3.9-4c0-2.2,1.7-4.1,3.9-4.1c1,0,2,0.4,2.7,1c0.1,0.1,0.3,0.1,0.4,0l1.1-1.1
	c0.1-0.1,0.1-0.4,0-0.5c-1.2-1.1-2.5-1.6-4.2-1.6C117.5,11.9,114.7,14.7,114.7,18.2 M105.1,24c0,0.2,0.1,0.3,0.3,0.3h7.1
	c0.2,0,0.3-0.2,0.3-0.3v-1.4c0-0.2-0.1-0.3-0.3-0.3h-5.2v-3.1h4.3c0.2,0,0.3-0.1,0.3-0.3v-1.5c0-0.2-0.2-0.3-0.3-0.3h-4.3v-2.9h5.2
	c0.2,0,0.3-0.2,0.3-0.3v-1.4c0-0.2-0.1-0.3-0.3-0.3h-7.1c-0.2,0-0.3,0.2-0.3,0.3V24z M97.8,24c0,0.2,0.2,0.3,0.3,0.3h1.6
	c0.2,0,0.3-0.2,0.3-0.3v-9.8h2.7c0.2,0,0.3-0.2,0.3-0.3v-1.4c0-0.2-0.1-0.3-0.3-0.3h-7.7c-0.2,0-0.3,0.2-0.3,0.3v1.4
	c0,0.2,0.1,0.3,0.3,0.3h2.7V24z M90.3,24c0,0.2,0.2,0.3,0.3,0.3h1.6c0.2,0,0.3-0.2,0.3-0.3V12.4c0-0.2-0.2-0.3-0.3-0.3h-1.6
	c-0.2,0-0.3,0.2-0.3,0.3V24z M80.9,24c0,0.2,0.1,0.3,0.3,0.3h6.4c0.2,0,0.3-0.2,0.3-0.3v-1.4c0-0.2-0.1-0.3-0.3-0.3h-4.5v-9.8
	c0-0.2-0.2-0.3-0.3-0.3h-1.6c-0.2,0-0.3,0.2-0.3,0.3V24z M68.8,18.2c0-2.2,1.8-4.1,4-4.1c2.2,0,4,1.8,4,4.1c0,2.2-1.8,4-4,4
	C70.6,22.2,68.8,20.4,68.8,18.2 M66.5,18.2c0,3.5,2.8,6.3,6.3,6.3c3.5,0,6.3-2.8,6.3-6.3c0-3.5-2.8-6.3-6.3-6.3
	C69.3,11.9,66.5,14.7,66.5,18.2 M59.1,17.7v-3.5h2c1,0,1.8,0.7,1.8,1.7c0,1-0.8,1.8-1.8,1.8H59.1z M56.8,24c0,0.2,0.1,0.3,0.3,0.3
	h1.6c0.2,0,0.3-0.2,0.3-0.3v-4.1h2.2c2.1,0,3.9-1.8,3.9-3.9c0-2.1-1.8-3.9-3.9-3.9h-4.1c-0.2,0-0.3,0.2-0.3,0.3V24z"/>
</svg>
